<svg width="64" height="65" viewBox="0 0 64 65" fill="none" xmlns="http://www.w3.org/2000/svg">
<g clip-path="url(#clip0_570_2418)">
<path d="M63.6574 32.2951C63.6574 60.2181 49.4072 64.124 31.8286 64.124C14.25 64.124 -0.000244141 60.2181 -0.000244141 32.2951C-0.000244141 4.37218 14.25 0.466293 31.8286 0.466293C49.4072 0.466293 63.6574 4.37218 63.6574 32.2951Z" fill="#F2F2F7"/>
<g clip-path="url(#clip1_570_2418)">
<g clip-path="url(#clip2_570_2418)">
<path d="M9.08203 14.4742H55.262V49.1092H9.08203V14.4742Z" fill="#003F87"/>
<path d="M14.4938 14.4742L32.0999 27.5345L49.6338 14.4742H55.262V18.9479L37.9445 31.8639L55.262 44.7077V49.1092H49.4895L32.172 36.1933L14.9267 49.1092H9.08203V44.7799L26.3274 31.9361L9.08203 19.0922V14.4742H14.4938Z" fill="white"/>
<path d="M39.6763 34.7502L55.262 46.223V49.1092L35.7077 34.7502H39.6763ZM26.3995 36.1933L26.8325 38.7187L12.9785 49.1092H9.08203L26.3995 36.1933ZM55.262 14.4742V14.6907L37.2951 28.2561L37.4394 25.0812L51.6542 14.4742H55.262ZM9.08203 14.4742L26.3274 27.1737H21.998L9.08203 17.5048V14.4742Z" fill="#EB2051"/>
<path d="M26.4717 14.4742V49.1092H38.0167V14.4742H26.4717ZM9.08203 26.0192V37.5642H55.262V26.0192H9.08203Z" fill="white"/>
<path d="M9.08203 28.4004V35.3274H55.262V28.4004H9.08203ZM28.7807 14.4742V49.1092H35.7077V14.4742H28.7807Z" fill="#EB2051"/>
</g>
</g>
</g>
<defs>
<clipPath id="clip0_570_2418">
<rect width="64" height="64" fill="white" transform="translate(0 0.466309)"/>
</clipPath>
<clipPath id="clip1_570_2418">
<rect x="15.2393" y="14.8591" width="33.8653" height="33.8653" rx="16.9327" fill="white"/>
</clipPath>
<clipPath id="clip2_570_2418">
<rect width="46.18" height="34.635" fill="white" transform="translate(9.08203 14.4742)"/>
</clipPath>
</defs>
</svg>
