<svg width="108" height="20" viewBox="0 0 108 20" fill="none" xmlns="http://www.w3.org/2000/svg">
<path d="M26.0116 15.9481C28.6322 15.9683 30.4263 14.0734 30.4263 11.6543V6.25179H27.8662V11.4527C27.8662 12.8638 27.3017 13.7105 26.0116 13.6903C24.8021 13.6702 24.1973 12.8235 24.1973 11.4527V6.25179H21.6371V11.6342C21.6371 14.1338 23.2095 15.928 26.0116 15.9481Z" fill="white"/>
<path d="M34.7593 15.7264V10.4246C34.7593 9.11432 35.3641 8.46924 36.7752 8.46924C36.8962 8.46924 37.1582 8.46924 37.4606 8.4894V6.19131C37.0373 6.09052 36.6744 6.0502 36.1906 6.0502C33.5297 6.0502 32.1992 7.86448 32.1992 10.1424V15.7264H34.7593Z" fill="white"/>
<path d="M41.2267 15.7264V10.4246C41.2267 9.11432 41.8314 8.46924 43.2425 8.46924C43.3635 8.46924 43.6255 8.46924 43.9279 8.4894V6.19131C43.5046 6.09052 43.1417 6.0502 42.6579 6.0502C39.997 6.0502 38.6665 7.86448 38.6665 10.1424V15.7264H41.2267Z" fill="white"/>
<path d="M54.2052 10.9891C54.2052 8.16686 52.2095 6.0502 49.4478 6.0502C46.6054 6.0502 44.5895 8.1467 44.5895 10.9891C44.5895 13.8516 46.5651 15.9481 49.5083 15.9481C51.4233 15.9481 53.3384 14.9603 53.923 12.8638H51.5644C51.1814 13.5291 50.5565 13.8315 49.4478 13.8315C48.2181 13.8315 47.311 13.1461 47.0086 11.8559H54.1649C54.2052 11.493 54.2052 11.3519 54.2052 10.9891ZM49.4478 8.16686C50.6775 8.16686 51.6451 8.97321 51.8063 10.0819H46.9884C47.2706 8.93289 48.1778 8.16686 49.4478 8.16686Z" fill="white"/>
<path d="M58.0001 15.7264V10.5456C58.0001 9.15464 58.625 8.28781 59.8749 8.28781C61.1247 8.28781 61.7496 9.15464 61.7496 10.5456V15.7264H64.2896V10.344C64.2896 7.84432 62.6971 6.0502 59.8749 6.0502C57.0325 6.0502 55.44 7.84432 55.44 10.344V15.7264H58.0001Z" fill="white"/>
<path d="M70.879 13.6299C69.1453 13.6299 68.6615 13.0049 68.6615 11.4729V8.34829H71.5039V6.25179H68.6615V3.20782H66.1014V11.7349C66.1014 14.5572 67.7947 15.8876 70.1331 15.8876C70.7177 15.8876 71.1007 15.8272 71.5644 15.7264V13.6097C71.2217 13.6299 71.1209 13.6299 70.879 13.6299Z" fill="white"/>
<path d="M81.5004 15.7264L76.2591 2.01846H78.3758L82.2261 12.6622C82.3336 12.9579 82.4075 13.22 82.4479 13.4484H82.4882C82.5285 13.22 82.6024 12.9579 82.7099 12.6622L86.5602 2.01846H88.6769L83.4356 15.7264H81.5004Z" fill="white"/>
<path d="M93.194 6.09052C94.0676 6.09052 94.8672 6.30554 95.5929 6.7356C96.3186 7.16565 96.8898 7.75697 97.3064 8.50956C97.7364 9.24871 97.9515 10.0819 97.9515 11.0092C97.9515 11.9365 97.7566 12.7765 97.3669 13.5291C96.9771 14.2817 96.4463 14.873 95.7743 15.303C95.1158 15.7196 94.3901 15.928 93.5972 15.928C93.0193 15.928 92.428 15.7868 91.8232 15.5046C91.2185 15.209 90.7347 14.8058 90.3718 14.2951V20H88.5172V11.0092C88.5172 10.0013 88.7322 9.12776 89.1623 8.38861C89.5923 7.63602 90.1635 7.06485 90.8758 6.67512C91.588 6.28538 92.3608 6.09052 93.194 6.09052ZM93.2747 14.2346C94.0944 14.2346 94.7664 13.939 95.2905 13.3476C95.8281 12.7429 96.0969 11.9634 96.0969 11.0092C96.0969 10.3776 95.9625 9.81987 95.6937 9.33607C95.4384 8.83882 95.0889 8.4558 94.6454 8.18702C94.202 7.91824 93.7181 7.78385 93.194 7.78385C92.6968 7.78385 92.2331 7.91152 91.8031 8.16686C91.373 8.4222 91.0236 8.7985 90.7548 9.29575C90.4995 9.77956 90.3718 10.3507 90.3718 11.0092C90.3718 11.6543 90.5062 12.2255 90.775 12.7227C91.0438 13.2065 91.3999 13.5828 91.8434 13.8516C92.2869 14.107 92.764 14.2346 93.2747 14.2346Z" fill="white"/>
<path d="M99.3549 10.1424C99.3549 9.36294 99.5228 8.66411 99.8588 8.04591C100.195 7.42771 100.672 6.95062 101.29 6.61464C101.908 6.26523 102.627 6.09052 103.447 6.09052C104.267 6.09052 104.986 6.26523 105.604 6.61464C106.222 6.95062 106.699 7.42771 107.035 8.04591C107.371 8.66411 107.539 9.36294 107.539 10.1424V15.7264H105.685V10.2835C105.685 9.49061 105.497 8.87913 105.12 8.44908C104.744 8.00559 104.186 7.78385 103.447 7.78385C102.708 7.78385 102.15 8.00559 101.774 8.44908C101.398 8.87913 101.209 9.49061 101.209 10.2835V15.7264H99.3549V10.1424Z" fill="white"/>
<path fill-rule="evenodd" clip-rule="evenodd" d="M7.11156 11.422C11.4404 10.5871 19.8162 7.58779 19.8162 7.58779C19.8162 7.58779 19.842 7.90986 19.842 8.15314C19.842 8.51579 19.8183 8.8729 19.7724 9.22302C18.486 9.67836 11.2014 12.228 7.26445 12.9873L4.59885 13.4657L4.54304 13.475L4.08588 13.998C3.56616 14.0241 3.04734 14.0376 2.53022 14.0376C-1.8459 14.0376 0.064199 11.3389 3.65044 9.52389C3.57499 9.07823 3.5357 8.62027 3.5357 8.15314C3.5357 3.65028 7.18617 0 11.6888 0C13.2728 0 14.7515 0.451702 16.0027 1.23338L12.9662 2.67459C12.5559 2.57927 12.1281 2.52888 11.6888 2.52888C8.58283 2.52888 6.06458 5.04694 6.06458 8.15314C6.06458 9.37224 6.45248 10.5007 7.11156 11.422ZM7.57325 15.1928C8.78126 15.9006 10.1877 16.3063 11.6888 16.3063C14.7186 16.3063 17.3624 14.6536 18.768 12.2005L16.3649 13.0614C14.1996 13.796 11.9263 14.4328 9.61627 14.8853L7.57325 15.1928ZM3.82072 10.2978C3.97315 10.8583 4.18387 11.3948 4.44596 11.9003L4.39015 11.9097C1.87337 12.3294 1.59912 11.5539 3.82021 10.2981L3.82072 10.2978Z" fill="white"/>
<path d="M19.8164 7.5878C19.8164 7.5878 11.4406 10.5871 7.1118 11.422L4.44621 11.9004L4.3904 11.9097C1.87361 12.3294 1.59937 11.5539 3.82046 10.2981L3.65068 9.5239C0.0644431 11.3389 -1.84565 14.0376 2.53046 14.0377C3.63763 14.0377 4.75257 13.9757 5.86749 13.8612L9.46363 13.3199C11.7737 12.8675 14.047 12.2306 16.2123 11.4961L19.5572 10.2978C19.743 9.61444 19.8422 8.89538 19.8422 8.15315C19.8422 7.90987 19.8164 7.5878 19.8164 7.5878Z" fill="white"/>
</svg>
