<svg width="32" height="33" viewBox="0 0 32 33" fill="none" xmlns="http://www.w3.org/2000/svg">
<path opacity="0.1" d="M1.66699 16.5C1.66699 8.58392 8.08424 2.16667 16.0003 2.16667C23.9164 2.16667 30.3337 8.58393 30.3337 16.5C30.3337 24.4161 23.9164 30.8333 16.0003 30.8333C8.08424 30.8333 1.66699 24.4161 1.66699 16.5Z" fill="#092857"/>
<path fill-rule="evenodd" clip-rule="evenodd" d="M11.4697 11.9697C11.1768 12.2626 11.1768 12.7374 11.4697 13.0303L14.9393 16.5L11.4697 19.9697C11.1768 20.2626 11.1768 20.7374 11.4697 21.0303C11.7626 21.3232 12.2374 21.3232 12.5303 21.0303L16 17.5607L19.4697 21.0303C19.7626 21.3232 20.2374 21.3232 20.5303 21.0303C20.8232 20.7374 20.8232 20.2626 20.5303 19.9697L17.0607 16.5L20.5303 13.0303C20.8232 12.7374 20.8232 12.2626 20.5303 11.9697C20.2374 11.6768 19.7626 11.6768 19.4697 11.9697L16 15.4393L12.5303 11.9697C12.2374 11.6768 11.7626 11.6768 11.4697 11.9697Z" fill="#5A6576"/>
</svg>
