<svg width="19" height="19" viewBox="0 0 19 19" fill="none" xmlns="http://www.w3.org/2000/svg">
<path d="M12.25 4.25011L7 4.25011C5.34315 4.25011 4 5.59325 4 7.25011V7.25011M12.25 14.7501L7 14.7501C5.34315 14.7501 4 13.407 4 11.7501V11.7501" stroke="#092857" stroke-width="1.125" stroke-linecap="round" stroke-linejoin="round"/>
<path d="M12.25 4.2501C12.25 3.00746 13.2574 2.0001 14.5 2.0001C15.7426 2.0001 16.75 3.00746 16.75 4.2501C16.75 5.49274 15.7426 6.5001 14.5 6.5001C13.2574 6.5001 12.25 5.49275 12.25 4.2501Z" stroke="#092857" stroke-width="1.125" stroke-linecap="round" stroke-linejoin="round"/>
<path d="M1.75 9.50011C1.75 8.25747 2.75736 7.25011 4 7.25011C5.24264 7.25011 6.25 8.25747 6.25 9.50011C6.25 10.7427 5.24264 11.7501 4 11.7501C2.75736 11.7501 1.75 10.7427 1.75 9.50011Z" stroke="#092857" stroke-width="1.125" stroke-linecap="round" stroke-linejoin="round"/>
<path d="M12.25 14.7501C12.25 13.5075 13.2574 12.5001 14.5 12.5001C15.7426 12.5001 16.75 13.5075 16.75 14.7501C16.75 15.9927 15.7426 17.0001 14.5 17.0001C13.2574 17.0001 12.25 15.9927 12.25 14.7501Z" stroke="#092857" stroke-width="1.125" stroke-linecap="round" stroke-linejoin="round"/>
</svg>
