<svg width="21" height="21" viewBox="0 0 21 21" fill="none" xmlns="http://www.w3.org/2000/svg">
<path d="M8.55406 13.8038C8.55406 13.8038 8.97267 12.9672 10.2276 12.9672C11.4824 12.9672 11.9004 13.8038 11.9004 13.8038M18.5935 13.3855L18.5932 6.45223C18.5932 5.92843 18.5932 5.66653 18.521 5.4288C18.4571 5.21834 18.3523 5.02255 18.2126 4.85262C18.0549 4.66068 17.8369 4.51541 17.4011 4.22485L16.0834 3.34637M1.86133 13.3855L1.86133 6.45229C1.86133 5.92847 1.86133 5.66655 1.93353 5.42881C1.99744 5.21834 2.10223 5.02254 2.2419 4.85261C2.39966 4.66066 2.61759 4.51538 3.05344 4.22482L4.3711 3.34637" stroke="#0A7AF9" stroke-width="1.25489" stroke-linecap="round" stroke-linejoin="round"/>
<path d="M8.55455 13.3855C8.55455 15.2336 7.05633 16.7318 5.20818 16.7318C3.36004 16.7318 1.86182 15.2336 1.86182 13.3855C1.86182 11.5373 3.36004 10.0391 5.20819 10.0391C7.05633 10.0391 8.55455 11.5373 8.55455 13.3855Z" stroke="#092857" stroke-width="1.25489" stroke-linecap="round" stroke-linejoin="round"/>
<path d="M18.5937 13.3855C18.5937 15.2336 17.0954 16.7318 15.2473 16.7318C13.3991 16.7318 11.9009 15.2336 11.9009 13.3855C11.9009 11.5373 13.3991 10.0391 15.2473 10.0391C17.0954 10.0391 18.5937 11.5373 18.5937 13.3855Z" stroke="#092857" stroke-width="1.25489" stroke-linecap="round" stroke-linejoin="round"/>
</svg>
