<svg width="21" height="21" viewBox="0 0 21 21" fill="none" xmlns="http://www.w3.org/2000/svg">
<path d="M10.064 17.5684C14.2223 17.5684 17.5933 14.1974 17.5933 10.0391C17.5933 9.50941 17.5386 8.99253 17.4346 8.49377" stroke="#0A7AF9" stroke-width="1.25489" stroke-linecap="round" stroke-linejoin="round"/>
<path d="M10.0638 17.5684C6.43511 17.5684 3.40596 15.0014 2.6932 11.5843M17.4344 8.49382C18.6767 7.07917 19.2151 5.8114 18.7579 5.01955C18.3006 4.22743 16.9327 4.05998 15.0856 4.42894M17.4344 8.49382C16.1658 9.93854 14.163 11.5365 11.737 12.9371C6.93535 15.7094 2.29375 16.6592 1.36967 15.0587C0.912488 14.2668 1.45092 12.999 2.6932 11.5843M17.4344 8.49382C17.1006 6.89368 16.2589 5.47996 15.0856 4.42894M15.0856 4.42894C13.7532 3.23552 11.9933 2.50977 10.0638 2.50977C5.90548 2.50977 2.53449 5.88076 2.53449 10.0391C2.53449 10.5687 2.58917 11.0856 2.6932 11.5843" stroke="#092857" stroke-width="1.25489" stroke-linecap="round" stroke-linejoin="round"/>
</svg>
