<svg width="120" height="22" viewBox="0 0 120 22" fill="none" xmlns="http://www.w3.org/2000/svg">
<path d="M29.4659 17.5429C32.3486 17.5651 34.3221 15.4807 34.3221 12.8197V6.87696H31.506V12.598C31.506 14.1502 30.8851 15.0815 29.4659 15.0594C28.1355 15.0372 27.4702 14.1059 27.4702 12.598V6.87696H24.6541V12.7976C24.6541 15.5472 26.3837 17.5207 29.4659 17.5429Z" fill="#092857"/>
<path d="M39.0885 17.299V11.4671C39.0885 10.0257 39.7537 9.31616 41.3059 9.31616C41.439 9.31616 41.7272 9.31616 42.0599 9.33833V6.81043C41.5942 6.69956 41.195 6.65521 40.6629 6.65521C37.7358 6.65521 36.2723 8.65092 36.2723 11.1566V17.299H39.0885Z" fill="#092857"/>
<path d="M46.2025 17.299V11.4671C46.2025 10.0257 46.8677 9.31616 48.42 9.31616C48.553 9.31616 48.8413 9.31616 49.1739 9.33833V6.81043C48.7082 6.69956 48.3091 6.65521 47.7769 6.65521C44.8499 6.65521 43.3863 8.65092 43.3863 11.1566V17.299H46.2025Z" fill="#092857"/>
<path d="M60.4789 12.088C60.4789 8.98354 58.2836 6.65521 55.2457 6.65521C52.1191 6.65521 49.9017 8.96136 49.9017 12.088C49.9017 15.2368 52.0748 17.5429 55.3123 17.5429C57.4188 17.5429 59.5254 16.4564 60.1685 14.1502H57.5741C57.1527 14.882 56.4653 15.2146 55.2457 15.2146C53.8931 15.2146 52.8952 14.4606 52.5626 13.0415H60.4346C60.4789 12.6423 60.4789 12.4871 60.4789 12.088ZM55.2457 8.98354C56.5984 8.98354 57.6628 9.87052 57.8401 11.0901H52.5404C52.8509 9.82617 53.8487 8.98354 55.2457 8.98354Z" fill="#092857"/>
<path d="M64.6533 17.299V11.6001C64.6533 10.0701 65.3407 9.11659 66.7155 9.11659C68.0903 9.11659 68.7777 10.0701 68.7777 11.6001V17.299H71.5717V11.3784C71.5717 8.62875 69.8199 6.65521 66.7155 6.65521C63.5889 6.65521 61.8371 8.62875 61.8371 11.3784V17.299H64.6533Z" fill="#092857"/>
<path d="M78.82 14.9928C76.913 14.9928 76.3808 14.3054 76.3808 12.6202V9.18311H79.5074V6.87696H76.3808V3.5286H73.5647V12.9084C73.5647 16.0129 75.4273 17.4764 77.9996 17.4764C78.6426 17.4764 79.0639 17.4099 79.574 17.299V14.9707C79.197 14.9928 79.0861 14.9928 78.82 14.9928Z" fill="#092857"/>
<path d="M90.5036 17.299L84.7382 2.22031H87.0665L91.3019 13.9285C91.4201 14.2537 91.5014 14.542 91.5458 14.7933H91.5901C91.6345 14.542 91.7158 14.2537 91.8341 13.9285L96.0694 2.22031H98.3977L92.6323 17.299H90.5036Z" fill="#092857"/>
<path d="M103.367 6.69956C104.327 6.69956 105.207 6.93609 106.005 7.40915C106.804 7.8822 107.432 8.53266 107.89 9.36051C108.363 10.1736 108.6 11.0901 108.6 12.1101C108.6 13.1302 108.385 14.0541 107.957 14.882C107.528 15.7098 106.944 16.3603 106.205 16.8333C105.481 17.2916 104.682 17.5207 103.81 17.5207C103.174 17.5207 102.524 17.3655 101.859 17.0551C101.193 16.7298 100.661 16.2864 100.262 15.7246V22H98.222V12.1101C98.222 11.0014 98.4586 10.0405 98.9316 9.22746C99.4047 8.39961 100.033 7.77133 100.816 7.34262C101.6 6.91392 102.45 6.69956 103.367 6.69956ZM103.455 15.6581C104.357 15.6581 105.096 15.3328 105.673 14.6824C106.264 14.0172 106.56 13.1597 106.56 12.1101C106.56 11.4153 106.412 10.8019 106.116 10.2697C105.835 9.72269 105.451 9.30137 104.963 9.00571C104.475 8.71005 103.943 8.56222 103.367 8.56222C102.82 8.56222 102.31 8.70266 101.836 8.98354C101.363 9.26442 100.979 9.67834 100.683 10.2253C100.403 10.7575 100.262 11.3858 100.262 12.1101C100.262 12.8197 100.41 13.448 100.706 13.995C101.001 14.5272 101.393 14.9411 101.881 15.2368C102.369 15.5176 102.893 15.6581 103.455 15.6581Z" fill="#092857"/>
<path d="M110.143 11.1566C110.143 10.2992 110.328 9.53051 110.698 8.85049C111.067 8.17047 111.592 7.64567 112.272 7.2761C112.952 6.89174 113.743 6.69956 114.645 6.69956C115.547 6.69956 116.338 6.89174 117.018 7.2761C117.698 7.64567 118.222 8.17047 118.592 8.85049C118.962 9.53051 119.146 10.2992 119.146 11.1566V17.299H117.106V11.3119C117.106 10.4397 116.899 9.76704 116.485 9.29398C116.071 8.80614 115.458 8.56222 114.645 8.56222C113.832 8.56222 113.218 8.80614 112.804 9.29398C112.39 9.76704 112.184 10.4397 112.184 11.3119V17.299H110.143V11.1566Z" fill="#092857"/>
<path fill-rule="evenodd" clip-rule="evenodd" d="M8.67598 12.5642C13.4376 11.6458 22.651 8.34656 22.651 8.34656C22.651 8.34656 22.6794 8.70084 22.6794 8.96845C22.6794 9.36731 22.6534 9.76008 22.6029 10.1452C21.1897 10.6454 13.1749 13.4507 8.84352 14.2861L5.91136 14.8123L5.84997 14.8226L5.34716 15.3979C4.77566 15.4265 4.20515 15.4414 3.63651 15.4414C-1.17721 15.4414 0.92389 12.4728 4.86875 10.4763C4.78576 9.98605 4.74254 9.48229 4.74254 8.96845C4.74254 4.0153 8.75805 0 13.711 0C15.4533 0 17.0799 0.496871 18.4562 1.35672L15.1161 2.94205C14.6647 2.8372 14.1941 2.78177 13.711 2.78177C10.2944 2.78177 7.52431 5.55163 7.52431 8.96845C7.52431 10.3094 7.95099 11.5508 8.67598 12.5642ZM9.18383 16.712C10.5126 17.4906 12.0597 17.9369 13.711 17.9369C17.0437 17.9369 19.9521 16.1189 21.4981 13.4204L18.854 14.3676C16.4722 15.1757 13.9716 15.8761 11.4305 16.3739L9.18383 16.712ZM5.05606 11.3276C5.22373 11.9441 5.45552 12.5343 5.74383 13.0904L5.68243 13.1006C2.91397 13.5623 2.61231 12.7093 5.0555 11.3279L5.05606 11.3276Z" fill="#092857"/>
<path d="M22.6513 8.34659C22.6513 8.34659 13.4379 11.6458 8.67622 12.5642L5.74407 13.0904L5.68268 13.1006C2.91422 13.5623 2.61255 12.7093 5.05574 11.3279L4.869 10.4763C0.924134 12.4728 -1.17697 15.4414 3.63675 15.4414C4.85464 15.4414 6.08107 15.3732 7.30748 15.2473L11.2632 14.6519C13.8043 14.1542 16.3049 13.4537 18.6867 12.6457L22.3661 11.3276C22.5706 10.5759 22.6797 9.78492 22.6797 8.96847C22.6797 8.70087 22.6513 8.34659 22.6513 8.34659Z" fill="#092857"/>
</svg>
