<svg width="125" height="28" viewBox="0 0 125 28" fill="none" xmlns="http://www.w3.org/2000/svg">
<path d="M37.6782 23.4068C40.4807 23.4283 42.3994 21.4019 42.3994 18.8149V13.0373H39.6615V18.5993C39.6615 20.1084 39.0579 21.0138 37.6782 20.9923C36.3847 20.9707 35.7379 20.0653 35.7379 18.5993V13.0373H33V18.7933C33 21.4665 34.6815 23.3852 37.6782 23.4068Z" fill="#092857"/>
<path d="M47.0333 23.1696V17.4998C47.0333 16.0985 47.68 15.4087 49.1891 15.4087C49.3185 15.4087 49.5987 15.4087 49.9221 15.4302V12.9726C49.4694 12.8648 49.0813 12.8217 48.5639 12.8217C45.7182 12.8217 44.2954 14.7619 44.2954 17.198V23.1696H47.0333Z" fill="#092857"/>
<path d="M53.9496 23.1696V17.4998C53.9496 16.0985 54.5964 15.4087 56.1054 15.4087C56.2348 15.4087 56.515 15.4087 56.8384 15.4302V12.9726C56.3857 12.8648 55.9976 12.8217 55.4802 12.8217C52.6346 12.8217 51.2117 14.7619 51.2117 17.198V23.1696H53.9496Z" fill="#092857"/>
<path d="M67.8293 18.1034C67.8293 15.0853 65.695 12.8217 62.7415 12.8217C59.7018 12.8217 57.546 15.0637 57.546 18.1034C57.546 21.1647 59.6587 23.4068 62.8062 23.4068C64.8542 23.4068 66.9023 22.3504 67.5275 20.1084H65.0051C64.5955 20.8198 63.9272 21.1432 62.7415 21.1432C61.4265 21.1432 60.4563 20.4102 60.133 19.0305H67.7862C67.8293 18.6424 67.8293 18.4915 67.8293 18.1034ZM62.7415 15.0853C64.0566 15.0853 65.0914 15.9476 65.2638 17.1333H60.1114C60.4132 15.9045 61.3833 15.0853 62.7415 15.0853Z" fill="#092857"/>
<path d="M71.8876 23.1696V17.6292C71.8876 16.1416 72.5559 15.2146 73.8926 15.2146C75.2292 15.2146 75.8975 16.1416 75.8975 17.6292V23.1696H78.6138V17.4136C78.6138 14.7404 76.9107 12.8217 73.8926 12.8217C70.8528 12.8217 69.1497 14.7404 69.1497 17.4136V23.1696H71.8876Z" fill="#092857"/>
<path d="M85.6607 20.9276C83.8067 20.9276 83.2893 20.2593 83.2893 18.6208V15.2793H86.329V13.0373H83.2893V9.78195H80.5514V18.9011C80.5514 21.9193 82.3623 23.3421 84.863 23.3421C85.4882 23.3421 85.8978 23.2774 86.3937 23.1696V20.906C86.0272 20.9276 85.9194 20.9276 85.6607 20.9276Z" fill="#092857"/>
<path d="M97.0195 23.1696L91.4144 8.51001H93.678L97.7956 19.8928C97.9106 20.209 97.9897 20.4892 98.0328 20.7336H98.0759C98.119 20.4892 98.1981 20.209 98.313 19.8928L102.431 8.51001H104.694L99.0891 23.1696H97.0195Z" fill="#092857"/>
<path d="M109.525 12.8648C110.459 12.8648 111.314 13.0947 112.09 13.5547C112.867 14.0146 113.477 14.6469 113.923 15.4518C114.383 16.2422 114.613 17.1333 114.613 18.125C114.613 19.1167 114.404 20.015 113.988 20.8198C113.571 21.6246 113.003 22.257 112.285 22.7169C111.58 23.1625 110.804 23.3852 109.956 23.3852C109.338 23.3852 108.706 23.2343 108.059 22.9325C107.412 22.6163 106.895 22.1852 106.507 21.639V27.74H104.524V18.125C104.524 17.0471 104.753 16.1129 105.213 15.3224C105.673 14.5176 106.284 13.9068 107.046 13.49C107.808 13.0732 108.634 12.8648 109.525 12.8648ZM109.611 21.5743C110.488 21.5743 111.207 21.2581 111.767 20.6258C112.342 19.979 112.629 19.1454 112.629 18.125C112.629 17.4495 112.486 16.8531 112.198 16.3357C111.925 15.8039 111.552 15.3943 111.077 15.1068C110.603 14.8194 110.086 14.6757 109.525 14.6757C108.993 14.6757 108.497 14.8122 108.038 15.0853C107.578 15.3584 107.204 15.7608 106.916 16.2926C106.643 16.81 106.507 17.4208 106.507 18.125C106.507 18.8149 106.651 19.4257 106.938 19.9575C107.225 20.4749 107.606 20.8773 108.081 21.1647C108.555 21.4378 109.065 21.5743 109.611 21.5743Z" fill="#092857"/>
<path d="M116.114 17.198C116.114 16.3644 116.293 15.6171 116.653 14.9559C117.012 14.2948 117.522 13.7846 118.183 13.4253C118.844 13.0516 119.613 12.8648 120.49 12.8648C121.367 12.8648 122.136 13.0516 122.797 13.4253C123.458 13.7846 123.968 14.2948 124.327 14.9559C124.687 15.6171 124.866 16.3644 124.866 17.198V23.1696H122.883V17.3489C122.883 16.5009 122.682 15.847 122.279 15.3871C121.877 14.9128 121.28 14.6757 120.49 14.6757C119.699 14.6757 119.103 14.9128 118.701 15.3871C118.298 15.847 118.097 16.5009 118.097 17.3489V23.1696H116.114V17.198Z" fill="#092857"/>
<path fill-rule="evenodd" clip-rule="evenodd" d="M10.467 17.0712C16.8382 15.8424 29.1659 11.4279 29.1659 11.4279C29.1659 11.4279 29.2039 11.9019 29.2039 12.26C29.2039 12.7938 29.1691 13.3195 29.1015 13.8349C27.2058 14.5059 16.4865 18.2576 10.6928 19.375L6.76949 20.0791L6.68735 20.0928L6.01446 20.8627C5.24927 20.9011 4.48541 20.921 3.72404 20.921C-2.71684 20.921 0.0944897 16.9489 5.37281 14.2775C5.26176 13.6216 5.20394 12.9475 5.20394 12.26C5.20394 5.63258 10.5768 0.26001 17.2039 0.26001C19.5353 0.26001 21.7117 0.924836 23.5532 2.07533L19.084 4.19654C18.48 4.05625 17.8504 3.98208 17.2039 3.98208C12.6324 3.98208 8.92601 7.68822 8.92601 12.26C8.92601 14.0543 9.49692 15.7153 10.467 17.0712ZM11.1466 22.6212C12.9245 23.6629 14.9945 24.26 17.2039 24.26C21.663 24.26 25.5543 21.8277 27.6231 18.2173L24.0871 19.484C20.9001 20.5652 17.5543 21.5025 14.1543 22.1684L11.1466 22.6212ZM5.62344 15.4166C5.84778 16.2415 6.15792 17.0311 6.54368 17.7752L6.46154 17.789C2.75727 18.4067 2.35363 17.2654 5.62269 15.417L5.62344 15.4166Z" fill="#0A7AF9"/>
<path d="M29.1659 11.4279C29.1659 11.4279 16.8382 15.8423 10.467 17.0711L6.54368 17.7752L6.46154 17.7889C2.75727 18.4067 2.35363 17.2653 5.62269 15.417L5.37281 14.2775C0.0944897 16.9489 -2.71684 20.9209 3.72404 20.9209C5.3536 20.9209 6.9946 20.8297 8.63556 20.6613L13.9284 19.8646C17.3285 19.1986 20.6743 18.2613 23.8613 17.1802L28.7844 15.4165C29.058 14.4107 29.2039 13.3524 29.2039 12.26C29.2039 11.9019 29.1659 11.4279 29.1659 11.4279Z" fill="#0A7AF9"/>
</svg>
