<svg width="57" height="44" viewBox="0 0 57 44" fill="none" xmlns="http://www.w3.org/2000/svg">
<rect y="0.263062" width="56.3602" height="42.8474" rx="21.4237" fill="#7FA4BB" fill-opacity="0.05"/>
<path d="M32.5419 17.3248C32.5419 17.5255 32.3792 17.6883 32.1784 17.6883C31.9777 17.6883 31.8149 17.5255 31.8149 17.3248M32.5419 17.3248C32.5419 17.124 32.3792 16.9613 32.1784 16.9613C31.9777 16.9613 31.8149 17.124 31.8149 17.3248M32.5419 17.3248H31.8149M31.0879 21.6868C31.0879 23.2928 29.786 24.5947 28.18 24.5947C26.5739 24.5947 25.272 23.2928 25.272 21.6868C25.272 20.0807 26.5739 18.7788 28.18 18.7788C29.786 18.7788 31.0879 20.0807 31.0879 21.6868Z" stroke="#0A7AF9" stroke-width="1.32993" stroke-linecap="round" stroke-linejoin="round"/>
<path d="M28.3571 14.4168H28.0031C25.5204 14.4168 24.279 14.4168 23.3307 14.9C22.4965 15.325 21.8184 16.0032 21.3933 16.8373C20.9102 17.7856 20.9102 19.027 20.9102 21.5098V21.8638C20.9102 24.3465 20.9102 25.5879 21.3933 26.5362C21.8184 27.3703 22.4965 28.0485 23.3307 28.4735C24.279 28.9567 25.5204 28.9567 28.0031 28.9567H28.3571C30.8399 28.9567 32.0813 28.9567 33.0296 28.4735C33.8637 28.0485 34.5419 27.3703 34.9669 26.5362C35.4501 25.5879 35.4501 24.3465 35.4501 21.8638V21.5098C35.4501 19.027 35.4501 17.7856 34.9669 16.8373C34.5419 16.0032 33.8637 15.325 33.0296 14.9C32.0813 14.4168 30.8399 14.4168 28.3571 14.4168Z" stroke="#1F375B" stroke-width="1.32993" stroke-linecap="round" stroke-linejoin="round"/>
</svg>
