<svg width="62" height="61" viewBox="0 0 62 61" fill="none" xmlns="http://www.w3.org/2000/svg">
<rect x="0.673828" y="0.0380707" width="60.6522" height="60.6522" rx="30.3261" fill="#EDF6FF"/>
<path fill-rule="evenodd" clip-rule="evenodd" d="M30.3259 21.3084L30.3003 21.3084C29.8503 21.3084 29.4747 21.3084 29.1679 21.3335C28.8479 21.3596 28.5475 21.4162 28.2633 21.5609C27.8275 21.783 27.4731 22.1374 27.251 22.5733C27.1062 22.8574 27.0497 23.1579 27.0235 23.4779C26.9985 23.7847 26.9985 24.1603 26.9985 24.6103L26.9985 24.6359L26.9985 25.8576C24.9707 27.1708 23.6289 29.4532 23.6289 32.0489C23.6289 36.1198 26.929 39.4199 30.9998 39.4199C35.0707 39.4199 38.3708 36.1198 38.3708 32.0489C38.3708 29.4532 37.029 27.1708 35.0012 25.8576L35.0012 24.6359L35.0012 24.6103C35.0012 24.1603 35.0012 23.7847 34.9761 23.4779C34.95 23.1579 34.8935 22.8574 34.7487 22.5733C34.5266 22.1374 34.1722 21.783 33.7363 21.5609C33.4522 21.4162 33.1518 21.3596 32.8318 21.3335C32.5249 21.3084 32.1493 21.3084 31.6994 21.3084L31.6737 21.3084L30.3259 21.3084ZM33.7376 25.2032L33.7376 24.6359C33.7376 24.1537 33.7371 23.83 33.7167 23.5808C33.697 23.3389 33.6617 23.2233 33.6228 23.147C33.5219 22.9488 33.3608 22.7878 33.1627 22.6868C33.0864 22.6479 32.9707 22.6127 32.7289 22.5929C32.4796 22.5725 32.156 22.572 31.6737 22.572L30.3259 22.572C29.8437 22.572 29.52 22.5725 29.2708 22.5929C29.0289 22.6127 28.9133 22.6479 28.837 22.6868C28.6389 22.7878 28.4778 22.9488 28.3768 23.147C28.338 23.2233 28.3027 23.3389 28.2829 23.5808C28.2625 23.83 28.2621 24.1537 28.2621 24.6359L28.2621 25.2032C29.1085 24.8644 30.0324 24.678 30.9998 24.678C31.9673 24.678 32.8912 24.8644 33.7376 25.2032ZM30.368 30.9959C30.368 30.647 30.6509 30.3642 30.9998 30.3642C31.3488 30.3642 31.6316 30.647 31.6316 30.9959L31.6316 33.1019C31.6316 33.4509 31.3488 33.7337 30.9998 33.7337C30.6509 33.7337 30.368 33.4509 30.368 33.1019L30.368 30.9959Z" fill="#0A7AF9"/>
</svg>
