<svg width="108" height="20" viewBox="0 0 108 20" fill="none" xmlns="http://www.w3.org/2000/svg">
<path d="M26.0116 15.9481C28.6323 15.9683 30.4264 14.0734 30.4264 11.6543V6.25179H27.8662V11.4527C27.8662 12.8638 27.3018 13.7105 26.0116 13.6903C24.8021 13.6702 24.1974 12.8235 24.1974 11.4527V6.25179H21.6372V11.6342C21.6372 14.1338 23.2096 15.928 26.0116 15.9481Z" fill="#DFDFE8"/>
<path d="M34.7594 15.7264V10.4246C34.7594 9.11432 35.3642 8.46924 36.7753 8.46924C36.8962 8.46924 37.1583 8.46924 37.4607 8.4894V6.19131C37.0373 6.09052 36.6745 6.0502 36.1907 6.0502C33.5297 6.0502 32.1993 7.86448 32.1993 10.1424V15.7264H34.7594Z" fill="#DFDFE8"/>
<path d="M41.2267 15.7264V10.4246C41.2267 9.11432 41.8315 8.46924 43.2426 8.46924C43.3635 8.46924 43.6256 8.46924 43.928 8.4894V6.19131C43.5047 6.09052 43.1418 6.0502 42.658 6.0502C39.997 6.0502 38.6666 7.86448 38.6666 10.1424V15.7264H41.2267Z" fill="#DFDFE8"/>
<path d="M54.2053 10.9891C54.2053 8.16686 52.2096 6.0502 49.4478 6.0502C46.6055 6.0502 44.5896 8.1467 44.5896 10.9891C44.5896 13.8516 46.5652 15.9481 49.5083 15.9481C51.4234 15.9481 53.3385 14.9603 53.9231 12.8638H51.5645C51.1815 13.5291 50.5566 13.8315 49.4478 13.8315C48.2182 13.8315 47.311 13.1461 47.0086 11.8559H54.165C54.2053 11.493 54.2053 11.3519 54.2053 10.9891ZM49.4478 8.16686C50.6775 8.16686 51.6451 8.97321 51.8064 10.0819H46.9885C47.2707 8.93289 48.1778 8.16686 49.4478 8.16686Z" fill="#DFDFE8"/>
<path d="M58.0002 15.7264V10.5456C58.0002 9.15464 58.6251 8.28781 59.8749 8.28781C61.1248 8.28781 61.7497 9.15464 61.7497 10.5456V15.7264H64.2897V10.344C64.2897 7.84432 62.6971 6.0502 59.8749 6.0502C57.0326 6.0502 55.44 7.84432 55.44 10.344V15.7264H58.0002Z" fill="#DFDFE8"/>
<path d="M70.879 13.6299C69.1454 13.6299 68.6616 13.0049 68.6616 11.4729V8.34829H71.504V6.25179H68.6616V3.20782H66.1014V11.7349C66.1014 14.5572 67.7948 15.8876 70.1332 15.8876C70.7178 15.8876 71.1008 15.8272 71.5644 15.7264V13.6097C71.2217 13.6299 71.1209 13.6299 70.879 13.6299Z" fill="#DFDFE8"/>
<path d="M81.5005 15.7264L76.2592 2.01846H78.3759L82.2262 12.6622C82.3337 12.9579 82.4076 13.22 82.4479 13.4484H82.4882C82.5286 13.22 82.6025 12.9579 82.71 12.6622L86.5603 2.01846H88.677L83.4357 15.7264H81.5005Z" fill="#DFDFE8"/>
<path d="M93.1941 6.09052C94.0676 6.09052 94.8673 6.30554 95.593 6.7356C96.3187 7.16565 96.8898 7.75697 97.3064 8.50956C97.7365 9.24871 97.9515 10.0819 97.9515 11.0092C97.9515 11.9365 97.7567 12.7765 97.3669 13.5291C96.9772 14.2817 96.4464 14.873 95.7744 15.303C95.1159 15.7196 94.3902 15.928 93.5973 15.928C93.0194 15.928 92.428 15.7868 91.8233 15.5046C91.2185 15.209 90.7347 14.8058 90.3719 14.2951V20H88.5173V11.0092C88.5173 10.0013 88.7323 9.12776 89.1623 8.38861C89.5924 7.63602 90.1636 7.06485 90.8758 6.67512C91.5881 6.28538 92.3608 6.09052 93.1941 6.09052ZM93.2747 14.2346C94.0945 14.2346 94.7665 13.939 95.2906 13.3476C95.8281 12.7429 96.0969 11.9634 96.0969 11.0092C96.0969 10.3776 95.9625 9.81987 95.6938 9.33607C95.4384 8.83882 95.089 8.4558 94.6455 8.18702C94.202 7.91824 93.7182 7.78385 93.1941 7.78385C92.6968 7.78385 92.2332 7.91152 91.8031 8.16686C91.3731 8.4222 91.0237 8.7985 90.7549 9.29575C90.4995 9.77956 90.3719 10.3507 90.3719 11.0092C90.3719 11.6543 90.5062 12.2255 90.775 12.7227C91.0438 13.2065 91.4 13.5828 91.8434 13.8516C92.2869 14.107 92.764 14.2346 93.2747 14.2346Z" fill="#DFDFE8"/>
<path d="M99.3549 10.1424C99.3549 9.36294 99.5229 8.66411 99.8589 8.04591C100.195 7.42771 100.672 6.95062 101.29 6.61464C101.908 6.26523 102.627 6.09052 103.447 6.09052C104.267 6.09052 104.986 6.26523 105.604 6.61464C106.222 6.95062 106.699 7.42771 107.035 8.04591C107.371 8.66411 107.539 9.36294 107.539 10.1424V15.7264H105.685V10.2835C105.685 9.49061 105.497 8.87913 105.12 8.44908C104.744 8.00559 104.186 7.78385 103.447 7.78385C102.708 7.78385 102.15 8.00559 101.774 8.44908C101.398 8.87913 101.21 9.49061 101.21 10.2835V15.7264H99.3549V10.1424Z" fill="#DFDFE8"/>
<path fill-rule="evenodd" clip-rule="evenodd" d="M7.11156 11.422C11.4404 10.5871 19.8162 7.58779 19.8162 7.58779C19.8162 7.58779 19.842 7.90986 19.842 8.15314C19.842 8.51579 19.8183 8.8729 19.7724 9.22302C18.486 9.67836 11.2014 12.228 7.26445 12.9873L4.59885 13.4657L4.54304 13.475L4.08588 13.998C3.56616 14.0241 3.04734 14.0376 2.53022 14.0376C-1.8459 14.0376 0.064199 11.3389 3.65044 9.52389C3.57499 9.07823 3.5357 8.62027 3.5357 8.15314C3.5357 3.65028 7.18617 0 11.6888 0C13.2728 0 14.7515 0.451702 16.0027 1.23338L12.9662 2.67459C12.5559 2.57927 12.1281 2.52888 11.6888 2.52888C8.58283 2.52888 6.06458 5.04694 6.06458 8.15314C6.06458 9.37224 6.45248 10.5007 7.11156 11.422ZM7.57325 15.1928C8.78126 15.9006 10.1877 16.3063 11.6888 16.3063C14.7186 16.3063 17.3624 14.6536 18.768 12.2005L16.3649 13.0614C14.1996 13.796 11.9263 14.4328 9.61627 14.8853L7.57325 15.1928ZM3.82072 10.2978C3.97315 10.8583 4.18387 11.3948 4.44596 11.9003L4.39015 11.9097C1.87337 12.3294 1.59912 11.5539 3.82021 10.2981L3.82072 10.2978Z" fill="#DFDFE8"/>
<path d="M19.8164 7.5878C19.8164 7.5878 11.4406 10.5871 7.1118 11.422L4.44621 11.9004L4.3904 11.9097C1.87361 12.3294 1.59937 11.5539 3.82046 10.2981L3.65068 9.5239C0.0644431 11.3389 -1.84565 14.0376 2.53046 14.0377C3.63763 14.0377 4.75257 13.9757 5.86749 13.8612L9.46363 13.3199C11.7737 12.8675 14.047 12.2306 16.2123 11.4961L19.5572 10.2978C19.743 9.61444 19.8422 8.89538 19.8422 8.15315C19.8422 7.90987 19.8164 7.5878 19.8164 7.5878Z" fill="#DFDFE8"/>
</svg>
