<svg width="57" height="44" viewBox="0 0 57 44" fill="none" xmlns="http://www.w3.org/2000/svg">
<rect y="0.568237" width="56.3602" height="42.8474" rx="21.4237" fill="#7FA4BB" fill-opacity="0.05"/>
<path d="M27.2044 27.0809C28.9232 28.1474 30.9455 28.8503 33.2099 29.128C33.5101 29.1648 33.6601 29.1832 33.8597 29.1625C34.5568 29.0902 35.2486 28.478 35.4052 27.7949C35.4501 27.5993 35.4501 27.3977 35.4501 26.9945V26.9945C35.4501 26.6589 35.4501 26.491 35.4225 26.3366C35.3195 25.7591 34.9376 25.2699 34.4023 25.0299C34.2591 24.9657 34.0892 24.9232 33.7493 24.8382L33.4834 24.7718C32.74 24.5859 32.3684 24.493 32.002 24.4787C31.4375 24.4567 30.8759 24.5699 30.3639 24.8088C30.0317 24.9639 29.725 25.1935 29.1117 25.6528L27.2044 27.0809ZM27.2044 27.0809C26.5154 26.6534 25.8751 26.1674 25.2876 25.6269" stroke="#0A7AF9" stroke-width="1.32993" stroke-linecap="round" stroke-linejoin="round"/>
<path d="M22.9406 22.7189C21.9583 21.0548 21.3085 19.1181 21.0441 16.962C21.0073 16.6619 20.9889 16.5119 21.0096 16.3123C21.0819 15.6153 21.6941 14.9234 22.3771 14.7668C22.5727 14.722 22.767 14.722 23.1555 14.722V14.722C23.5058 14.722 23.681 14.722 23.8355 14.7495C24.413 14.8525 24.9022 15.2345 25.1422 15.7698C25.2064 15.9129 25.2489 16.0829 25.3338 16.4228L25.381 16.6116C25.5555 17.3093 25.6427 17.6581 25.6607 17.9994C25.6959 18.6651 25.5428 19.3272 25.2189 19.9099C25.0529 20.2086 24.8214 20.4837 24.3584 21.034L22.9406 22.7189ZM22.9406 22.7189C23.5849 23.8105 24.3722 24.7848 25.2876 25.6269" stroke="#1F375B" stroke-width="1.32993" stroke-linecap="round" stroke-linejoin="round"/>
</svg>
