<?xml version="1.0" encoding="UTF-8" standalone="no"?>
<!DOCTYPE svg PUBLIC "-//W3C//DTD SVG 1.1//EN" "http://www.w3.org/Graphics/SVG/1.1/DTD/svg11.dtd">
<svg xmlns="http://www.w3.org/2000/svg" version="1.1" viewBox="0.00 0.00 230.00 230.00">
<path fill="#000000" d="
  M 58.00 57.35
  A 0.64 0.64 0.0 0 1 57.36 57.99
  L 5.64 57.99
  A 0.64 0.64 0.0 0 1 5.00 57.35
  L 5.00 5.61
  A 0.64 0.64 0.0 0 1 5.64 4.97
  L 57.36 4.97
  A 0.64 0.64 0.0 0 1 58.00 5.61
  L 58.00 57.35
  Z
  M 50.4483 13.2869
  A 0.84 0.84 0.0 0 0 49.6068 12.4484
  L 13.3068 12.5117
  A 0.84 0.84 0.0 0 0 12.4683 13.3532
  L 12.5317 49.6931
  A 0.84 0.84 0.0 0 0 13.3732 50.5316
  L 49.6732 50.4683
  A 0.84 0.84 0.0 0 0 50.5117 49.6268
  L 50.4483 13.2869
  Z"
/>
<path fill="#000000" d="
  M 88.54 13.16
  L 88.37 27.10
  A 0.67 0.67 0.0 0 1 87.69 27.77
  L 81.44 27.72
  A 0.67 0.67 0.0 0 1 80.77 27.05
  L 80.86 20.61
  A 0.67 0.67 0.0 0 0 80.16 19.93
  L 73.98 20.17
  A 0.67 0.67 0.0 0 1 73.28 19.51
  L 73.18 5.72
  A 0.67 0.67 0.0 0 1 73.82 5.05
  L 80.24 4.85
  A 0.67 0.67 0.0 0 1 80.93 5.53
  L 80.80 11.82
  A 0.67 0.67 0.0 0 0 81.47 12.50
  L 87.83 12.50
  A 0.67 0.67 0.0 0 0 88.50 11.83
  L 88.50 5.71
  A 0.67 0.67 0.0 0 1 89.16 5.04
  L 95.32 4.92
  A 0.67 0.67 0.0 0 1 96.00 5.59
  L 96.00 11.83
  A 0.67 0.67 0.0 0 1 95.33 12.50
  L 89.21 12.50
  A 0.67 0.67 0.0 0 0 88.54 13.16
  Z"
/>
<path fill="#000000" d="
  M 27.67 82.03
  A 0.92 0.92 0.0 0 0 26.78 81.09
  L 15.37 80.72
  Q 14.87 80.71 14.40 80.90
  Q 13.72 81.19 13.04 80.88
  A 0.94 0.93 -77.7 0 1 12.50 80.03
  L 12.50 66.31
  A 0.69 0.69 0.0 0 1 13.19 65.62
  L 27.30 65.80
  Q 27.79 65.81 27.79 66.30
  L 27.67 80.19
  A 0.72 0.71 -89.6 0 0 28.38 80.92
  L 33.89 80.95
  A 1.35 1.34 0.2 0 0 35.25 79.61
  L 35.25 74.09
  A 0.91 0.90 -89.7 0 1 36.16 73.18
  L 49.62 73.24
  A 0.87 0.87 0.0 0 0 50.50 72.38
  L 50.51 66.20
  A 0.58 0.58 0.0 0 1 51.11 65.62
  L 57.41 65.81
  A 0.61 0.60 1.0 0 1 58.00 66.41
  L 58.00 72.53
  Q 58.00 73.32 57.21 73.29
  L 51.82 73.14
  A 1.28 1.28 0.0 0 0 50.50 74.42
  L 50.50 79.82
  A 1.04 1.04 0.0 0 0 51.57 80.86
  L 57.22 80.71
  Q 58.00 80.69 58.00 81.47
  L 58.00 87.67
  A 0.61 0.61 0.0 0 0 58.58 88.28
  L 64.84 88.57
  A 0.74 0.73 -88.1 0 0 65.61 87.84
  L 65.81 74.23
  A 0.97 0.96 -89.7 0 1 66.77 73.27
  L 72.55 73.22
  A 0.71 0.71 0.0 0 0 73.25 72.51
  L 73.25 66.31
  A 0.62 0.62 0.0 0 0 72.62 65.69
  L 66.86 65.77
  A 1.15 1.15 0.0 0 1 65.69 64.61
  L 65.78 43.48
  A 0.74 0.73 0.0 0 1 66.52 42.75
  L 79.85 42.75
  A 1.09 1.08 0.5 0 1 80.94 43.85
  L 80.87 49.43
  A 1.06 1.06 0.0 0 0 81.93 50.50
  L 87.75 50.50
  A 0.75 0.75 0.0 0 1 88.50 51.25
  L 88.50 57.34
  A 0.65 0.65 0.0 0 1 87.85 57.99
  L 82.17 58.00
  A 1.48 1.47 87.8 0 0 80.71 59.58
  L 81.06 64.80
  Q 81.10 65.35 81.64 65.46
  Q 84.39 66.06 87.14 65.51
  A 1.10 1.10 0.0 0 1 88.45 66.59
  L 88.46 110.15
  A 1.11 1.10 -0.0 0 1 87.35 111.25
  L 74.00 111.25
  Q 73.25 111.25 73.25 110.50
  L 73.25 104.86
  A 1.18 1.18 0.0 0 0 72.11 103.68
  L 66.63 103.52
  A 0.86 0.85 0.7 0 0 65.75 104.37
  L 65.75 109.75
  A 1.51 1.50 -0.2 0 1 64.25 111.25
  L 58.56 111.26
  A 0.55 0.55 0.0 0 0 58.01 111.81
  L 58.00 118.24
  A 0.67 0.66 -88.7 0 1 57.32 118.90
  L 52.06 118.70
  A 1.50 1.50 0.0 0 0 50.50 120.20
  L 50.50 125.79
  A 0.71 0.71 0.0 0 0 51.23 126.50
  L 56.44 126.41
  A 1.53 1.53 0.0 0 1 58.00 127.94
  L 58.00 133.27
  A 0.71 0.70 0.4 0 0 58.70 133.97
  L 65.17 134.02
  A 0.64 0.64 0.0 0 1 65.81 134.68
  L 65.59 140.40
  A 1.06 1.05 1.3 0 0 66.65 141.50
  L 79.81 141.50
  A 1.06 1.05 0.0 0 0 80.87 140.45
  L 80.90 135.71
  A 1.69 1.69 0.0 0 0 79.21 134.01
  L 73.90 133.99
  A 0.65 0.65 0.0 0 1 73.25 133.34
  L 73.25 127.77
  A 1.60 1.60 0.0 0 0 71.29 126.21
  Q 68.75 126.81 66.21 126.30
  A 0.94 0.94 0.0 0 1 65.46 125.33
  L 65.82 119.23
  A 0.51 0.51 0.0 0 1 66.33 118.75
  L 80.28 118.75
  A 0.60 0.59 -0.0 0 1 80.88 119.34
  L 80.86 133.27
  Q 80.85 133.92 81.51 133.94
  L 87.48 134.03
  A 1.01 1.00 -89.4 0 0 88.50 133.02
  L 88.50 119.37
  Q 88.50 118.75 89.13 118.75
  L 95.35 118.76
  Q 96.00 118.76 96.00 119.41
  L 96.00 133.50
  Q 96.00 134.01 96.50 134.00
  L 102.31 133.99
  A 1.12 1.12 0.0 0 0 103.43 132.88
  L 103.67 112.11
  Q 103.68 111.54 104.24 111.46
  C 106.31 111.15 111.93 112.40 111.47 108.72
  Q 111.19 106.50 111.25 104.27
  Q 111.26 103.67 111.86 103.65
  L 118.01 103.47
  A 0.72 0.72 0.0 0 1 118.75 104.20
  L 118.74 110.60
  A 0.66 0.65 -0.4 0 1 118.09 111.25
  L 112.06 111.26
  A 0.81 0.81 0.0 0 0 111.25 112.07
  L 111.26 118.09
  A 0.66 0.66 0.0 0 0 111.91 118.75
  L 118.10 118.76
  A 0.66 0.65 89.6 0 1 118.75 119.41
  L 118.76 125.85
  A 0.65 0.65 0.0 0 0 119.41 126.50
  L 140.50 126.50
  A 1.00 1.00 0.0 0 0 141.50 125.50
  L 141.50 119.41
  A 0.65 0.65 0.0 0 0 140.85 118.76
  L 134.66 118.75
  A 0.66 0.65 0.4 0 1 134.01 118.10
  L 133.99 113.24
  Q 133.99 111.25 131.99 111.25
  L 126.74 111.25
  Q 126.37 111.25 126.38 110.88
  Q 126.52 104.18 126.50 98.67
  C 126.48 94.62 122.30 96.17 119.37 95.92
  Q 118.75 95.87 118.75 95.25
  L 118.75 89.28
  A 0.75 0.75 0.0 0 1 119.47 88.53
  L 125.85 88.31
  Q 126.50 88.29 126.50 87.64
  L 126.50 81.87
  A 1.12 1.12 0.0 0 1 127.62 80.75
  L 133.51 80.75
  Q 134.02 80.75 134.02 80.24
  L 133.97 73.95
  A 0.71 0.71 0.0 0 0 133.26 73.25
  L 127.99 73.25
  Q 125.91 73.25 126.32 71.21
  Q 126.81 68.79 126.23 66.36
  A 0.78 0.78 0.0 0 0 125.46 65.75
  L 119.40 65.76
  A 0.65 0.65 0.0 0 0 118.75 66.41
  L 118.75 80.27
  A 0.71 0.71 0.0 0 1 118.04 80.98
  L 112.00 80.98
  A 0.74 0.73 0.0 0 1 111.26 80.25
  L 111.25 74.92
  A 1.73 1.73 0.0 0 0 109.49 73.20
  L 105.14 73.27
  A 1.66 1.65 -0.5 0 0 103.51 74.92
  L 103.50 80.25
  Q 103.49 80.76 102.99 80.75
  L 96.76 80.74
  A 0.79 0.79 0.0 0 1 95.97 79.94
  L 96.06 74.11
  A 0.85 0.85 0.0 0 1 96.89 73.28
  L 102.76 73.18
  A 0.74 0.74 0.0 0 0 103.49 72.44
  L 103.50 66.49
  A 0.77 0.76 0.7 0 0 102.74 65.72
  L 96.72 65.63
  A 0.73 0.72 0.4 0 1 96.00 64.91
  L 96.00 44.09
  A 1.17 1.17 0.0 0 0 94.84 42.92
  L 89.22 42.83
  A 0.86 0.85 -89.7 0 1 88.38 41.97
  L 88.41 35.82
  A 0.58 0.58 0.0 0 1 88.99 35.25
  L 95.33 35.25
  A 0.65 0.65 0.0 0 1 95.98 35.90
  L 96.03 42.07
  A 0.66 0.66 0.0 0 0 96.69 42.72
  L 102.84 42.76
  A 0.66 0.66 0.0 0 0 103.50 42.10
  L 103.50 13.28
  A 0.78 0.77 -89.6 0 1 104.28 12.50
  L 110.69 12.51
  A 0.56 0.55 0.0 0 1 111.25 13.06
  L 111.25 27.00
  A 0.75 0.75 0.0 0 0 112.00 27.75
  L 125.51 27.75
  A 1.05 1.04 -1.3 0 0 126.55 26.67
  L 126.37 20.82
  A 0.89 0.89 0.0 0 0 125.45 19.96
  L 119.96 20.13
  A 1.17 1.17 0.0 0 1 118.75 18.96
  L 118.75 5.50
  A 0.50 0.50 0.0 0 1 119.25 5.00
  L 133.38 5.00
  Q 134.00 5.00 134.00 5.63
  L 133.99 11.85
  A 0.65 0.65 0.0 0 1 133.34 12.50
  L 127.07 12.50
  A 0.74 0.73 89.6 0 0 126.34 13.25
  L 126.41 19.34
  Q 126.42 19.95 127.03 19.96
  L 140.14 20.09
  A 1.32 1.31 0.7 0 0 141.47 18.80
  L 141.57 13.08
  A 0.59 0.59 0.0 0 1 142.16 12.50
  L 148.56 12.50
  Q 149.18 12.50 149.17 11.88
  L 149.08 6.26
  A 1.18 1.18 0.0 0 1 150.24 5.07
  L 163.79 4.84
  A 0.45 0.45 0.0 0 1 164.25 5.29
  L 164.25 26.47
  A 1.28 1.28 0.0 0 1 162.97 27.75
  L 150.54 27.75
  A 1.56 1.56 0.0 0 1 149.02 25.85
  Q 149.61 23.18 148.69 20.52
  A 0.79 0.79 0.0 0 0 147.93 19.99
  L 142.07 20.11
  Q 141.50 20.12 141.50 20.68
  L 141.50 34.00
  A 1.25 1.25 0.0 0 0 142.75 35.25
  L 148.52 35.25
  A 0.77 0.76 -90.0 0 1 149.28 36.02
  L 149.19 57.09
  A 0.90 0.90 0.0 0 0 150.09 58.00
  L 155.75 58.00
  A 1.00 1.00 0.0 0 0 156.75 57.00
  L 156.75 51.12
  Q 156.75 50.50 157.38 50.50
  L 163.90 50.51
  A 0.39 0.39 0.0 0 1 164.29 50.90
  L 164.23 87.24
  A 1.26 1.26 0.0 0 0 165.49 88.50
  L 178.50 88.50
  A 1.00 1.00 0.0 0 0 179.50 87.50
  L 179.50 81.49
  A 0.77 0.77 0.0 0 0 178.67 80.72
  L 173.58 81.05
  A 1.49 1.48 -1.8 0 1 172.00 79.57
  L 172.00 66.81
  Q 172.00 65.61 173.19 65.63
  L 186.79 65.80
  A 0.49 0.49 0.0 0 1 187.28 66.29
  L 187.20 87.62
  A 0.90 0.90 0.0 0 0 188.11 88.53
  L 201.48 88.43
  Q 202.14 88.42 202.18 87.77
  L 202.54 82.34
  A 1.27 1.27 0.0 0 0 201.34 80.98
  L 195.20 80.67
  Q 194.75 80.65 194.75 80.20
  L 194.75 66.23
  Q 194.75 65.66 195.32 65.67
  L 201.78 65.79
  A 0.55 0.55 0.0 0 1 202.32 66.34
  L 202.22 80.08
  A 0.67 0.67 0.0 0 0 202.89 80.75
  L 209.45 80.75
  Q 209.95 80.75 209.95 80.25
  L 209.95 73.90
  Q 209.95 73.25 210.60 73.25
  L 224.25 73.25
  Q 225.00 73.25 225.00 74.00
  L 225.00 87.84
  A 0.65 0.65 0.0 0 1 224.35 88.49
  L 218.76 88.50
  A 1.25 1.25 0.0 0 1 217.50 87.26
  L 217.49 81.43
  A 0.61 0.61 0.0 0 0 216.87 80.82
  L 210.56 80.90
  Q 210.02 80.91 210.01 81.44
  L 209.97 87.80
  A 0.71 0.70 -89.6 0 1 209.27 88.50
  L 202.90 88.50
  Q 202.30 88.50 202.30 89.10
  L 202.23 110.33
  A 0.92 0.91 -90.0 0 0 203.14 111.25
  L 209.34 111.25
  A 0.66 0.65 -0.0 0 1 210.00 111.90
  L 210.00 118.09
  A 0.67 0.66 -0.4 0 1 209.34 118.75
  L 203.04 118.76
  A 0.76 0.75 90.0 0 0 202.29 119.52
  L 202.29 125.51
  A 1.04 1.04 0.0 0 1 201.23 126.55
  L 188.75 126.36
  A 1.58 1.58 0.0 0 0 187.14 128.00
  L 187.30 132.70
  A 1.26 1.26 0.0 0 1 186.05 134.00
  L 180.15 134.01
  A 0.65 0.65 0.0 0 0 179.50 134.66
  L 179.50 141.02
  A 0.76 0.76 0.0 0 1 178.73 141.78
  L 165.40 141.57
  Q 164.25 141.55 164.31 140.40
  L 164.56 135.70
  A 1.62 1.61 1.5 0 0 162.94 134.00
  L 157.75 134.00
  A 1.00 1.00 0.0 0 1 156.75 133.00
  L 156.75 127.01
  A 0.50 0.49 0.6 0 0 156.26 126.52
  L 149.90 126.45
  A 0.71 0.70 -89.6 0 0 149.19 127.16
  L 149.21 140.00
  A 1.72 1.72 0.0 0 0 151.01 141.72
  L 156.22 141.48
  A 0.50 0.50 0.0 0 1 156.74 141.97
  L 156.78 148.58
  A 0.74 0.73 89.2 0 0 157.52 149.31
  L 178.80 149.11
  A 0.70 0.69 0.0 0 1 179.50 149.80
  L 179.50 155.74
  Q 179.50 156.73 180.49 156.73
  L 193.61 156.78
  A 1.13 1.13 0.0 0 0 194.75 155.65
  L 194.75 150.58
  A 1.59 1.58 -1.7 0 0 193.07 149.00
  L 187.89 149.32
  A 0.68 0.67 88.8 0 1 187.18 148.63
  L 187.27 142.21
  Q 187.28 141.45 188.04 141.47
  L 193.07 141.58
  Q 194.75 141.61 194.75 139.94
  L 194.75 134.50
  A 0.50 0.50 0.0 0 1 195.25 134.00
  L 201.75 134.00
  Q 202.25 134.00 202.25 134.50
  L 202.25 141.03
  A 0.58 0.57 89.0 0 0 202.84 141.61
  L 209.02 141.45
  A 1.02 1.02 0.0 0 1 210.07 142.52
  L 209.81 148.34
  A 0.57 0.56 -87.4 0 0 210.34 148.93
  L 215.96 149.25
  A 1.46 1.46 0.0 0 0 217.50 147.79
  L 217.50 134.50
  A 0.50 0.50 0.0 0 0 217.00 134.00
  L 210.48 133.99
  A 0.78 0.78 0.0 0 1 209.70 133.17
  L 210.06 127.08
  Q 210.09 126.50 210.67 126.50
  L 223.97 126.50
  A 1.16 1.15 -90.0 0 1 225.12 127.66
  L 225.09 148.46
  A 0.84 0.84 0.0 0 1 224.22 149.29
  L 219.49 149.10
  A 1.91 1.90 -88.7 0 0 217.50 151.01
  L 217.50 163.60
  A 0.66 0.65 0.0 0 0 218.16 164.25
  L 223.85 164.25
  A 1.13 1.12 89.2 0 1 224.97 165.35
  L 225.32 177.94
  A 1.52 1.51 -1.1 0 1 223.81 179.50
  L 218.15 179.51
  A 0.65 0.65 0.0 0 0 217.50 180.16
  L 217.50 201.66
  A 0.67 0.67 0.0 0 0 218.16 202.33
  L 224.08 202.40
  A 0.93 0.93 0.0 0 1 225.00 203.33
  L 225.00 209.01
  A 1.01 1.00 -89.7 0 1 223.99 210.02
  L 203.18 209.95
  A 0.88 0.87 0.0 0 0 202.30 210.82
  L 202.23 224.00
  A 0.98 0.98 0.0 0 1 201.25 224.97
  L 180.22 225.06
  Q 179.56 225.06 179.56 224.41
  L 179.48 218.17
  A 0.67 0.66 -0.4 0 1 180.15 217.50
  L 194.12 217.50
  A 0.67 0.67 0.0 0 0 194.79 216.81
  L 194.63 210.71
  A 0.72 0.72 0.0 0 0 193.91 210.00
  L 180.75 210.00
  Q 179.50 210.00 179.50 208.75
  L 179.50 195.22
  A 0.52 0.52 0.0 0 0 178.97 194.70
  L 172.74 194.77
  Q 172.00 194.78 172.00 195.51
  L 172.00 209.03
  A 1.01 1.00 -89.2 0 1 170.97 210.04
  L 165.17 209.90
  A 0.87 0.87 0.0 0 0 164.28 210.76
  L 164.23 216.99
  Q 164.23 217.50 164.74 217.50
  L 171.25 217.50
  A 0.75 0.74 0.4 0 1 172.00 218.25
  L 171.99 224.35
  Q 171.99 225.00 171.34 225.00
  L 157.25 225.00
  A 0.50 0.50 0.0 0 1 156.75 224.50
  L 156.75 203.75
  A 1.50 1.50 0.0 0 0 155.25 202.25
  L 150.06 202.25
  A 0.93 0.92 89.7 0 0 149.14 203.19
  L 149.30 216.47
  A 1.02 1.02 0.0 0 1 148.28 217.50
  L 142.00 217.50
  A 0.50 0.50 0.0 0 1 141.50 217.00
  L 141.50 210.57
  A 0.66 0.66 0.0 0 0 140.83 209.91
  L 134.63 210.03
  A 0.67 0.66 -0.4 0 1 133.95 209.37
  L 134.02 180.49
  A 0.99 0.99 0.0 0 1 135.01 179.50
  L 140.91 179.50
  Q 141.56 179.50 141.56 180.16
  L 141.47 201.58
  A 0.67 0.67 0.0 0 0 142.15 202.25
  L 148.46 202.24
  A 0.82 0.82 0.0 0 0 149.28 201.42
  L 149.18 180.29
  A 0.83 0.82 -89.0 0 1 150.03 179.46
  L 155.56 179.60
  A 1.15 1.15 0.0 0 0 156.75 178.45
  L 156.75 164.88
  Q 156.75 164.25 156.13 164.25
  L 150.68 164.25
  A 1.55 1.54 -89.6 0 1 149.14 162.68
  L 149.23 157.37
  Q 149.24 156.75 148.62 156.75
  L 142.16 156.75
  A 0.66 0.65 0.0 0 1 141.50 156.10
  L 141.50 149.85
  A 0.73 0.72 -0.8 0 1 142.21 149.13
  L 148.47 148.94
  A 0.88 0.87 -2.6 0 0 149.32 148.02
  L 149.02 142.31
  A 0.76 0.76 0.0 0 0 148.27 141.59
  L 142.13 141.53
  Q 141.50 141.52 141.50 140.88
  L 141.50 134.63
  Q 141.50 134.00 140.87 134.00
  L 134.75 134.00
  Q 134.00 134.00 134.00 134.75
  L 134.00 163.67
  Q 134.00 164.34 134.67 164.34
  L 140.24 164.37
  A 1.36 1.35 -89.8 0 1 141.59 165.74
  L 141.55 171.23
  A 0.78 0.77 -0.0 0 1 140.77 172.00
  L 127.42 172.00
  A 1.06 1.06 0.0 0 0 126.36 173.08
  L 126.56 186.26
  A 1.03 1.03 0.0 0 1 125.49 187.31
  L 120.10 187.11
  A 1.30 1.29 1.1 0 0 118.75 188.40
  L 118.75 201.25
  A 1.01 1.00 0.3 0 0 119.75 202.25
  L 125.55 202.26
  A 0.85 0.84 0.3 0 1 126.40 203.11
  L 126.38 209.41
  A 0.53 0.53 0.0 0 1 125.86 209.93
  L 120.47 210.03
  Q 118.75 210.06 118.75 211.78
  L 118.75 216.50
  A 1.00 1.00 0.0 0 0 119.75 217.50
  L 133.50 217.50
  Q 134.00 217.50 134.00 218.00
  L 133.99 224.35
  A 0.65 0.65 0.0 0 1 133.34 225.00
  L 120.16 225.00
  Q 118.81 225.00 118.78 223.65
  L 118.68 218.06
  A 0.60 0.60 0.0 0 0 118.07 217.47
  L 111.92 217.58
  Q 111.25 217.59 111.25 216.92
  L 111.25 211.25
  A 1.25 1.24 89.8 0 0 110.00 210.00
  L 104.42 210.01
  A 0.63 0.63 0.0 0 0 103.79 210.64
  L 103.67 224.20
  A 0.81 0.81 0.0 0 1 102.86 225.00
  L 74.79 225.00
  A 1.54 1.53 -0.2 0 1 73.25 223.48
  L 73.24 218.15
  A 0.65 0.65 0.0 0 0 72.59 217.50
  L 66.30 217.50
  A 0.69 0.68 -89.6 0 1 65.62 216.80
  L 65.81 203.02
  Q 65.81 202.60 66.23 202.58
  L 72.27 202.25
  A 1.03 1.03 0.0 0 0 73.25 201.22
  L 73.25 180.14
  A 0.67 0.66 -89.2 0 1 73.93 179.47
  L 79.66 179.60
  A 1.04 1.04 0.0 0 0 80.72 178.59
  L 80.88 173.72
  A 1.66 1.66 0.0 0 0 79.22 172.00
  L 66.48 172.00
  A 0.98 0.98 0.0 0 1 65.50 170.98
  L 65.74 165.76
  A 1.48 1.47 1.3 0 0 64.26 164.22
  L 35.91 164.30
  A 0.64 0.64 0.0 0 1 35.26 163.66
  L 35.25 157.47
  A 0.76 0.75 0.4 0 1 36.03 156.71
  L 41.68 156.86
  A 1.04 1.04 0.0 0 0 42.75 155.82
  L 42.75 150.20
  A 1.05 1.04 89.7 0 0 41.70 149.15
  L 29.02 149.21
  A 1.27 1.27 0.0 0 0 27.75 150.48
  L 27.75 163.50
  Q 27.75 164.25 27.00 164.25
  L 20.66 164.25
  A 0.65 0.65 0.0 0 1 20.01 163.60
  L 20.00 158.00
  A 1.26 1.25 89.8 0 0 18.75 156.75
  L 5.54 156.75
  A 0.49 0.49 0.0 0 1 5.05 156.28
  L 4.88 150.26
  A 1.10 1.10 0.0 0 1 5.99 149.12
  L 19.17 149.20
  A 0.87 0.86 0.0 0 0 20.05 148.33
  L 19.98 135.23
  A 1.24 1.24 0.0 0 0 18.73 134.00
  L 13.06 134.01
  A 0.55 0.55 0.0 0 0 12.51 134.56
  L 12.50 141.17
  A 0.42 0.41 0.0 0 1 12.08 141.58
  L 5.70 141.61
  A 0.67 0.66 -0.4 0 1 5.02 140.95
  L 4.95 127.37
  A 0.87 0.87 0.0 0 1 5.82 126.50
  L 19.11 126.50
  A 1.06 1.06 0.0 0 1 20.17 127.61
  L 19.94 132.94
  A 1.01 1.01 0.0 0 0 20.95 134.00
  L 27.25 134.00
  A 0.50 0.50 0.0 0 1 27.75 134.50
  L 27.75 140.43
  Q 27.75 141.55 28.87 141.54
  L 34.26 141.48
  A 1.00 0.99 -0.3 0 0 35.25 140.49
  L 35.25 134.65
  A 0.62 0.61 89.5 0 1 35.85 134.03
  L 42.09 133.93
  Q 42.75 133.92 42.75 134.58
  L 42.75 140.42
  A 1.17 1.16 -0.0 0 0 43.92 141.58
  L 56.41 141.51
  Q 58.01 141.50 58.00 139.90
  L 57.99 135.15
  A 1.15 1.15 0.0 0 0 56.84 134.00
  L 51.00 134.00
  A 0.50 0.50 0.0 0 1 50.50 133.50
  L 50.50 128.00
  A 1.50 1.50 0.0 0 0 49.00 126.50
  L 28.91 126.50
  A 1.30 1.30 0.0 0 1 27.61 125.16
  L 27.81 119.33
  A 0.60 0.60 0.0 0 1 28.41 118.75
  L 49.88 118.75
  Q 50.52 118.75 50.51 118.12
  L 50.47 111.95
  A 0.71 0.71 0.0 0 0 49.76 111.25
  L 28.51 111.25
  Q 27.98 111.25 27.75 110.77
  C 26.88 108.96 28.19 106.44 27.32 104.06
  A 0.74 0.73 79.2 0 0 26.60 103.57
  L 20.48 103.78
  A 0.50 0.50 0.0 0 0 20.00 104.28
  L 20.00 110.50
  A 0.75 0.75 0.0 0 1 19.25 111.25
  L 6.23 111.25
  Q 4.96 111.25 4.97 109.98
  L 5.02 89.17
  Q 5.02 88.60 5.59 88.57
  L 11.24 88.29
  A 1.21 1.20 88.4 0 1 12.50 89.49
  L 12.51 95.35
  Q 12.51 96.00 13.16 96.00
  L 57.00 96.00
  A 1.00 1.00 0.0 0 1 58.00 97.00
  L 58.00 102.87
  Q 58.00 103.49 58.62 103.50
  L 64.93 103.55
  A 0.77 0.77 0.0 0 0 65.70 102.76
  L 65.53 96.51
  A 0.53 0.52 88.9 0 0 65.01 96.00
  L 58.69 96.00
  Q 58.14 96.00 58.13 95.45
  L 57.94 89.70
  A 1.24 1.23 -0.7 0 0 56.70 88.50
  L 51.25 88.50
  Q 50.50 88.50 50.50 87.75
  L 50.50 82.29
  A 1.23 1.23 0.0 0 0 49.29 81.06
  L 36.71 80.85
  Q 35.25 80.83 35.25 82.29
  L 35.25 87.75
  A 0.75 0.75 0.0 0 1 34.50 88.50
  L 29.12 88.50
  A 1.59 1.59 0.0 0 1 27.53 86.87
  L 27.67 82.03
  Z
  M 156.7865 13.2999
  A 0.77 0.77 0.0 0 0 156.0287 12.5179
  L 149.9894 12.4230
  A 0.77 0.77 0.0 0 0 149.2074 13.1808
  L 149.1135 19.1601
  A 0.77 0.77 0.0 0 0 149.8713 19.9421
  L 155.9106 20.0370
  A 0.77 0.77 0.0 0 0 156.6926 19.2792
  L 156.7865 13.2999
  Z
  M 133.9604 28.6125
  A 0.86 0.86 0.0 0 0 133.1125 27.7406
  L 127.3531 27.6602
  A 0.86 0.86 0.0 0 0 126.4811 28.5081
  L 126.3996 34.3475
  A 0.86 0.86 0.0 0 0 127.2475 35.2194
  L 133.0069 35.2998
  A 0.86 0.86 0.0 0 0 133.8789 34.4519
  L 133.9604 28.6125
  Z
  M 126.50 36.33
  A 1.07 1.07 0.0 0 0 125.43 35.26
  L 119.81 35.26
  A 1.07 1.07 0.0 0 0 118.74 36.33
  L 118.74 56.93
  A 1.07 1.07 0.0 0 0 119.81 58.00
  L 125.43 58.00
  A 1.07 1.07 0.0 0 0 126.50 56.93
  L 126.50 36.33
  Z
  M 141.4909 36.1882
  A 1.02 1.02 0.0 0 0 140.4463 35.1935
  L 134.9080 35.3288
  A 1.02 1.02 0.0 0 0 133.9132 36.3734
  L 134.0491 41.9318
  A 1.02 1.02 0.0 0 0 135.0937 42.9265
  L 140.6320 42.7912
  A 1.02 1.02 0.0 0 0 141.6268 41.7466
  L 141.4909 36.1882
  Z
  M 111.2615 43.8068
  A 0.99 0.99 0.0 0 0 110.2733 42.8150
  L 104.5133 42.8050
  A 0.99 0.99 0.0 0 0 103.5215 43.7933
  L 103.4985 57.0132
  A 0.99 0.99 0.0 0 0 104.4867 58.0050
  L 110.2467 58.0150
  A 0.99 0.99 0.0 0 0 111.2385 57.0267
  L 111.2615 43.8068
  Z
  M 80.9117 51.6131
  A 1.14 1.14 0.0 0 0 79.7638 50.4811
  L 74.3239 50.5191
  A 1.14 1.14 0.0 0 0 73.1919 51.6670
  L 73.2283 56.8869
  A 1.14 1.14 0.0 0 0 74.3762 58.0189
  L 79.8161 57.9809
  A 1.14 1.14 0.0 0 0 80.9481 56.8330
  L 80.9117 51.6131
  Z
  M 141.4748 51.3204
  A 0.85 0.85 0.0 0 0 140.6203 50.4749
  L 134.8204 50.5052
  A 0.85 0.85 0.0 0 0 133.9749 51.3597
  L 134.0052 57.1596
  A 0.85 0.85 0.0 0 0 134.8597 58.0051
  L 140.6596 57.9748
  A 0.85 0.85 0.0 0 0 141.5051 57.1203
  L 141.4748 51.3204
  Z
  M 133.9818 58.7764
  A 0.70 0.70 0.0 0 0 133.2867 58.0715
  L 127.1468 58.0287
  A 0.70 0.70 0.0 0 0 126.4419 58.7238
  L 126.3982 64.9836
  A 0.70 0.70 0.0 0 0 127.0933 65.6885
  L 133.2332 65.7313
  A 0.70 0.70 0.0 0 0 133.9381 65.0362
  L 133.9818 58.7764
  Z
  M 140.84 81.06
  L 135.81 80.74
  A 1.71 1.70 1.7 0 0 134.00 82.44
  L 134.00 87.75
  A 0.75 0.75 0.0 0 1 133.25 88.50
  L 127.08 88.50
  Q 126.40 88.50 126.39 89.17
  L 126.25 95.21
  A 0.77 0.77 0.0 0 0 127.02 95.99
  L 132.75 96.00
  A 1.26 1.25 0.2 0 1 134.00 97.25
  L 134.00 110.41
  Q 134.00 111.27 134.85 111.26
  L 140.93 111.17
  A 0.65 0.65 0.0 0 0 141.57 110.52
  L 141.53 104.10
  A 0.62 0.62 0.0 0 1 142.15 103.47
  L 155.44 103.56
  A 1.30 1.30 0.0 0 0 156.75 102.25
  L 156.74 96.90
  A 0.90 0.90 0.0 0 0 155.84 96.00
  L 150.06 96.00
  Q 149.36 96.00 149.33 95.30
  L 149.03 89.28
  A 0.75 0.75 0.0 0 1 149.78 88.50
  L 155.50 88.50
  A 1.25 1.25 0.0 0 0 156.75 87.25
  L 156.75 66.54
  A 0.92 0.92 0.0 0 0 155.79 65.62
  L 150.27 65.80
  A 1.24 1.24 0.0 0 1 149.01 64.30
  Q 149.65 61.37 148.68 58.50
  A 0.74 0.73 80.5 0 0 147.99 58.00
  L 142.60 58.00
  A 1.14 1.14 0.0 0 0 141.46 59.15
  L 141.61 80.34
  A 0.73 0.72 1.5 0 1 140.84 81.06
  Z
  M 80.8917 89.6232
  A 1.14 1.14 0.0 0 0 79.7438 88.4912
  L 74.3239 88.5290
  A 1.14 1.14 0.0 0 0 73.1919 89.6769
  L 73.2283 94.8968
  A 1.14 1.14 0.0 0 0 74.3762 96.0288
  L 79.7961 95.9910
  A 1.14 1.14 0.0 0 0 80.9281 94.8431
  L 80.8917 89.6232
  Z
  M 187.11 102.75
  A 1.09 1.09 0.0 0 1 185.96 103.80
  L 180.65 103.52
  A 1.09 1.09 0.0 0 0 179.50 104.61
  L 179.50 110.16
  A 1.09 1.09 0.0 0 0 180.59 111.25
  L 186.13 111.25
  A 1.09 1.09 0.0 0 1 187.22 112.36
  L 187.15 117.66
  A 1.09 1.09 0.0 0 0 188.25 118.77
  L 193.67 118.72
  A 1.09 1.09 0.0 0 0 194.75 117.63
  L 194.75 97.08
  A 1.09 1.09 0.0 0 0 193.66 95.99
  L 188.39 96.01
  A 1.09 1.09 0.0 0 0 187.30 97.06
  L 187.11 102.75
  Z
  M 57.9553 104.6205
  A 1.03 1.03 0.0 0 0 56.9200 103.5959
  L 51.5000 103.6242
  A 1.03 1.03 0.0 0 0 50.4754 104.6596
  L 50.5047 110.2395
  A 1.03 1.03 0.0 0 0 51.5400 111.2641
  L 56.9600 111.2358
  A 1.03 1.03 0.0 0 0 57.9846 110.2004
  L 57.9553 104.6205
  Z
  M 163.39 111.25
  A 1.13 1.13 0.0 0 1 164.52 112.44
  L 164.23 117.56
  A 1.13 1.13 0.0 0 0 165.36 118.75
  L 178.37 118.75
  A 1.13 1.13 0.0 0 0 179.50 117.62
  L 179.50 112.27
  A 1.13 1.13 0.0 0 0 178.34 111.14
  L 172.96 111.29
  A 1.13 1.13 0.0 0 1 171.80 110.10
  L 172.07 104.72
  A 1.13 1.13 0.0 0 0 170.95 103.54
  L 157.97 103.48
  A 1.13 1.13 0.0 0 0 156.84 104.59
  L 156.73 110.10
  A 1.13 1.13 0.0 0 0 157.86 111.25
  L 163.39 111.25
  Z
  M 187.1956 120.0733
  A 1.31 1.31 0.0 0 0 185.8833 118.7656
  L 180.7833 118.7745
  A 1.31 1.31 0.0 0 0 179.4756 120.0867
  L 179.4844 125.1467
  A 1.31 1.31 0.0 0 0 180.7967 126.4544
  L 185.8967 126.4455
  A 1.31 1.31 0.0 0 0 187.2044 125.1333
  L 187.1956 120.0733
  Z
  M 172.0652 127.4932
  A 0.99 0.99 0.0 0 0 171.0735 126.5049
  L 165.2535 126.5151
  A 0.99 0.99 0.0 0 0 164.2652 127.5068
  L 164.2748 133.0068
  A 0.99 0.99 0.0 0 0 165.2665 133.9951
  L 171.0865 133.9849
  A 0.99 0.99 0.0 0 0 172.0748 132.9932
  L 172.0652 127.4932
  Z
  M 117.91 141.46
  A 0.79 0.79 0.0 0 1 118.75 142.25
  L 118.75 148.23
  A 0.79 0.79 0.0 0 0 119.54 149.02
  L 125.74 149.06
  A 0.79 0.79 0.0 0 0 126.54 148.25
  L 126.35 134.78
  A 0.79 0.79 0.0 0 0 125.56 134.00
  L 112.04 134.00
  A 0.79 0.79 0.0 0 0 111.25 134.79
  L 111.25 141.02
  A 0.79 0.79 0.0 0 0 112.09 141.81
  L 117.91 141.46
  Z
  M 62.28 141.63
  C 61.13 141.68 59.58 141.10 58.30 141.96
  A 0.69 0.67 73.6 0 0 58.00 142.53
  L 58.00 148.24
  A 0.56 0.55 -85.8 0 0 58.47 148.79
  Q 62.92 149.50 64.95 148.92
  Q 66.32 148.53 65.57 147.22
  A 1.27 1.25 -52.2 0 1 65.46 146.29
  Q 66.11 144.02 65.20 141.86
  A 0.67 0.65 75.7 0 0 64.54 141.46
  Q 63.40 141.58 62.28 141.63
  Z
  M 88.3854 142.4808
  A 0.96 0.96 0.0 0 0 87.4104 141.5360
  L 81.7511 141.6249
  A 0.96 0.96 0.0 0 0 80.8063 142.5999
  L 80.8946 148.2192
  A 0.96 0.96 0.0 0 0 81.8696 149.1640
  L 87.5289 149.0751
  A 0.96 0.96 0.0 0 0 88.4737 148.1001
  L 88.3854 142.4808
  Z
  M 57.9497 150.0540
  A 0.98 0.98 0.0 0 0 56.9628 149.0809
  L 51.4630 149.1193
  A 0.98 0.98 0.0 0 0 50.4898 150.1061
  L 50.5303 155.9060
  A 0.98 0.98 0.0 0 0 51.5172 156.8791
  L 57.0170 156.8407
  A 0.98 0.98 0.0 0 0 57.9902 155.8539
  L 57.9497 150.0540
  Z
  M 73.1693 150.0246
  A 0.97 0.97 0.0 0 0 72.1826 149.0717
  L 66.5834 149.1695
  A 0.97 0.97 0.0 0 0 65.6305 150.1562
  L 65.7307 155.8954
  A 0.97 0.97 0.0 0 0 66.7174 156.8483
  L 72.3166 156.7505
  A 0.97 0.97 0.0 0 0 73.2695 155.7638
  L 73.1693 150.0246
  Z
  M 111.2246 150.3167
  A 1.24 1.24 0.0 0 0 109.9868 149.0746
  L 104.7668 149.0655
  A 1.24 1.24 0.0 0 0 103.5246 150.3033
  L 103.5154 155.6033
  A 1.24 1.24 0.0 0 0 104.7532 156.8454
  L 109.9732 156.8545
  A 1.24 1.24 0.0 0 0 111.2154 155.6167
  L 111.2246 150.3167
  Z
  M 209.9956 150.3935
  A 1.23 1.23 0.0 0 0 208.7699 149.1592
  L 203.5299 149.1409
  A 1.23 1.23 0.0 0 0 202.2956 150.3666
  L 202.2244 170.7665
  A 1.23 1.23 0.0 0 0 203.4501 172.0008
  L 208.6901 172.0191
  A 1.23 1.23 0.0 0 0 209.9244 170.7934
  L 209.9956 150.3935
  Z
  M 80.8382 157.2061
  A 0.41 0.41 0.0 0 0 80.4355 156.7890
  L 73.7365 156.6721
  A 0.41 0.41 0.0 0 0 73.3194 157.0749
  L 73.2018 163.8139
  A 0.41 0.41 0.0 0 0 73.6045 164.2310
  L 80.3035 164.3479
  A 0.41 0.41 0.0 0 0 80.7206 163.9451
  L 80.8382 157.2061
  Z
  M 88.53 163.07
  A 1.12 1.12 0.0 0 1 87.41 164.25
  L 81.97 164.25
  A 1.12 1.12 0.0 0 0 80.85 165.34
  L 80.73 170.85
  A 1.12 1.12 0.0 0 0 81.85 172.00
  L 110.12 172.00
  A 1.12 1.12 0.0 0 0 111.24 170.88
  L 111.26 165.37
  A 1.12 1.12 0.0 0 0 110.14 164.25
  L 97.13 164.25
  A 1.12 1.12 0.0 0 1 96.01 163.13
  L 95.99 157.93
  A 1.12 1.12 0.0 0 0 94.89 156.81
  L 89.38 156.71
  A 1.12 1.12 0.0 0 0 88.25 157.89
  L 88.53 163.07
  Z
  M 126.4984 157.8568
  A 1.01 1.01 0.0 0 0 125.5026 156.8328
  L 112.2638 156.6479
  A 1.01 1.01 0.0 0 0 111.2398 157.6437
  L 111.1616 163.2432
  A 1.01 1.01 0.0 0 0 112.1574 164.2672
  L 125.3962 164.4521
  A 1.01 1.01 0.0 0 0 126.4202 163.4563
  L 126.4984 157.8568
  Z
  M 187.2020 165.4100
  A 1.18 1.18 0.0 0 0 186.0199 164.2320
  L 165.4199 164.2680
  A 1.18 1.18 0.0 0 0 164.2420 165.4501
  L 164.2780 186.0900
  A 1.18 1.18 0.0 0 0 165.4601 187.2680
  L 186.0601 187.2320
  A 1.18 1.18 0.0 0 0 187.2380 186.0499
  L 187.2020 165.4100
  Z
  M 217.5000 172.8764
  A 0.86 0.86 0.0 0 0 216.6460 172.0104
  L 210.8262 171.9698
  A 0.86 0.86 0.0 0 0 209.9602 172.8238
  L 209.9200 178.5836
  A 0.86 0.86 0.0 0 0 210.7740 179.4496
  L 216.5938 179.4902
  A 0.86 0.86 0.0 0 0 217.4598 178.6362
  L 217.5000 172.8764
  Z
  M 80.82 201.37
  A 0.86 0.86 0.0 0 1 79.96 202.24
  L 74.16 202.28
  A 0.86 0.86 0.0 0 0 73.30 203.12
  L 73.11 209.18
  A 0.86 0.86 0.0 0 0 74.02 210.07
  L 80.07 209.74
  A 0.86 0.86 0.0 0 1 80.97 210.60
  L 80.94 216.63
  A 0.86 0.86 0.0 0 0 81.80 217.50
  L 95.22 217.50
  A 0.86 0.86 0.0 0 0 96.08 216.63
  L 95.96 203.13
  A 0.86 0.86 0.0 0 1 96.87 202.26
  L 102.59 202.61
  A 0.86 0.86 0.0 0 0 103.50 201.75
  L 103.50 180.36
  A 0.86 0.86 0.0 0 0 102.64 179.50
  L 89.16 179.50
  A 0.86 0.86 0.0 0 0 88.30 180.38
  L 88.41 186.43
  A 0.86 0.86 0.0 0 0 89.29 187.28
  L 95.13 187.18
  A 0.86 0.86 0.0 0 1 96.00 188.04
  L 96.00 193.89
  A 0.86 0.86 0.0 0 1 95.14 194.75
  L 81.65 194.75
  A 0.86 0.86 0.0 0 0 80.79 195.61
  L 80.82 201.37
  Z
  M 118.7175 180.6644
  A 1.22 1.22 0.0 0 0 117.4827 179.4594
  L 112.4230 179.5212
  A 1.22 1.22 0.0 0 0 111.2180 180.7560
  L 111.2825 186.0356
  A 1.22 1.22 0.0 0 0 112.5173 187.2406
  L 117.5770 187.1788
  A 1.22 1.22 0.0 0 0 118.7820 185.9440
  L 118.7175 180.6644
  Z
  M 202.50 195.72
  A 0.97 0.97 0.0 0 1 203.47 194.75
  L 209.03 194.75
  A 0.97 0.97 0.0 0 0 210.00 193.78
  L 209.99 180.47
  A 0.97 0.97 0.0 0 0 209.02 179.50
  L 203.22 179.50
  A 0.97 0.97 0.0 0 0 202.25 180.47
  L 202.25 186.27
  A 0.97 0.97 0.0 0 1 201.28 187.24
  L 195.73 187.26
  A 0.97 0.97 0.0 0 0 194.77 188.22
  L 194.71 208.89
  A 0.97 0.97 0.0 0 0 195.67 209.86
  L 201.52 209.95
  A 0.97 0.97 0.0 0 0 202.50 208.98
  L 202.50 195.72
  Z
  M 164.3996 195.7399
  A 0.95 0.95 0.0 0 0 163.4596 194.7801
  L 157.7599 194.7204
  A 0.95 0.95 0.0 0 0 156.8001 195.6604
  L 156.7404 201.3601
  A 0.95 0.95 0.0 0 0 157.6804 202.3199
  L 163.3801 202.3796
  A 0.95 0.95 0.0 0 0 164.3399 201.4396
  L 164.3996 195.7399
  Z"
/>
<path fill="#000000" d="
  M 224.9549 57.3562
  A 0.69 0.69 0.0 0 1 224.2637 58.0450
  L 172.6438 57.9549
  A 0.69 0.69 0.0 0 1 171.9550 57.2637
  L 172.0451 5.6238
  A 0.69 0.69 0.0 0 1 172.7363 4.9350
  L 224.3562 5.0251
  A 0.69 0.69 0.0 0 1 225.0450 5.7163
  L 224.9549 57.3562
  Z
  M 217.50 13.24
  A 0.74 0.74 0.0 0 0 216.76 12.50
  L 180.24 12.50
  A 0.74 0.74 0.0 0 0 179.50 13.24
  L 179.50 49.76
  A 0.74 0.74 0.0 0 0 180.24 50.50
  L 216.76 50.50
  A 0.74 0.74 0.0 0 0 217.50 49.76
  L 217.50 13.24
  Z"
/>
<rect fill="#000000" x="-11.37" y="-11.42" transform="translate(31.38,31.42) rotate(0.1)" width="22.74" height="22.84" rx="0.90"/>
<rect fill="#000000" x="-11.38" y="-11.39" transform="translate(198.61,31.39) rotate(-0.2)" width="22.76" height="22.78" rx="0.81"/>
<rect fill="#000000" x="-3.81" y="-3.81" transform="translate(69.44,31.45) rotate(0.9)" width="7.62" height="7.62" rx="0.91"/>
<path fill="#000000" d="
  M 218.39 103.64
  L 224.04 103.56
  A 0.96 0.96 0.0 0 1 225.02 104.50
  L 225.22 117.78
  A 0.96 0.96 0.0 0 1 224.26 118.76
  L 218.46 118.74
  A 0.96 0.96 0.0 0 1 217.50 117.78
  L 217.50 104.63
  A 0.96 0.96 0.0 0 0 216.56 103.67
  L 210.64 103.55
  A 0.96 0.96 0.0 0 1 209.70 102.53
  L 210.05 96.90
  A 0.96 0.96 0.0 0 1 211.01 96.00
  L 216.57 96.00
  A 0.96 0.96 0.0 0 1 217.53 96.98
  L 217.42 102.67
  A 0.96 0.96 0.0 0 0 218.39 103.64
  Z"
/>
<path fill="#000000" d="
  M 58.00 224.47
  A 0.53 0.53 0.0 0 1 57.47 225.00
  L 5.53 225.00
  A 0.53 0.53 0.0 0 1 5.00 224.47
  L 5.00 172.53
  A 0.53 0.53 0.0 0 1 5.53 172.00
  L 57.47 172.00
  A 0.53 0.53 0.0 0 1 58.00 172.53
  L 58.00 224.47
  Z
  M 50.4681 180.2069
  A 0.74 0.74 0.0 0 0 49.7268 179.4682
  L 13.2069 179.5319
  A 0.74 0.74 0.0 0 0 12.4682 180.2732
  L 12.5319 216.7931
  A 0.74 0.74 0.0 0 0 13.2732 217.5318
  L 49.7931 217.4681
  A 0.74 0.74 0.0 0 0 50.5318 216.7268
  L 50.4681 180.2069
  Z"
/>
<rect fill="#000000" x="-3.75" y="-3.75" transform="translate(175.76,175.75) rotate(-0.4)" width="7.50" height="7.50" rx="0.74"/>
<rect fill="#000000" x="-11.39" y="-11.39" transform="translate(31.40,198.59) rotate(-0.1)" width="22.78" height="22.78" rx="0.81"/>
<rect fill="#000000" x="-3.85" y="-3.82" transform="translate(221.35,221.33) rotate(-0.4)" width="7.70" height="7.64" rx="1.34"/>
</svg>
