<svg width="77" height="77" viewBox="0 0 77 77" fill="none" xmlns="http://www.w3.org/2000/svg">
<path d="M76.2146 38.1182C76.2146 59.0818 59.2203 76.0761 38.2567 76.0761C17.2931 76.0761 0.298828 59.0818 0.298828 38.1182C0.298828 17.1547 17.2931 0.160339 38.2567 0.160339C59.2203 0.160339 76.2146 17.1547 76.2146 38.1182ZM4.09462 38.1182C4.09462 56.9854 19.3895 72.2803 38.2567 72.2803C57.1239 72.2803 72.4188 56.9854 72.4188 38.1182C72.4188 19.251 57.1239 3.95613 38.2567 3.95613C19.3895 3.95613 4.09462 19.251 4.09462 38.1182Z" fill="#F8F8F8"/>
<path d="M74.3167 38.1182C75.3649 38.1182 76.2195 38.9685 76.1672 40.0154C75.85 46.3539 73.9477 52.5227 70.6211 57.9512C66.9635 63.9199 61.7265 68.7609 55.4892 71.9389C49.2519 75.117 42.2573 76.5083 35.2786 75.9591C28.2999 75.4099 21.609 72.9415 15.9456 68.8268C10.2823 64.7121 5.86709 59.1115 3.1882 52.6441C0.509309 46.1767 -0.328933 39.0944 0.766152 32.1803C1.86124 25.2662 4.84699 18.7896 9.39331 13.4666C13.5281 8.62536 18.8072 4.90983 24.7374 2.6495C25.7169 2.27618 26.7897 2.82626 27.1136 3.82314C27.4375 4.82001 26.8895 5.88571 25.9122 6.26446C20.647 8.30489 15.9597 11.6229 12.2796 15.9317C8.18796 20.7225 5.50078 26.5514 4.51521 32.7741C3.52963 38.9968 4.28405 45.3708 6.69505 51.1915C9.10605 57.0122 13.0797 62.0527 18.1767 65.7559C23.2737 69.4591 29.2956 71.6807 35.5764 72.175C41.8572 72.6693 48.1524 71.4171 53.766 68.5569C59.3795 65.6966 64.0928 61.3397 67.3847 55.9679C70.3454 51.1364 72.0526 45.6532 72.3661 40.0152C72.4243 38.9687 73.2685 38.1182 74.3167 38.1182Z" fill="url(#paint0_linear_561_2427)"/>
<path d="M74.3167 38.1182C75.3649 38.1182 76.2195 38.9685 76.1672 40.0154C75.85 46.3539 73.9477 52.5227 70.6211 57.9512C66.9635 63.9199 61.7265 68.7609 55.4892 71.9389C49.2519 75.117 42.2573 76.5083 35.2786 75.9591C28.2999 75.4099 21.609 72.9415 15.9456 68.8268C10.2823 64.7121 5.86709 59.1115 3.1882 52.6441C0.509309 46.1767 -0.328933 39.0944 0.766152 32.1803C1.86124 25.2662 4.84699 18.7896 9.39331 13.4666C13.5281 8.62536 18.8072 4.90983 24.7374 2.6495C25.7169 2.27618 26.7897 2.82626 27.1136 3.82314C27.4375 4.82001 26.8895 5.88571 25.9122 6.26446C20.647 8.30489 15.9597 11.6229 12.2796 15.9317C8.18796 20.7225 5.50078 26.5514 4.51521 32.7741C3.52963 38.9968 4.28405 45.3708 6.69505 51.1915C9.10605 57.0122 13.0797 62.0527 18.1767 65.7559C23.2737 69.4591 29.2956 71.6807 35.5764 72.175C41.8572 72.6693 48.1524 71.4171 53.766 68.5569C59.3795 65.6966 64.0928 61.3397 67.3847 55.9679C70.3454 51.1364 72.0526 45.6532 72.3661 40.0152C72.4243 38.9687 73.2685 38.1182 74.3167 38.1182Z" fill="url(#paint1_linear_561_2427)"/>
<path d="M27.584 34.784C29.088 34.784 30.832 35.92 30.832 38.256C30.832 41.008 28.848 42.176 26.88 42.176C24.56 42.176 23.024 40.944 22.784 38.928H24.928C25.104 39.776 25.824 40.4 26.864 40.4C27.904 40.4 28.8 39.664 28.8 38.416C28.8 37.136 27.936 36.48 26.976 36.48C26.24 36.48 25.696 36.8 25.248 37.328H23.056L24.064 31.088H30.208V32.96H25.68L25.28 35.408H25.312C25.616 35.184 26.24 34.784 27.584 34.784ZM35.4249 42.176C32.8169 42.176 31.3289 39.872 31.3289 36.544C31.3289 33.216 32.8169 30.928 35.4249 30.928C38.0169 30.928 39.5049 33.216 39.5049 36.544C39.5049 39.872 38.0169 42.176 35.4249 42.176ZM35.4249 40.272C36.8489 40.272 37.4729 38.736 37.4729 36.544C37.4729 34.352 36.8489 32.832 35.4249 32.832C33.9849 32.832 33.3609 34.352 33.3609 36.544C33.3609 38.736 33.9849 40.272 35.4249 40.272ZM42.0637 34.7812C42.0637 35.2083 42.1289 35.5286 42.2591 35.7422C42.3893 35.9505 42.5976 36.0547 42.8841 36.0547C43.1653 36.0547 43.3736 35.9505 43.5091 35.7422C43.6445 35.5339 43.7122 35.2135 43.7122 34.7812C43.7122 33.9375 43.4361 33.5156 42.8841 33.5156C42.5976 33.5156 42.3893 33.6198 42.2591 33.8281C42.1289 34.0365 42.0637 34.3542 42.0637 34.7812ZM45.6028 34.7656C45.6028 35.2188 45.5481 35.6276 45.4387 35.9922C45.3346 36.3516 45.1705 36.6562 44.9466 36.9062C44.7226 37.151 44.4387 37.3411 44.095 37.4766C43.7512 37.6068 43.3424 37.6719 42.8684 37.6719C42.4257 37.6719 42.0351 37.6068 41.6966 37.4766C41.3632 37.3411 41.082 37.151 40.8528 36.9062C40.6289 36.6562 40.4596 36.3516 40.345 35.9922C40.2304 35.6276 40.1731 35.2188 40.1731 34.7656C40.1731 34.3125 40.2252 33.9062 40.3294 33.5469C40.4335 33.1875 40.595 32.8854 40.8137 32.6406C41.0377 32.3958 41.319 32.2083 41.6575 32.0781C41.996 31.9479 42.3997 31.8828 42.8684 31.8828C43.3164 31.8828 43.7096 31.9479 44.0481 32.0781C44.3919 32.2083 44.6783 32.3958 44.9075 32.6406C45.1367 32.8854 45.3085 33.1875 45.4231 33.5469C45.5429 33.9062 45.6028 34.3125 45.6028 34.7656ZM50.7356 32.0469L44.4778 42H42.6887L48.9466 32.0469H50.7356ZM49.7434 39.2578C49.7434 39.6849 49.8085 40.0052 49.9387 40.2188C50.069 40.4271 50.2773 40.5312 50.5637 40.5312C50.845 40.5312 51.0533 40.4271 51.1887 40.2188C51.3242 40.0104 51.3919 39.6901 51.3919 39.2578C51.3919 38.4141 51.1158 37.9922 50.5637 37.9922C50.2773 37.9922 50.069 38.0964 49.9387 38.3047C49.8085 38.513 49.7434 38.8307 49.7434 39.2578ZM53.2825 39.2422C53.2825 39.6953 53.2278 40.1016 53.1184 40.4609C53.0143 40.8203 52.8502 41.125 52.6262 41.375C52.4023 41.6198 52.1184 41.8099 51.7747 41.9453C51.4309 42.0755 51.0221 42.1406 50.5481 42.1406C50.1054 42.1406 49.7174 42.0755 49.3841 41.9453C49.0507 41.8099 48.7695 41.6198 48.5403 41.375C48.3164 41.125 48.1471 40.8203 48.0325 40.4609C47.9179 40.1016 47.8606 39.6953 47.8606 39.2422C47.8606 38.7891 47.9127 38.3828 48.0169 38.0234C48.121 37.6641 48.2825 37.362 48.5012 37.1172C48.72 36.8724 48.9986 36.6849 49.3372 36.5547C49.6757 36.4245 50.0794 36.3594 50.5481 36.3594C50.996 36.3594 51.3893 36.4245 51.7278 36.5547C52.0716 36.6849 52.358 36.8724 52.5872 37.1172C52.8164 37.362 52.9882 37.6641 53.1028 38.0234C53.2226 38.3828 53.2825 38.7891 53.2825 39.2422Z" fill="#0A7AF9"/>
<defs>
<linearGradient id="paint0_linear_561_2427" x1="38.2567" y1="76.0761" x2="36.5114" y2="0.200487" gradientUnits="userSpaceOnUse">
<stop stop-color="#0066E7"/>
<stop offset="0.25" stop-color="#0071FF"/>
<stop offset="1" stop-color="#4ECAFF"/>
</linearGradient>
<linearGradient id="paint1_linear_561_2427" x1="76.2146" y1="37.7011" x2="26.9945" y2="3.91442" gradientUnits="userSpaceOnUse">
<stop stop-color="#F7F7F7"/>
<stop offset="0.775097" stop-color="#FDFDFD" stop-opacity="0.16"/>
<stop offset="1" stop-color="white" stop-opacity="0"/>
</linearGradient>
</defs>
</svg>
