<svg width="101" height="145" viewBox="0 0 101 145" fill="none" xmlns="http://www.w3.org/2000/svg">
<path d="M4.356 0.995999V13.316H11.176V16H1.54V0.995999H4.356ZM13.6496 4.01C12.6816 4.01 11.8896 3.262 11.8896 2.316C11.8896 1.37 12.6816 0.599999 13.6496 0.599999C14.5956 0.599999 15.3876 1.37 15.3876 2.316C15.3876 3.262 14.5956 4.01 13.6496 4.01ZM15.0356 16H12.2636V5.66H15.0356V16ZM19.7739 16H16.9799V10.126C16.9799 7.398 18.7179 5.44 21.8199 5.44C24.8999 5.44 26.6379 7.398 26.6379 10.126V16H23.8659V10.346C23.8659 8.828 23.1839 7.882 21.8199 7.882C20.4559 7.882 19.7739 8.828 19.7739 10.346V16ZM34.6211 9.95L38.7791 16H35.5011L31.6951 10.28V16H28.9231V0.995999H31.6951V9.708L35.2151 5.66H38.5151L34.6211 9.95ZM42.9392 16.242C40.5412 16.242 38.8252 14.856 38.6712 12.898H41.3332C41.4652 13.69 42.1692 14.064 42.9392 14.064C43.7312 14.064 44.2152 13.69 44.2152 13.184C44.2152 11.512 38.9352 12.546 38.9352 8.542C38.9352 6.826 40.3652 5.44 42.6972 5.44C44.9632 5.418 46.5032 6.628 46.6572 8.652H44.0392C43.9292 8.036 43.4452 7.618 42.6972 7.618C41.9712 7.618 41.5092 8.014 41.5092 8.542C41.5092 10.148 46.8552 9.224 46.8552 13.184C46.8552 15.032 45.0512 16.242 42.9392 16.242ZM10.054 29.996H13.244L8.14 39.654V45H5.302V39.632L0.242 29.996H3.388L6.16 35.606C6.424 36.112 6.556 36.464 6.71 36.948H6.754C6.886 36.464 7.04 36.112 7.282 35.606L10.054 29.996ZM17.3205 45.242C14.1085 45.242 11.7985 42.888 11.7985 39.83C11.7985 36.772 14.1085 34.44 17.3205 34.44C20.5325 34.44 22.8425 36.772 22.8425 39.83C22.8425 42.888 20.5325 45.242 17.3205 45.242ZM17.3205 42.8C18.9265 42.8 20.0925 41.59 20.0925 39.83C20.0925 38.092 18.9265 36.86 17.3205 36.86C15.7145 36.86 14.5485 38.092 14.5485 39.83C14.5485 41.59 15.7145 42.8 17.3205 42.8ZM28.9511 45.242C25.8931 45.22 24.1771 43.262 24.1771 40.534V34.66H26.9711V40.336C26.9711 41.832 27.6311 42.756 28.9511 42.778C30.3591 42.8 30.9751 41.876 30.9751 40.336V34.66H33.7691V40.556C33.7691 43.196 31.8111 45.264 28.9511 45.242ZM45.7232 45.242C41.7412 45.242 40.0912 42.426 40.0252 40.27H42.9292C43.0832 41.678 44.0512 42.712 45.7232 42.712C47.0432 42.712 48.0772 41.986 48.0772 40.952C48.0772 37.85 40.2672 39.522 40.2672 34.11C40.2672 31.712 42.2252 29.776 45.3712 29.776C48.8912 29.776 50.5632 32.24 50.6512 34.484H47.7472C47.6592 33.296 46.8232 32.284 45.3712 32.284C43.9632 32.284 43.0832 33.076 43.0832 34.11C43.0832 37.036 50.8932 35.32 50.8932 40.952C50.8932 43.504 48.3852 45.242 45.7232 45.242ZM62.1263 39.83C62.1263 40.226 62.1263 40.38 62.0823 40.776H54.2723C54.6023 42.184 55.5923 42.932 56.9343 42.932C58.1443 42.932 58.8263 42.602 59.2443 41.876H61.8183C61.1803 44.164 59.0903 45.242 57.0003 45.242C53.7883 45.242 51.6323 42.954 51.6323 39.83C51.6323 36.728 53.8323 34.44 56.9343 34.44C59.9483 34.44 62.1263 36.75 62.1263 39.83ZM56.9343 36.75C55.5483 36.75 54.5583 37.586 54.2503 38.84H59.5083C59.3323 37.63 58.2763 36.75 56.9343 36.75ZM66.2678 45H63.4738V39.126C63.4738 36.398 65.2118 34.44 68.3138 34.44C71.3938 34.44 73.1318 36.398 73.1318 39.126V45H70.3598V39.346C70.3598 37.828 69.6778 36.882 68.3138 36.882C66.9498 36.882 66.2678 37.828 66.2678 39.346V45ZM81.709 34.66V36.882H78.695V40.732C78.695 42.074 79.179 42.69 80.565 42.69C80.697 42.69 81.027 42.69 81.445 42.668V44.934C80.873 45.088 80.367 45.176 79.817 45.176C77.485 45.176 75.901 43.768 75.901 41.106V36.882H74.031V34.66H75.901V31.162H78.695V34.66H81.709ZM88.1865 43.4639C88.1865 43.1273 88.233 42.8444 88.3261 42.6152C88.4264 42.3789 88.5625 42.1891 88.7343 42.0459C88.9062 41.9027 89.1067 41.7988 89.3359 41.7344C89.5651 41.6699 89.8121 41.6377 90.0771 41.6377C90.3278 41.6377 90.5641 41.6699 90.7861 41.7344C91.0153 41.7988 91.2158 41.9027 91.3877 42.0459C91.5595 42.1891 91.6956 42.3789 91.7959 42.6152C91.8961 42.8444 91.9463 43.1273 91.9463 43.4639C91.9463 43.7861 91.8961 44.0618 91.7959 44.291C91.6956 44.5202 91.5595 44.71 91.3877 44.8604C91.2158 45.0107 91.0153 45.1182 90.7861 45.1826C90.5641 45.2542 90.3278 45.29 90.0771 45.29C89.8121 45.29 89.5651 45.2542 89.3359 45.1826C89.1067 45.1182 88.9062 45.0107 88.7343 44.8604C88.5625 44.71 88.4264 44.5202 88.3261 44.291C88.233 44.0618 88.1865 43.7861 88.1865 43.4639ZM88.1865 34.5908C88.1865 34.2542 88.233 33.9714 88.3261 33.7422C88.4264 33.5059 88.5625 33.3161 88.7343 33.1729C88.9062 33.0296 89.1067 32.9258 89.3359 32.8613C89.5651 32.7969 89.8121 32.7646 90.0771 32.7646C90.3278 32.7646 90.5641 32.7969 90.7861 32.8613C91.0153 32.9258 91.2158 33.0296 91.3877 33.1729C91.5595 33.3161 91.6956 33.5059 91.7959 33.7422C91.8961 33.9714 91.9463 34.2542 91.9463 34.5908C91.9463 34.9131 91.8961 35.1924 91.7959 35.4287C91.6956 35.6579 91.5595 35.8477 91.3877 35.998C91.2158 36.1413 91.0153 36.2487 90.7861 36.3203C90.5641 36.3848 90.3278 36.417 90.0771 36.417C89.8121 36.417 89.5651 36.3848 89.3359 36.3203C89.1067 36.2487 88.9062 36.1413 88.7343 35.998C88.5625 35.8477 88.4264 35.6579 88.3261 35.4287C88.233 35.1924 88.1865 34.9131 88.1865 34.5908ZM94.8793 43.4639C94.8793 43.1273 94.9258 42.8444 95.0189 42.6152C95.1192 42.3789 95.2553 42.1891 95.4271 42.0459C95.599 41.9027 95.7995 41.7988 96.0287 41.7344C96.2579 41.6699 96.5049 41.6377 96.7699 41.6377C97.0206 41.6377 97.2569 41.6699 97.4789 41.7344C97.7081 41.7988 97.9086 41.9027 98.0805 42.0459C98.2523 42.1891 98.3884 42.3789 98.4887 42.6152C98.5889 42.8444 98.6391 43.1273 98.6391 43.4639C98.6391 43.7861 98.5889 44.0618 98.4887 44.291C98.3884 44.5202 98.2523 44.71 98.0805 44.8604C97.9086 45.0107 97.7081 45.1182 97.4789 45.1826C97.2569 45.2542 97.0206 45.29 96.7699 45.29C96.5049 45.29 96.2579 45.2542 96.0287 45.1826C95.7995 45.1182 95.599 45.0107 95.4271 44.8604C95.2553 44.71 95.1192 44.5202 95.0189 44.291C94.9258 44.0618 94.8793 43.7861 94.8793 43.4639ZM94.8793 34.5908C94.8793 34.2542 94.9258 33.9714 95.0189 33.7422C95.1192 33.5059 95.2553 33.3161 95.4271 33.1729C95.599 33.0296 95.7995 32.9258 96.0287 32.8613C96.2579 32.7969 96.5049 32.7646 96.7699 32.7646C97.0206 32.7646 97.2569 32.7969 97.4789 32.8613C97.7081 32.9258 97.9086 33.0296 98.0805 33.1729C98.2523 33.3161 98.3884 33.5059 98.4887 33.7422C98.5889 33.9714 98.6391 34.2542 98.6391 34.5908C98.6391 34.9131 98.5889 35.1924 98.4887 35.4287C98.3884 35.6579 98.2523 35.8477 98.0805 35.998C97.9086 36.1413 97.7081 36.2487 97.4789 36.3203C97.2569 36.3848 97.0206 36.417 96.7699 36.417C96.5049 36.417 96.2579 36.3848 96.0287 36.3203C95.7995 36.2487 95.599 36.1413 95.4271 35.998C95.2553 35.8477 95.1192 35.6579 95.0189 35.4287C94.9258 35.1924 94.8793 34.9131 94.8793 34.5908Z" fill="#0A7AF9"/>
<rect y="72.5245" width="8.34239" height="8.34239" rx="4.1712" fill="#6D7CFA"/>
<path d="M24.2841 81.6956H22.6741L21.8341 79.4276H17.8721L17.0321 81.6956H15.4361L19.0761 72.1616H20.6441L24.2841 81.6956ZM18.3201 78.1116H21.3861L20.0141 74.3316C19.9394 74.1263 19.8881 73.9583 19.8601 73.8276H19.8321C19.7854 74.0236 19.7387 74.1916 19.6921 74.3316L18.3201 78.1116ZM26.7102 81.6956H25.2402V72.1616H26.7102V81.6956ZM30.0533 81.6956H28.5833V72.1616H30.0533V81.6956ZM40.0398 81.6956L36.3018 77.7056H36.2738V81.6956H34.7758V72.1616H38.5978C39.1672 72.1616 39.6805 72.283 40.1378 72.5256C40.6045 72.759 40.9732 73.0903 41.2438 73.5196C41.5145 73.949 41.6498 74.4343 41.6498 74.9756C41.6498 75.517 41.5098 75.9976 41.2298 76.4176C40.9592 76.8283 40.5952 77.1456 40.1378 77.3696C39.6805 77.5936 39.1952 77.7056 38.6818 77.7056H38.0938V77.7196C38.2432 77.8036 38.3832 77.911 38.5138 78.0416L42.0838 81.6956H40.0398ZM36.2738 73.5616V76.4176H38.3178C38.9058 76.4176 39.3538 76.2823 39.6618 76.0116C39.9698 75.741 40.1238 75.3956 40.1238 74.9756C40.1238 74.565 39.9698 74.229 39.6618 73.9676C39.3632 73.697 38.9245 73.5616 38.3458 73.5616H36.2738ZM48.5796 78.4196C48.5796 78.6343 48.575 78.8116 48.5656 78.9516H43.5256C43.619 79.4556 43.8336 79.8476 44.1696 80.1276C44.5056 80.4076 44.9116 80.5476 45.3876 80.5476C46.1623 80.5476 46.6896 80.2723 46.9696 79.7216H48.4116C48.2156 80.375 47.8423 80.893 47.2916 81.2756C46.741 81.649 46.111 81.8356 45.4016 81.8356C44.7576 81.8356 44.179 81.691 43.6656 81.4016C43.1616 81.1123 42.765 80.711 42.4756 80.1976C42.1956 79.675 42.0556 79.0823 42.0556 78.4196C42.0556 77.757 42.1956 77.169 42.4756 76.6556C42.765 76.133 43.1616 75.727 43.6656 75.4376C44.1696 75.139 44.7436 74.9896 45.3876 74.9896C45.9756 74.9896 46.5123 75.139 46.9976 75.4376C47.4923 75.7363 47.8796 76.147 48.1596 76.6696C48.4396 77.1923 48.5796 77.7756 48.5796 78.4196ZM45.3876 76.2776C44.9116 76.2776 44.5056 76.4176 44.1696 76.6976C43.843 76.9776 43.6283 77.3556 43.5256 77.8316H47.1236C47.077 77.4023 46.8903 77.0383 46.5636 76.7396C46.237 76.4316 45.845 76.2776 45.3876 76.2776ZM53.1573 75.1296V76.3476H51.3093V81.6956H49.8393V76.3476H48.5653V75.1296H49.8393V74.4996C49.8393 73.7343 50.0446 73.1416 50.4553 72.7216C50.866 72.2923 51.4026 72.0776 52.0653 72.0776C52.3453 72.0776 52.6206 72.1103 52.8913 72.1756V73.3796C52.7606 73.361 52.6253 73.3516 52.4853 73.3516C51.7013 73.3516 51.3093 73.7296 51.3093 74.4856V75.1296H53.1573ZM59.8731 78.4196C59.8731 78.6343 59.8685 78.8116 59.8591 78.9516H54.8191C54.9125 79.4556 55.1271 79.8476 55.4631 80.1276C55.7991 80.4076 56.2051 80.5476 56.6811 80.5476C57.4558 80.5476 57.9831 80.2723 58.2631 79.7216H59.7051C59.5091 80.375 59.1358 80.893 58.5851 81.2756C58.0345 81.649 57.4045 81.8356 56.6951 81.8356C56.0511 81.8356 55.4725 81.691 54.9591 81.4016C54.4551 81.1123 54.0585 80.711 53.7691 80.1976C53.4891 79.675 53.3491 79.0823 53.3491 78.4196C53.3491 77.757 53.4891 77.169 53.7691 76.6556C54.0585 76.133 54.4551 75.727 54.9591 75.4376C55.4631 75.139 56.0371 74.9896 56.6811 74.9896C57.2691 74.9896 57.8058 75.139 58.2911 75.4376C58.7858 75.7363 59.1731 76.147 59.4531 76.6696C59.7331 77.1923 59.8731 77.7756 59.8731 78.4196ZM56.6811 76.2776C56.2051 76.2776 55.7991 76.4176 55.4631 76.6976C55.1365 76.9776 54.9218 77.3556 54.8191 77.8316H58.4171C58.3705 77.4023 58.1838 77.0383 57.8571 76.7396C57.5305 76.4316 57.1385 76.2776 56.6811 76.2776ZM60.8169 77.6636C60.8169 76.8516 61.0456 76.203 61.5029 75.7176C61.9696 75.2323 62.5949 74.9896 63.3789 74.9896C63.6123 74.9896 63.8736 75.0223 64.1629 75.0876V76.4316C64.0789 76.4223 63.9109 76.4176 63.6589 76.4176C63.2016 76.4176 62.8563 76.5343 62.6229 76.7676C62.3989 77.001 62.2869 77.3836 62.2869 77.9156V81.6956H60.8169V77.6636ZM65.0897 77.6636C65.0897 76.8516 65.3183 76.203 65.7757 75.7176C66.2423 75.2323 66.8677 74.9896 67.6517 74.9896C67.885 74.9896 68.1463 75.0223 68.4357 75.0876V76.4316C68.3517 76.4223 68.1837 76.4176 67.9317 76.4176C67.4743 76.4176 67.129 76.5343 66.8957 76.7676C66.6717 77.001 66.5597 77.3836 66.5597 77.9156V81.6956H65.0897V77.6636ZM74.4584 75.1296H75.7324V81.6956H74.4304L74.3184 80.6876C74.0944 81.0516 73.7864 81.3363 73.3944 81.5416C73.0024 81.7376 72.5637 81.8356 72.0784 81.8356C71.5277 81.8356 71.0144 81.7003 70.5384 81.4296C70.0624 81.159 69.6797 80.767 69.3904 80.2536C69.1011 79.731 68.9564 79.1196 68.9564 78.4196C68.9564 77.7103 69.1011 77.099 69.3904 76.5856C69.6797 76.063 70.0624 75.6663 70.5384 75.3956C71.0144 75.125 71.5277 74.9896 72.0784 74.9896C72.5637 74.9896 73.0024 75.0923 73.3944 75.2976C73.7864 75.4936 74.0944 75.7783 74.3184 76.1516L74.4584 75.1296ZM72.3864 80.5196C72.7224 80.5196 73.0351 80.4356 73.3244 80.2676C73.6231 80.0996 73.8611 79.857 74.0384 79.5396C74.2251 79.2223 74.3184 78.849 74.3184 78.4196C74.3184 77.9996 74.2251 77.631 74.0384 77.3136C73.8611 76.9963 73.6231 76.7536 73.3244 76.5856C73.0257 76.4083 72.7131 76.3196 72.3864 76.3196C72.0317 76.3196 71.7051 76.4036 71.4064 76.5716C71.1077 76.7396 70.8697 76.9823 70.6924 77.2996C70.5151 77.617 70.4264 77.9903 70.4264 78.4196C70.4264 79.0636 70.6131 79.577 70.9864 79.9596C71.3691 80.333 71.8357 80.5196 72.3864 80.5196ZM78.9668 81.6956H77.4968V72.1616H78.9668V81.6956ZM82.9259 81.8356C82.1886 81.8356 81.5772 81.6396 81.0919 81.2476C80.6066 80.8463 80.3452 80.3236 80.3079 79.6796H81.7499C81.7872 79.9783 81.9132 80.2116 82.1279 80.3796C82.3519 80.5476 82.6179 80.6316 82.9259 80.6316C83.2432 80.6316 83.4859 80.5663 83.6539 80.4356C83.8219 80.305 83.9059 80.1416 83.9059 79.9456C83.9059 79.7123 83.7986 79.535 83.5839 79.4136C83.3786 79.2923 83.0519 79.1663 82.6039 79.0356C82.1559 78.905 81.7872 78.7696 81.4979 78.6296C81.2086 78.4896 80.9612 78.2843 80.7559 78.0136C80.5506 77.743 80.4479 77.3836 80.4479 76.9356C80.4479 76.5996 80.5366 76.2823 80.7139 75.9836C80.9006 75.685 81.1712 75.447 81.5259 75.2696C81.8806 75.083 82.2959 74.9896 82.7719 74.9896C83.4626 74.9896 84.0272 75.1716 84.4659 75.5356C84.9046 75.8996 85.1566 76.4083 85.2219 77.0616H83.7799C83.7332 76.791 83.6212 76.581 83.4439 76.4316C83.2759 76.273 83.0519 76.1936 82.7719 76.1936C82.5106 76.1936 82.2959 76.2636 82.1279 76.4036C81.9599 76.5436 81.8759 76.721 81.8759 76.9356C81.8759 77.169 81.9786 77.3463 82.1839 77.4676C82.3986 77.589 82.7252 77.7103 83.1639 77.8316C83.6119 77.9623 83.9806 78.0976 84.2699 78.2376C84.5686 78.3776 84.8206 78.5876 85.0259 78.8676C85.2406 79.1383 85.3479 79.4976 85.3479 79.9456C85.3479 80.5056 85.1146 80.963 84.6479 81.3176C84.1812 81.663 83.6072 81.8356 82.9259 81.8356Z" fill="#092857"/>
<rect y="102.546" width="8.34239" height="8.34239" rx="4.1712" fill="#FFB321"/>
<path d="M16.2305 111.717V102.183H17.6725L22.4885 108.833C22.6658 109.076 22.7871 109.277 22.8525 109.435L22.8805 109.421C22.8525 109.197 22.8385 108.917 22.8385 108.581V102.183H24.3505V111.717H22.8945L18.0925 105.067C17.9245 104.834 17.7985 104.638 17.7145 104.479L17.7005 104.493C17.7191 104.643 17.7285 104.918 17.7285 105.319V111.717H16.2305ZM28.9227 111.857C28.2787 111.857 27.6953 111.708 27.1727 111.409C26.65 111.111 26.2393 110.7 25.9407 110.177C25.642 109.655 25.4927 109.076 25.4927 108.441C25.4927 107.807 25.642 107.228 25.9407 106.705C26.2393 106.183 26.65 105.772 27.1727 105.473C27.6953 105.165 28.2787 105.011 28.9227 105.011C29.576 105.011 30.164 105.165 30.6867 105.473C31.2093 105.772 31.62 106.183 31.9187 106.705C32.2173 107.228 32.3667 107.807 32.3667 108.441C32.3667 109.076 32.2173 109.655 31.9187 110.177C31.62 110.7 31.2093 111.111 30.6867 111.409C30.164 111.708 29.576 111.857 28.9227 111.857ZM28.9227 110.541C29.492 110.541 29.9633 110.345 30.3367 109.953C30.71 109.552 30.8967 109.048 30.8967 108.441C30.8967 107.825 30.71 107.321 30.3367 106.929C29.9633 106.528 29.492 106.327 28.9227 106.327C28.3533 106.327 27.882 106.528 27.5087 106.929C27.1447 107.321 26.9627 107.825 26.9627 108.441C26.9627 109.048 27.1447 109.552 27.5087 109.953C27.882 110.345 28.3533 110.541 28.9227 110.541ZM37.1663 106.369H35.2483V109.281C35.2483 109.72 35.3463 110.033 35.5423 110.219C35.7476 110.397 36.0743 110.485 36.5223 110.485L37.0403 110.471V111.689C36.7229 111.773 36.4149 111.815 36.1163 111.815C35.4256 111.815 34.8609 111.61 34.4223 111.199C33.9929 110.779 33.7783 110.201 33.7783 109.463V106.369H32.5883V105.151H33.7643V102.953H35.2483V105.151H37.1663V106.369ZM49.1627 111.717H47.5527L46.7127 109.449H42.7507L41.9107 111.717H40.3147L43.9547 102.183H45.5227L49.1627 111.717ZM43.1987 108.133H46.2647L44.8927 104.353C44.8181 104.148 44.7667 103.98 44.7387 103.849H44.7107C44.6641 104.045 44.6174 104.213 44.5707 104.353L43.1987 108.133ZM52.5208 111.857C51.8768 111.857 51.2934 111.713 50.7708 111.423C50.2574 111.134 49.8514 110.728 49.5528 110.205C49.2634 109.683 49.1188 109.095 49.1188 108.441C49.1188 107.788 49.2634 107.2 49.5528 106.677C49.8514 106.155 50.2574 105.749 50.7708 105.459C51.2934 105.161 51.8768 105.011 52.5208 105.011C53.3328 105.011 54.0234 105.24 54.5928 105.697C55.1714 106.155 55.5354 106.738 55.6848 107.447H54.1868C54.0468 107.102 53.8321 106.831 53.5428 106.635C53.2628 106.439 52.9268 106.341 52.5348 106.341C51.9748 106.341 51.5081 106.537 51.1348 106.929C50.7708 107.321 50.5888 107.825 50.5888 108.441C50.5888 109.057 50.7708 109.561 51.1348 109.953C51.5081 110.345 51.9748 110.541 52.5348 110.541C52.9174 110.541 53.2488 110.443 53.5288 110.247C53.8181 110.051 54.0374 109.776 54.1868 109.421H55.6848C55.5354 110.14 55.1714 110.728 54.5928 111.185C54.0234 111.633 53.3328 111.857 52.5208 111.857ZM59.6099 111.857C58.9659 111.857 58.3826 111.713 57.8599 111.423C57.3466 111.134 56.9406 110.728 56.6419 110.205C56.3526 109.683 56.2079 109.095 56.2079 108.441C56.2079 107.788 56.3526 107.2 56.6419 106.677C56.9406 106.155 57.3466 105.749 57.8599 105.459C58.3826 105.161 58.9659 105.011 59.6099 105.011C60.4219 105.011 61.1126 105.24 61.6819 105.697C62.2606 106.155 62.6246 106.738 62.7739 107.447H61.2759C61.1359 107.102 60.9212 106.831 60.6319 106.635C60.3519 106.439 60.0159 106.341 59.6239 106.341C59.0639 106.341 58.5972 106.537 58.2239 106.929C57.8599 107.321 57.6779 107.825 57.6779 108.441C57.6779 109.057 57.8599 109.561 58.2239 109.953C58.5972 110.345 59.0639 110.541 59.6239 110.541C60.0066 110.541 60.3379 110.443 60.6179 110.247C60.9072 110.051 61.1266 109.776 61.2759 109.421H62.7739C62.6246 110.14 62.2606 110.728 61.6819 111.185C61.1126 111.633 60.4219 111.857 59.6099 111.857ZM69.821 108.441C69.821 108.656 69.8164 108.833 69.807 108.973H64.767C64.8604 109.477 65.075 109.869 65.411 110.149C65.747 110.429 66.153 110.569 66.629 110.569C67.4037 110.569 67.931 110.294 68.211 109.743H69.653C69.457 110.397 69.0837 110.915 68.533 111.297C67.9824 111.671 67.3524 111.857 66.643 111.857C65.999 111.857 65.4204 111.713 64.907 111.423C64.403 111.134 64.0064 110.733 63.717 110.219C63.437 109.697 63.297 109.104 63.297 108.441C63.297 107.779 63.437 107.191 63.717 106.677C64.0064 106.155 64.403 105.749 64.907 105.459C65.411 105.161 65.985 105.011 66.629 105.011C67.217 105.011 67.7537 105.161 68.239 105.459C68.7337 105.758 69.121 106.169 69.401 106.691C69.681 107.214 69.821 107.797 69.821 108.441ZM66.629 106.299C66.153 106.299 65.747 106.439 65.411 106.719C65.0844 106.999 64.8697 107.377 64.767 107.853H68.365C68.3184 107.424 68.1317 107.06 67.805 106.761C67.4784 106.453 67.0864 106.299 66.629 106.299ZM74.6148 105.011C75.1562 105.011 75.6648 105.147 76.1408 105.417C76.6168 105.688 76.9995 106.085 77.2888 106.607C77.5782 107.121 77.7228 107.732 77.7228 108.441C77.7228 109.141 77.5782 109.753 77.2888 110.275C76.9995 110.789 76.6168 111.181 76.1408 111.451C75.6648 111.722 75.1562 111.857 74.6148 111.857C74.1482 111.857 73.7235 111.764 73.3408 111.577C72.9675 111.381 72.6688 111.111 72.4448 110.765V114.475H70.9748V105.151H72.2768L72.4028 106.187C72.6268 105.814 72.9302 105.525 73.3128 105.319C73.7048 105.114 74.1388 105.011 74.6148 105.011ZM74.3348 110.541C74.8762 110.541 75.3288 110.355 75.6928 109.981C76.0662 109.599 76.2528 109.085 76.2528 108.441C76.2528 107.807 76.0662 107.298 75.6928 106.915C75.3288 106.533 74.8762 106.341 74.3348 106.341C73.9988 106.341 73.6815 106.425 73.3828 106.593C73.0935 106.761 72.8602 107.004 72.6828 107.321C72.5055 107.639 72.4168 108.012 72.4168 108.441C72.4168 108.871 72.5055 109.244 72.6828 109.561C72.8602 109.879 73.0935 110.121 73.3828 110.289C73.6815 110.457 73.9988 110.541 74.3348 110.541ZM82.5109 106.369H80.5929V109.281C80.5929 109.72 80.6909 110.033 80.8869 110.219C81.0923 110.397 81.4189 110.485 81.8669 110.485L82.3849 110.471V111.689C82.0676 111.773 81.7596 111.815 81.4609 111.815C80.7703 111.815 80.2056 111.61 79.7669 111.199C79.3376 110.779 79.1229 110.201 79.1229 109.463V106.369H77.9329V105.151H79.1089V102.953H80.5929V105.151H82.5109V106.369ZM89.5299 108.441C89.5299 108.656 89.5252 108.833 89.5159 108.973H84.4759C84.5692 109.477 84.7839 109.869 85.1199 110.149C85.4559 110.429 85.8619 110.569 86.3379 110.569C87.1125 110.569 87.6399 110.294 87.9199 109.743H89.3619C89.1659 110.397 88.7925 110.915 88.2419 111.297C87.6912 111.671 87.0612 111.857 86.3519 111.857C85.7079 111.857 85.1292 111.713 84.6159 111.423C84.1119 111.134 83.7152 110.733 83.4259 110.219C83.1459 109.697 83.0059 109.104 83.0059 108.441C83.0059 107.779 83.1459 107.191 83.4259 106.677C83.7152 106.155 84.1119 105.749 84.6159 105.459C85.1199 105.161 85.6939 105.011 86.3379 105.011C86.9259 105.011 87.4625 105.161 87.9479 105.459C88.4425 105.758 88.8299 106.169 89.1099 106.691C89.3899 107.214 89.5299 107.797 89.5299 108.441ZM86.3379 106.299C85.8619 106.299 85.4559 106.439 85.1199 106.719C84.7932 106.999 84.5785 107.377 84.4759 107.853H88.0739C88.0272 107.424 87.8405 107.06 87.5139 106.761C87.1872 106.453 86.7952 106.299 86.3379 106.299ZM95.3317 102.183H96.8157V111.717H95.4857L95.3737 110.723C95.159 111.087 94.8557 111.367 94.4637 111.563C94.081 111.759 93.647 111.857 93.1617 111.857C92.6203 111.857 92.1117 111.722 91.6357 111.451C91.1597 111.181 90.777 110.789 90.4877 110.275C90.2077 109.753 90.0677 109.141 90.0677 108.441C90.0677 107.732 90.2077 107.121 90.4877 106.607C90.777 106.085 91.1597 105.688 91.6357 105.417C92.1117 105.147 92.6203 105.011 93.1617 105.011C93.6283 105.011 94.0483 105.105 94.4217 105.291C94.8043 105.469 95.1077 105.73 95.3317 106.075V102.183ZM93.4557 110.541C93.7917 110.541 94.1043 110.457 94.3937 110.289C94.6923 110.121 94.9303 109.879 95.1077 109.561C95.285 109.244 95.3737 108.871 95.3737 108.441C95.3737 108.012 95.285 107.639 95.1077 107.321C94.9303 107.004 94.6923 106.761 94.3937 106.593C94.1043 106.425 93.7917 106.341 93.4557 106.341C92.905 106.341 92.4477 106.533 92.0837 106.915C91.7197 107.289 91.5377 107.797 91.5377 108.441C91.5377 109.085 91.7197 109.599 92.0837 109.981C92.4477 110.355 92.905 110.541 93.4557 110.541Z" fill="#092857"/>
<rect y="132.568" width="8.34239" height="8.34239" rx="4.1712" fill="#EB2051"/>
<path d="M24.1866 141.739H22.5766L21.7366 139.471H17.7746L16.9346 141.739H15.3386L18.9786 132.205H20.5466L24.1866 141.739ZM18.2226 138.155H21.2886L19.9166 134.375C19.8419 134.17 19.7906 134.002 19.7626 133.871H19.7346C19.6879 134.067 19.6413 134.235 19.5946 134.375L18.2226 138.155ZM27.5446 141.879C26.9006 141.879 26.3173 141.734 25.7946 141.445C25.2813 141.156 24.8753 140.75 24.5766 140.227C24.2873 139.704 24.1426 139.116 24.1426 138.463C24.1426 137.81 24.2873 137.222 24.5766 136.699C24.8753 136.176 25.2813 135.77 25.7946 135.481C26.3173 135.182 26.9006 135.033 27.5446 135.033C28.3566 135.033 29.0473 135.262 29.6166 135.719C30.1953 136.176 30.5593 136.76 30.7086 137.469H29.2106C29.0706 137.124 28.856 136.853 28.5666 136.657C28.2866 136.461 27.9506 136.363 27.5586 136.363C26.9986 136.363 26.532 136.559 26.1586 136.951C25.7946 137.343 25.6126 137.847 25.6126 138.463C25.6126 139.079 25.7946 139.583 26.1586 139.975C26.532 140.367 26.9986 140.563 27.5586 140.563C27.9413 140.563 28.2726 140.465 28.5526 140.269C28.842 140.073 29.0613 139.798 29.2106 139.443H30.7086C30.5593 140.162 30.1953 140.75 29.6166 141.207C29.0473 141.655 28.3566 141.879 27.5446 141.879ZM34.6338 141.879C33.9898 141.879 33.4064 141.734 32.8838 141.445C32.3704 141.156 31.9644 140.75 31.6658 140.227C31.3764 139.704 31.2318 139.116 31.2318 138.463C31.2318 137.81 31.3764 137.222 31.6658 136.699C31.9644 136.176 32.3704 135.77 32.8838 135.481C33.4064 135.182 33.9898 135.033 34.6338 135.033C35.4458 135.033 36.1364 135.262 36.7058 135.719C37.2844 136.176 37.6484 136.76 37.7978 137.469H36.2998C36.1598 137.124 35.9451 136.853 35.6558 136.657C35.3758 136.461 35.0398 136.363 34.6478 136.363C34.0878 136.363 33.6211 136.559 33.2478 136.951C32.8838 137.343 32.7018 137.847 32.7018 138.463C32.7018 139.079 32.8838 139.583 33.2478 139.975C33.6211 140.367 34.0878 140.563 34.6478 140.563C35.0304 140.563 35.3618 140.465 35.6418 140.269C35.9311 140.073 36.1504 139.798 36.2998 139.443H37.7978C37.6484 140.162 37.2844 140.75 36.7058 141.207C36.1364 141.655 35.4458 141.879 34.6338 141.879ZM44.8449 138.463C44.8449 138.678 44.8402 138.855 44.8309 138.995H39.7909C39.8842 139.499 40.0989 139.891 40.4349 140.171C40.7709 140.451 41.1769 140.591 41.6529 140.591C42.4276 140.591 42.9549 140.316 43.2349 139.765H44.6769C44.4809 140.418 44.1076 140.936 43.5569 141.319C43.0062 141.692 42.3762 141.879 41.6669 141.879C41.0229 141.879 40.4442 141.734 39.9309 141.445C39.4269 141.156 39.0302 140.754 38.7409 140.241C38.4609 139.718 38.3209 139.126 38.3209 138.463C38.3209 137.8 38.4609 137.212 38.7409 136.699C39.0302 136.176 39.4269 135.77 39.9309 135.481C40.4349 135.182 41.0089 135.033 41.6529 135.033C42.2409 135.033 42.7776 135.182 43.2629 135.481C43.7576 135.78 44.1449 136.19 44.4249 136.713C44.7049 137.236 44.8449 137.819 44.8449 138.463ZM41.6529 136.321C41.1769 136.321 40.7709 136.461 40.4349 136.741C40.1082 137.021 39.8936 137.399 39.7909 137.875H43.3889C43.3422 137.446 43.1556 137.082 42.8289 136.783C42.5022 136.475 42.1102 136.321 41.6529 136.321ZM49.6387 135.033C50.18 135.033 50.6887 135.168 51.1647 135.439C51.6407 135.71 52.0234 136.106 52.3127 136.629C52.602 137.142 52.7467 137.754 52.7467 138.463C52.7467 139.163 52.602 139.774 52.3127 140.297C52.0234 140.81 51.6407 141.202 51.1647 141.473C50.6887 141.744 50.18 141.879 49.6387 141.879C49.172 141.879 48.7474 141.786 48.3647 141.599C47.9914 141.403 47.6927 141.132 47.4687 140.787V144.497H45.9987V135.173H47.3007L47.4267 136.209C47.6507 135.836 47.954 135.546 48.3367 135.341C48.7287 135.136 49.1627 135.033 49.6387 135.033ZM49.3587 140.563C49.9 140.563 50.3527 140.376 50.7167 140.003C51.09 139.62 51.2767 139.107 51.2767 138.463C51.2767 137.828 51.09 137.32 50.7167 136.937C50.3527 136.554 49.9 136.363 49.3587 136.363C49.0227 136.363 48.7054 136.447 48.4067 136.615C48.1174 136.783 47.884 137.026 47.7067 137.343C47.5294 137.66 47.4407 138.034 47.4407 138.463C47.4407 138.892 47.5294 139.266 47.7067 139.583C47.884 139.9 48.1174 140.143 48.4067 140.311C48.7054 140.479 49.0227 140.563 49.3587 140.563ZM57.5348 136.391H55.6168V139.303C55.6168 139.742 55.7148 140.054 55.9108 140.241C56.1161 140.418 56.4428 140.507 56.8908 140.507L57.4088 140.493V141.711C57.0915 141.795 56.7835 141.837 56.4848 141.837C55.7941 141.837 55.2295 141.632 54.7908 141.221C54.3615 140.801 54.1468 140.222 54.1468 139.485V136.391H52.9568V135.173H54.1328V132.975H55.6168V135.173H57.5348V136.391ZM64.5537 138.463C64.5537 138.678 64.5491 138.855 64.5397 138.995H59.4997C59.5931 139.499 59.8077 139.891 60.1437 140.171C60.4797 140.451 60.8857 140.591 61.3617 140.591C62.1364 140.591 62.6637 140.316 62.9437 139.765H64.3857C64.1897 140.418 63.8164 140.936 63.2657 141.319C62.7151 141.692 62.0851 141.879 61.3757 141.879C60.7317 141.879 60.1531 141.734 59.6397 141.445C59.1357 141.156 58.7391 140.754 58.4497 140.241C58.1697 139.718 58.0297 139.126 58.0297 138.463C58.0297 137.8 58.1697 137.212 58.4497 136.699C58.7391 136.176 59.1357 135.77 59.6397 135.481C60.1437 135.182 60.7177 135.033 61.3617 135.033C61.9497 135.033 62.4864 135.182 62.9717 135.481C63.4664 135.78 63.8537 136.19 64.1337 136.713C64.4137 137.236 64.5537 137.819 64.5537 138.463ZM61.3617 136.321C60.8857 136.321 60.4797 136.461 60.1437 136.741C59.8171 137.021 59.6024 137.399 59.4997 137.875H63.0977C63.0511 137.446 62.8644 137.082 62.5377 136.783C62.2111 136.475 61.8191 136.321 61.3617 136.321ZM70.3555 132.205H71.8395V141.739H70.5095L70.3975 140.745C70.1829 141.109 69.8795 141.389 69.4875 141.585C69.1049 141.781 68.6709 141.879 68.1855 141.879C67.6442 141.879 67.1355 141.744 66.6595 141.473C66.1835 141.202 65.8009 140.81 65.5115 140.297C65.2315 139.774 65.0915 139.163 65.0915 138.463C65.0915 137.754 65.2315 137.142 65.5115 136.629C65.8009 136.106 66.1835 135.71 66.6595 135.439C67.1355 135.168 67.6442 135.033 68.1855 135.033C68.6522 135.033 69.0722 135.126 69.4455 135.313C69.8282 135.49 70.1315 135.752 70.3555 136.097V132.205ZM68.4795 140.563C68.8155 140.563 69.1282 140.479 69.4175 140.311C69.7162 140.143 69.9542 139.9 70.1315 139.583C70.3089 139.266 70.3975 138.892 70.3975 138.463C70.3975 138.034 70.3089 137.66 70.1315 137.343C69.9542 137.026 69.7162 136.783 69.4175 136.615C69.1282 136.447 68.8155 136.363 68.4795 136.363C67.9289 136.363 67.4715 136.554 67.1075 136.937C66.7435 137.31 66.5615 137.819 66.5615 138.463C66.5615 139.107 66.7435 139.62 67.1075 140.003C67.4715 140.376 67.9289 140.563 68.4795 140.563Z" fill="#092857"/>
</svg>
