<svg width="360" height="152" viewBox="0 0 360 152" fill="none" xmlns="http://www.w3.org/2000/svg">
<g filter="url(#filter0_d_1191_6252)">
<rect x="24" y="28" width="312" height="64" rx="32" fill="url(#paint0_linear_1191_6252)" shape-rendering="crispEdges"/>
<rect x="32" y="36" width="48" height="48" rx="24" fill="white" fill-opacity="0.24"/>
<path fill-rule="evenodd" clip-rule="evenodd" d="M58.9873 53.6132C55.8042 51.6679 54.2127 50.6953 52.9014 50.81C51.7582 50.91 50.7131 51.4962 50.0316 52.4195C49.25 53.4786 49.25 55.3438 49.25 59.0742V60.9256C49.25 64.656 49.25 66.5212 50.0316 67.5803C50.7131 68.5036 51.7582 69.0897 52.9014 69.1897C54.2127 69.3044 55.8042 68.3318 58.9873 66.3866L60.5021 65.4609C63.4567 63.6553 64.934 62.7525 65.4376 61.5903C65.8773 60.5756 65.8773 59.4242 65.4376 58.4095C64.934 57.2473 63.4567 56.3445 60.5021 54.5389L58.9873 53.6132Z" fill="white"/>
<path d="M101.104 60.336H107.744C107.776 60.672 107.776 60.928 107.76 61.232C107.616 64 105.52 66.176 102.432 66.176C98.96 66.176 96.592 63.808 96.592 60.544C96.592 57.328 99.008 54.928 102.256 54.928C104.928 54.928 106.848 56.416 107.44 58.624H105.168C104.704 57.648 103.728 56.88 102.256 56.88C100.224 56.88 98.688 58.448 98.688 60.544C98.688 62.72 100.176 64.24 102.432 64.24C104.064 64.24 105.248 63.344 105.52 62.16H101.104V60.336ZM116.439 62.24C116.439 62.528 116.439 62.64 116.407 62.928H110.727C110.967 63.952 111.687 64.496 112.663 64.496C113.543 64.496 114.039 64.256 114.343 63.728H116.215C115.751 65.392 114.231 66.176 112.711 66.176C110.375 66.176 108.807 64.512 108.807 62.24C108.807 59.984 110.407 58.32 112.663 58.32C114.855 58.32 116.439 60 116.439 62.24ZM112.663 60C111.655 60 110.935 60.608 110.711 61.52H114.535C114.407 60.64 113.639 60 112.663 60ZM122.571 58.48V60.096H120.379V62.896C120.379 63.872 120.731 64.32 121.739 64.32C121.835 64.32 122.075 64.32 122.379 64.304V65.952C121.963 66.064 121.595 66.128 121.195 66.128C119.499 66.128 118.347 65.104 118.347 63.168V60.096H116.987V58.48H118.347V55.936H120.379V58.48H122.571ZM127.231 56.88L129.807 55.088H131.423V66H129.391V57.44L127.231 58.96V56.88ZM138.225 58.784C139.729 58.784 141.473 59.92 141.473 62.256C141.473 65.008 139.489 66.176 137.521 66.176C135.201 66.176 133.665 64.944 133.425 62.928H135.569C135.745 63.776 136.465 64.4 137.505 64.4C138.545 64.4 139.441 63.664 139.441 62.416C139.441 61.136 138.577 60.48 137.617 60.48C136.881 60.48 136.337 60.8 135.889 61.328H133.697L134.705 55.088L140.849 55.088V56.96L136.321 56.96L135.921 59.408H135.953C136.257 59.184 136.881 58.784 138.225 58.784ZM148.824 66H146.776V55.088H149.608L152.264 61.632C152.504 62.224 152.728 62.8 152.872 63.312H152.904C153.048 62.8 153.272 62.224 153.512 61.632L156.168 55.088H159V66H156.936V58.688C156.936 58.448 156.936 58.256 156.968 57.968H156.936C156.872 58.224 156.792 58.448 156.68 58.72L153.736 65.872H152.04L149.096 58.72C148.984 58.448 148.904 58.224 148.824 57.968H148.792C148.824 58.256 148.824 58.448 148.824 58.688V66ZM161.997 57.28C161.293 57.28 160.717 56.736 160.717 56.048C160.717 55.36 161.293 54.8 161.997 54.8C162.685 54.8 163.261 55.36 163.261 56.048C163.261 56.736 162.685 57.28 161.997 57.28ZM163.005 66H160.989V58.48H163.005V66ZM166.771 66H164.739V61.728C164.739 59.744 166.003 58.32 168.259 58.32C170.499 58.32 171.763 59.744 171.763 61.728V66H169.747V61.888C169.747 60.784 169.251 60.096 168.259 60.096C167.267 60.096 166.771 60.784 166.771 61.888V66ZM181.976 66H179.752L176.52 55.088H178.648L180.44 61.76C180.6 62.352 180.744 63.104 180.808 63.456H180.84C180.888 63.104 180.984 62.56 181.208 61.728L183.016 55.088H185.608L187.4 61.728C187.64 62.576 187.736 63.104 187.784 63.456H187.816C187.88 63.104 188.008 62.384 188.168 61.76L189.976 55.088H192.104L188.856 66H186.632L184.568 58.224C184.424 57.68 184.36 57.36 184.328 56.896H184.296C184.248 57.36 184.2 57.68 184.04 58.224L181.976 66ZM194.138 57.28C193.434 57.28 192.858 56.736 192.858 56.048C192.858 55.36 193.434 54.8 194.138 54.8C194.826 54.8 195.402 55.36 195.402 56.048C195.402 56.736 194.826 57.28 194.138 57.28ZM195.146 66H193.13V58.48H195.146V66ZM201.712 58.48V60.096H199.52V62.896C199.52 63.872 199.872 64.32 200.88 64.32C200.976 64.32 201.216 64.32 201.52 64.304V65.952C201.104 66.064 200.736 66.128 200.336 66.128C198.64 66.128 197.488 65.104 197.488 63.168V60.096H196.128V58.48H197.488V55.936H199.52V58.48H201.712ZM207.581 58.32C209.101 58.32 210.413 59.328 210.413 61.6V66H208.381V61.92C208.381 60.576 207.661 60.112 206.909 60.112C205.917 60.112 205.261 60.928 205.261 62.096V66H203.245V55.088H205.261V59.552C205.741 58.784 206.605 58.32 207.581 58.32ZM220.773 66H218.549L215.317 55.088H217.445L219.237 61.76C219.397 62.352 219.541 63.104 219.605 63.456H219.637C219.685 63.104 219.781 62.56 220.005 61.728L221.813 55.088L224.405 55.088L226.197 61.728C226.437 62.576 226.533 63.104 226.581 63.456H226.613C226.677 63.104 226.805 62.384 226.965 61.76L228.773 55.088H230.901L227.653 66H225.429L223.365 58.224C223.221 57.68 223.157 57.36 223.125 56.896H223.093C223.045 57.36 222.997 57.68 222.837 58.224L220.773 66ZM236.557 59.664L236.733 58.48H238.461V66H236.669L236.541 64.848C236.109 65.68 235.229 66.176 234.061 66.176C232.317 66.176 230.573 64.832 230.573 62.24C230.573 59.648 232.317 58.32 234.061 58.32C235.245 58.32 236.125 58.816 236.557 59.664ZM234.589 64.4C235.549 64.4 236.509 63.696 236.509 62.24C236.509 60.864 235.517 60.096 234.589 60.096C233.453 60.096 232.573 60.928 232.573 62.24C232.573 63.584 233.469 64.4 234.589 64.4ZM245.196 58.48V60.096H243.004V62.896C243.004 63.872 243.356 64.32 244.364 64.32C244.46 64.32 244.7 64.32 245.004 64.304V65.952C244.588 66.064 244.22 66.128 243.82 66.128C242.124 66.128 240.972 65.104 240.972 63.168V60.096H239.612V58.48H240.972V55.936H243.004V58.48H245.196ZM250.009 66.176C247.721 66.176 246.041 64.496 246.041 62.24C246.041 59.984 247.721 58.32 250.009 58.32C251.961 58.32 253.401 59.488 253.705 61.216H251.737C251.449 60.496 250.873 60.096 250.057 60.096C248.889 60.096 248.041 60.976 248.041 62.24C248.041 63.504 248.889 64.4 250.057 64.4C250.873 64.4 251.433 64 251.737 63.264H253.705C253.401 64.992 251.961 66.176 250.009 66.176ZM259.597 58.32C261.117 58.32 262.429 59.328 262.429 61.6V66H260.397V61.92C260.397 60.576 259.677 60.112 258.925 60.112C257.933 60.112 257.277 60.928 257.277 62.096V66H255.261V55.088H257.277V59.552C257.757 58.784 258.621 58.32 259.597 58.32ZM277.684 66H275.508L274.676 63.648H270.26L269.428 66H267.268L271.22 55.088H273.732L277.684 66ZM272.292 57.616L270.804 61.856H274.132L272.644 57.616C272.564 57.376 272.516 57.2 272.484 57.04H272.452C272.42 57.2 272.372 57.376 272.292 57.616ZM283.616 59.552V55.088H285.632V66H283.792L283.664 64.848C283.232 65.68 282.368 66.176 281.2 66.176C279.488 66.176 277.76 64.832 277.76 62.24C277.76 59.648 279.488 58.32 281.2 58.32C282.32 58.32 283.168 58.784 283.616 59.552ZM281.728 64.4C282.672 64.4 283.632 63.696 283.632 62.24C283.632 60.784 282.672 60.096 281.728 60.096C280.624 60.096 279.76 60.896 279.76 62.24C279.76 63.584 280.624 64.4 281.728 64.4ZM293.038 59.552V55.088H295.054V66H293.214L293.086 64.848C292.654 65.68 291.79 66.176 290.622 66.176C288.91 66.176 287.182 64.832 287.182 62.24C287.182 59.648 288.91 58.32 290.622 58.32C291.742 58.32 292.59 58.784 293.038 59.552ZM291.15 64.4C292.094 64.4 293.054 63.696 293.054 62.24C293.054 60.784 292.094 60.096 291.15 60.096C290.046 60.096 289.182 60.896 289.182 62.24C289.182 63.584 290.046 64.4 291.15 64.4ZM300.625 62.2109H298.719L298.32 54.5781H301.023L300.625 62.2109ZM298.289 64.8828C298.289 64.638 298.323 64.4323 298.391 64.2656C298.464 64.0938 298.562 63.9557 298.688 63.8516C298.812 63.7474 298.958 63.6719 299.125 63.625C299.292 63.5781 299.471 63.5547 299.664 63.5547C299.846 63.5547 300.018 63.5781 300.18 63.625C300.346 63.6719 300.492 63.7474 300.617 63.8516C300.742 63.9557 300.841 64.0938 300.914 64.2656C300.987 64.4323 301.023 64.638 301.023 64.8828C301.023 65.1172 300.987 65.3177 300.914 65.4844C300.841 65.651 300.742 65.7891 300.617 65.8984C300.492 66.0078 300.346 66.0859 300.18 66.1328C300.018 66.1849 299.846 66.2109 299.664 66.2109C299.471 66.2109 299.292 66.1849 299.125 66.1328C298.958 66.0859 298.812 66.0078 298.688 65.8984C298.562 65.7891 298.464 65.651 298.391 65.4844C298.323 65.3177 298.289 65.1172 298.289 64.8828Z" fill="white"/>
</g>
<defs>
<filter id="filter0_d_1191_6252" x="-20" y="0" width="400" height="152" filterUnits="userSpaceOnUse" color-interpolation-filters="sRGB">
<feFlood flood-opacity="0" result="BackgroundImageFix"/>
<feColorMatrix in="SourceAlpha" type="matrix" values="0 0 0 0 0 0 0 0 0 0 0 0 0 0 0 0 0 0 127 0" result="hardAlpha"/>
<feMorphology radius="20" operator="erode" in="SourceAlpha" result="effect1_dropShadow_1191_6252"/>
<feOffset dy="16"/>
<feGaussianBlur stdDeviation="32"/>
<feComposite in2="hardAlpha" operator="out"/>
<feColorMatrix type="matrix" values="0 0 0 0 0.14902 0 0 0 0 0.607843 0 0 0 0 0.992157 0 0 0 0.4 0"/>
<feBlend mode="normal" in2="BackgroundImageFix" result="effect1_dropShadow_1191_6252"/>
<feBlend mode="normal" in="SourceGraphic" in2="effect1_dropShadow_1191_6252" result="shape"/>
</filter>
<linearGradient id="paint0_linear_1191_6252" x1="357.312" y1="115.385" x2="22.2572" y2="-22.8884" gradientUnits="userSpaceOnUse">
<stop stop-color="#0066E7"/>
<stop offset="0.25" stop-color="#0071FF"/>
<stop offset="1" stop-color="#4ECAFF"/>
</linearGradient>
</defs>
</svg>
