<svg width="344" height="353" viewBox="0 0 344 353" fill="none" xmlns="http://www.w3.org/2000/svg">
<path opacity="0.5" d="M343.562 147.09C226.074 266.817 173.665 333.547 162.147 351.946M331.923 140.451C214.435 260.179 162.026 326.909 150.508 345.307M320.284 133.813C202.796 253.54 150.387 320.27 138.868 338.669M308.645 127.174C191.157 246.902 138.748 313.631 127.229 332.03M297.006 120.536C179.517 240.263 127.109 306.993 115.59 325.392M285.366 113.897C167.878 233.625 115.469 300.354 103.951 318.753M273.727 107.258C156.239 226.986 103.83 293.716 92.3119 312.114M262.088 100.62C144.6 220.347 92.1907 287.077 80.6729 305.476M250.449 93.9813C132.961 213.709 80.5518 280.439 69.0334 298.837M238.81 87.3428C121.321 207.07 68.9128 273.8 57.3945 292.199M227.17 80.7041C109.682 200.432 57.2734 267.161 45.755 285.56M215.531 74.0656C98.0435 193.793 45.6344 260.523 34.116 278.922M203.892 67.4272C86.404 187.154 33.9954 253.884 22.4771 272.283M192.253 60.7884C74.7651 180.516 22.356 247.246 10.8376 265.644M180.614 54.15C63.1256 173.877 10.7169 240.607 -0.801406 259.006M168.975 47.5112C51.4867 167.239 -0.922271 233.969 -12.4406 252.367M157.336 40.8728C39.8475 160.6 -12.5614 227.33 -24.0797 245.729M145.697 34.2343C28.2084 153.962 -24.2005 220.691 -35.7189 239.09M134.057 27.5957C16.5692 147.323 -35.8397 214.053 -47.358 232.452M122.418 20.9571C4.93008 140.685 -47.4789 207.414 -58.9972 225.813M110.779 14.3185C-6.7091 134.046 -59.118 200.776 -70.6363 219.174M99.1399 7.67996C-18.3482 127.407 -70.7572 194.137 -82.2755 212.536M87.5008 1.04142C-29.9873 120.769 -82.3963 187.499 -93.9146 205.897M337.743 143.771C220.255 263.498 167.846 330.228 156.327 348.627M326.103 137.132C208.615 256.859 156.206 323.589 144.688 341.988M314.464 130.493C196.976 250.221 144.567 316.951 133.049 335.349M302.825 123.855C185.337 243.582 132.928 310.312 121.41 328.711M291.186 117.216C173.698 236.944 121.289 303.673 109.77 322.072M279.547 110.578C162.059 230.305 109.65 297.035 98.1313 315.434M267.908 103.939C150.419 223.667 98.0107 290.397 86.4924 308.795M256.268 97.3005C138.78 217.028 86.3712 283.758 74.8529 302.156M244.629 90.6621C127.141 210.39 74.7323 277.119 63.2139 295.518M232.99 84.0233C115.502 203.751 63.0928 270.481 51.575 288.88M221.351 77.3849C103.863 197.112 51.4539 263.842 39.9355 282.241M209.712 70.7464C92.2235 190.474 39.8149 257.204 28.2966 275.602M198.072 64.1077C80.5845 183.835 28.1754 250.565 16.6571 268.964M186.434 57.4692C68.9456 177.197 16.5365 243.926 5.01813 262.325M174.795 50.8307C57.3061 170.558 4.89731 237.288 -6.62099 255.687M163.155 44.192C45.6671 163.92 -6.74181 230.649 -18.2602 249.048M151.516 37.5535C34.0279 157.281 -18.381 224.011 -29.8993 242.409M139.877 30.9148C22.3888 150.642 -30.0201 217.372 -41.5384 235.771M128.238 24.2764C10.7497 144.004 -41.6593 210.734 -53.1776 229.132M116.599 17.6378C-0.889499 137.365 -53.2984 204.095 -64.8168 222.494M104.959 10.9992C-12.5287 130.727 -64.9376 197.456 -76.4559 215.855M93.3204 4.36071C-24.1677 124.088 -76.5767 190.818 -88.095 209.217" stroke="url(#paint0_radial_1191_6205)" stroke-width="1.00789"/>
<g opacity="0.2" clip-path="url(#clip0_1191_6205)" filter="url(#filter0_f_1191_6205)">
<path d="M228.504 218.614L214.96 221.4L181.401 227.804C168.111 230.205 153.387 232.902 139.206 235.818C125.025 238.735 110.976 242.289 99.7706 246.752C95.9608 248.258 92.2795 250.072 88.7619 252.172C86.8872 253.554 86.634 253.938 87.6228 253.901C88.6116 253.864 96.9862 250.979 108.201 248.174L127.639 244.176L151.511 239.93C168.625 236.742 187.333 233.227 205.844 228.755C242.74 220.004 259.751 215.509 270.295 212.676C278.959 210.52 287.417 207.612 295.578 203.989C300.766 201.759 299.267 201.735 294.041 202.976L270.244 209.199L242.206 215.796L228.504 218.614Z" fill="#1E1D1C"/>
<path d="M150.761 141.768C147.05 150.356 145.967 159.853 147.649 169.056C149.33 178.259 153.702 186.759 160.211 193.478C166.721 200.199 175.076 204.841 184.221 206.815C193.367 208.791 202.891 208.011 211.594 204.576C220.298 201.141 227.786 195.203 233.116 187.514C238.447 179.826 241.379 170.728 241.543 161.373C241.706 152.02 239.094 142.826 234.036 134.955C228.979 127.083 221.701 120.888 213.123 117.15C201.587 112.17 188.547 111.964 176.857 116.578C165.169 121.192 155.786 130.251 150.761 141.768Z" fill="url(#paint1_linear_1191_6205)"/>
<path d="M238.547 124.542L239.479 125.845C239.868 126.412 240.213 127.007 240.51 127.626L241.217 128.643L241.957 129.82C242.473 130.71 242.988 131.6 243.569 132.81C244.15 134.019 244.538 135.101 245.119 136.31L246.056 138.443C246.187 139.08 246.51 139.844 246.674 140.641C247.267 142.28 247.777 143.949 248.201 145.641C250.08 153.86 250.191 162.385 248.528 170.651C248.287 171.84 247.974 173.014 247.591 174.165C247.325 175.375 246.958 176.562 246.493 177.712C245.694 180.081 244.727 182.39 243.596 184.619C241.203 189.501 238.098 194 234.385 197.972L231.498 200.891L228.419 203.684L224.955 206.223L223.207 207.413L221.267 208.476L217.545 210.57L213.44 212.411C210.676 213.421 207.858 214.278 205 214.977L196.396 216.747L191.804 217.027L187.399 216.604C181.433 216.153 175.583 214.718 170.084 212.36C164.657 210.043 159.599 206.942 155.072 203.158C150.737 199.44 146.945 195.134 143.805 190.363C140.807 185.768 138.49 180.762 136.928 175.502C136.507 174.26 136.245 172.985 135.823 171.744C135.482 170.487 135.219 169.209 135.037 167.919C134.619 165.387 134.371 162.832 134.293 160.267C133.889 153.327 134.528 146.366 136.191 139.616C136.904 135.816 136.482 134.574 135.277 135.984C134.203 137.092 133.287 138.342 132.554 139.699L131.105 143.153C130.393 144.548 129.803 146.004 129.343 147.501C126.703 156.107 126.129 165.215 127.669 174.085C127.931 175.36 128.067 176.826 128.362 178.26C128.657 179.694 129.111 181.096 129.565 182.497C129.92 183.995 130.441 185.447 131.12 186.827C131.443 187.591 131.607 188.388 131.93 189.152C132.226 189.886 132.593 190.589 133.026 191.251C135.988 197.506 139.917 203.256 144.668 208.287L146.594 210.382L148.646 212.285L153.036 215.866L157.998 218.998C159.663 220.111 161.418 221.084 163.246 221.904C170.709 225.567 178.773 227.846 187.05 228.633C195.869 229.404 204.755 228.423 213.194 225.747C222 223.106 230.137 218.6 237.049 212.537C244.162 206.391 249.904 198.816 253.899 190.305C257.922 181.84 260.101 172.619 260.292 163.249C260.574 147.004 255.084 131.185 244.799 118.606C240.705 113.749 235.97 109.472 230.725 105.89C229.539 104.971 228.26 104.404 227.108 103.645C225.973 102.852 224.773 102.153 223.523 101.559C220.998 100.584 218.725 99.2242 216.424 98.5349C208.506 95.5134 200.086 94.0334 191.613 94.1719L186.35 94.4239L181.823 95.0228L177.521 95.9076L173.603 97.0455C169.286 98.2885 165.131 100.035 161.222 102.249C159.547 103.157 157.923 104.157 156.357 105.243L152.036 108.457L148.005 112.275L144.297 116.857L142.493 119.387L140.754 122.236C140.088 123.037 139.68 124.284 139.047 125.244L137.439 128.73C135.615 133.589 135.338 135.473 135.943 135.183C136.676 134.657 137.274 133.966 137.687 133.163C138.605 131.978 139.426 130.315 140.884 128.52L143.068 125.414L145.889 122.176C146.965 120.937 148.109 119.759 149.316 118.648L151.092 116.788L153.253 115.181C159.427 110.092 166.537 106.26 174.183 103.901C182.313 101.355 190.911 100.664 199.343 101.882C207.025 102.793 214.435 105.285 221.108 109.197C226.014 111.993 230.483 115.494 234.373 119.588L237.455 123.272L238.322 124.256L238.547 124.542Z" fill="#1E1D1C"/>
<path d="M173.84 157.116L180.911 160.81C184.887 163.027 189.05 164.896 193.351 166.389C197.091 167.613 196.983 165.476 194.191 162.396C190.233 158.246 185.132 155.366 179.534 154.118C175.835 153.423 172.193 152.451 168.64 151.21C167.203 150.607 165.599 150.525 164.108 150.98C161.91 151.598 164.375 153.084 167.477 154.439C170.579 155.794 173.84 157.116 173.84 157.116Z" fill="#1E1D1C"/>
<path d="M212.067 151.579C209.753 152.351 207.507 153.313 205.351 154.454C201.567 156.344 198.155 158.903 195.279 162.006C193.062 164.954 195.171 165.516 198.644 164.636C203.265 163.201 207.526 160.795 211.143 157.581C213.491 155.402 216.247 153.706 219.251 152.592C220.544 152.139 221.65 151.268 222.395 150.119C223.694 148.357 221.079 148.563 218.084 149.345C216.026 149.937 214.014 150.684 212.067 151.579Z" fill="#1E1D1C"/>
</g>
<path d="M216.895 203.193L203.068 203.233L168.906 202.846C155.404 202.56 140.437 202.279 125.96 202.321C111.482 202.364 97.0067 203.057 85.1382 205.206C81.1053 205.926 77.1371 206.973 73.2725 208.332C71.1607 209.314 70.8363 209.641 71.8128 209.8C72.7893 209.96 81.57 208.796 93.118 208.274L112.963 208.215L137.203 208.795C154.609 209.069 173.642 209.339 192.673 208.632C230.572 207.382 248.137 206.354 259.034 205.672C267.953 205.279 276.821 204.109 285.538 202.178C291.066 201.023 289.601 200.702 284.233 200.88L259.674 202.254L230.884 203.152L216.895 203.193Z" fill="#1E1D1C"/>
<path d="M155.962 112.439C150.619 120.119 147.672 129.211 147.493 138.565C147.314 147.919 149.911 157.118 154.956 164.996C160.001 172.876 167.268 179.084 175.839 182.835C184.41 186.588 193.9 187.714 203.112 186.076C212.324 184.438 220.843 180.106 227.593 173.627C234.344 167.151 239.025 158.817 241.044 149.681C243.061 140.546 242.327 131.017 238.932 122.298C235.538 113.579 229.636 106.062 221.971 100.695C211.654 93.5233 198.914 90.7313 186.541 92.9325C174.17 95.1338 163.174 102.149 155.962 112.439Z" fill="url(#paint2_linear_1191_6205)"/>
<path d="M245.42 112.989L246.075 114.451C246.343 115.083 246.563 115.735 246.731 116.401L247.222 117.538L247.714 118.838C248.042 119.813 248.371 120.788 248.7 122.088C249.029 123.389 249.195 124.527 249.524 125.827L250.019 128.103C250.021 128.754 250.186 129.567 250.188 130.38C250.444 132.105 250.612 133.842 250.691 135.584C250.901 144.013 249.317 152.39 246.046 160.161C245.574 161.278 245.033 162.367 244.429 163.419C243.929 164.552 243.333 165.642 242.649 166.678C241.396 168.841 239.99 170.911 238.438 172.871C235.123 177.181 231.187 180.974 226.759 184.13L223.35 186.417L219.777 188.542L215.878 190.343L213.929 191.162L211.816 191.819L207.753 193.132L203.364 194.121C200.455 194.562 197.522 194.843 194.582 194.96L185.798 194.986L181.242 194.349L177.008 193.06C171.251 191.433 165.802 188.865 160.882 185.462C156.023 182.114 151.681 178.07 147.996 173.462C144.486 168.958 141.624 163.984 139.494 158.684C137.468 153.585 136.192 148.219 135.705 142.754C135.539 141.453 135.535 140.152 135.369 138.851C135.283 137.551 135.28 136.247 135.357 134.947C135.451 132.382 135.715 129.829 136.148 127.299C137.13 120.417 139.139 113.721 142.108 107.436C143.562 103.853 143.395 102.552 141.935 103.695C140.662 104.567 139.515 105.611 138.528 106.796L136.422 109.893C135.447 111.119 134.58 112.428 133.831 113.804C129.535 121.715 127.164 130.527 126.912 139.526C126.916 140.828 126.757 142.292 126.762 143.756C126.766 145.22 126.933 146.684 127.1 148.147C127.15 149.686 127.372 151.213 127.764 152.7C127.929 153.513 127.931 154.326 128.096 155.139C128.24 155.917 128.46 156.68 128.754 157.415C130.414 164.133 133.123 170.548 136.78 176.423L138.251 178.859L139.885 181.132L143.476 185.513L147.718 189.567C149.128 190.989 150.656 192.291 152.284 193.458C158.871 198.53 166.322 202.365 174.277 204.78C182.769 207.287 191.672 208.09 200.474 207.143C209.63 206.303 218.499 203.503 226.477 198.933C234.67 194.322 241.802 188.038 247.407 180.49C253.03 172.993 256.997 164.387 259.045 155.243C262.548 139.377 260.308 122.783 252.726 108.412C249.678 102.839 245.887 97.7067 241.457 93.1545C240.478 92.0187 239.337 91.2087 238.358 90.2356C237.403 89.233 236.366 88.3102 235.259 87.4793C232.978 86.022 231.02 84.2384 228.902 83.1059C221.742 78.5722 213.783 75.4495 205.451 73.9027L200.243 73.1046L195.688 72.7926L191.295 72.8055L187.23 73.1428C182.752 73.5038 178.332 74.3907 174.061 75.7842C172.239 76.3416 170.449 76.9993 168.699 77.752L163.826 80.0437L159.117 82.9855L154.573 86.7403L152.302 88.8617L150.032 91.3084C149.22 91.9614 148.573 93.102 147.762 93.9177L145.494 97.0151C142.741 101.415 142.096 103.207 142.746 103.042C143.569 102.673 144.292 102.113 144.856 101.409C145.992 100.43 147.126 98.9623 148.911 97.4931L151.669 94.8823L155.077 92.2696C156.378 91.269 157.732 90.3409 159.136 89.4922L161.246 88.022L163.683 86.8762C170.745 83.1141 178.475 80.7707 186.436 79.9773C194.91 79.0958 203.474 80.1262 211.496 82.9944C218.844 85.4128 225.612 89.3264 231.376 94.4855C235.628 98.2006 239.313 102.52 242.312 107.304L244.602 111.527L245.256 112.664L245.42 112.989Z" fill="#1E1D1C"/>
<path d="M175.533 132.064L181.73 137.089C185.187 140.051 188.895 142.709 192.815 145.027C196.237 146.969 196.556 144.853 194.431 141.281C191.376 136.427 186.948 132.591 181.71 130.257C178.222 128.841 174.846 127.165 171.609 125.243C170.321 124.366 168.766 123.968 167.214 124.118C164.937 124.287 167.058 126.233 169.829 128.177C172.6 130.121 175.533 132.064 175.533 132.064Z" fill="#1E1D1C"/>
<path d="M214.098 134.228C211.676 134.526 209.284 135.023 206.945 135.713C202.861 136.814 199.009 138.644 195.574 141.114C192.816 143.563 194.771 144.533 198.349 144.36C203.163 143.871 207.817 142.359 212 139.928C214.734 138.258 217.772 137.144 220.937 136.648C222.295 136.461 223.551 135.827 224.511 134.848C226.133 133.379 223.529 133.062 220.439 133.233C218.304 133.406 216.183 133.737 214.098 134.228Z" fill="#1E1D1C"/>
<path d="M274.519 73.9335C274.529 77.2268 273.873 80.9088 271.433 83.3226C268.994 85.7365 265.382 86.3671 262.109 86.3967C261.895 86.4272 261.691 86.5027 261.508 86.6181C261.326 86.7336 261.17 86.8864 261.051 87.0665C260.971 87.16 260.5 87.9014 260.894 87.9003C264.507 87.8897 268.296 88.6852 270.97 91.284C273.645 93.8828 274.549 97.8069 274.58 101.507C274.581 101.907 275.313 101.425 275.413 101.344C275.593 101.225 275.745 101.068 275.86 100.885C275.974 100.702 276.048 100.497 276.077 100.282C276.067 97.0357 276.636 93.3274 278.996 90.8938C281.355 88.4602 285.187 87.8489 288.467 87.8193C288.68 87.7888 288.885 87.7133 289.068 87.5979C289.25 87.4824 289.406 87.3296 289.525 87.1495C289.598 87.056 290.076 86.3146 289.676 86.3157C285.982 86.3266 282.087 85.5313 279.405 82.7992C276.724 80.0671 276.053 76.329 275.996 72.7158C275.995 72.3092 275.256 72.798 275.163 72.8716C274.982 72.9904 274.829 73.1468 274.715 73.33C274.6 73.5133 274.527 73.7192 274.499 73.9336C274.51 77.6136 275.342 81.5111 278.003 84.2167C280.664 86.9222 284.68 87.8237 288.473 87.8259L289.682 86.3157C285.569 86.3278 281.419 87.3266 278.447 90.3487C275.476 93.3708 274.582 97.4334 274.58 101.513L276.083 100.289C276.072 96.5357 275.167 92.5717 272.386 89.8665C269.605 87.1613 265.783 86.3992 262.109 86.3967L260.894 87.9069C264.974 87.8949 269.01 86.8164 271.968 83.8744C274.926 80.9324 275.994 76.8159 276.002 72.7158C276.001 72.3092 275.263 72.798 275.169 72.8716C274.993 72.9936 274.844 73.1511 274.732 73.3339C274.62 73.5168 274.548 73.721 274.519 73.9335Z" fill="#092857"/>
<path d="M88.6212 131.757C88.6248 132.983 88.4161 134.544 87.5187 135.427C86.6212 136.309 85.1018 136.507 83.8885 136.524C83.6742 136.555 83.4687 136.631 83.2853 136.746C83.102 136.862 82.9448 137.014 82.8238 137.194C82.7508 137.287 82.2796 138.029 82.6729 138.028C84.2787 137.929 85.8602 138.457 87.084 139.501C88.2941 140.671 88.639 142.357 88.6571 143.977C88.6583 144.377 89.3969 143.895 89.49 143.821C89.6677 143.699 89.8183 143.542 89.9325 143.359C90.0466 143.176 90.1219 142.972 90.1535 142.759C90.15 141.546 90.3386 139.952 91.1828 139.089C92.0269 138.227 93.6596 138.009 94.8862 137.992C95.0999 137.961 95.3047 137.886 95.4871 137.77C95.6694 137.655 95.8253 137.502 95.9443 137.322C96.024 137.228 96.4951 136.487 96.1018 136.488C94.4751 136.493 92.7675 136.158 91.5973 134.955C90.4271 133.752 90.129 132.126 90.1176 130.539C90.1165 130.139 89.3779 130.621 89.2848 130.695C89.1062 130.816 88.955 130.973 88.8407 131.156C88.7264 131.339 88.6517 131.543 88.6212 131.757C88.5337 133.441 89.0998 135.095 90.2014 136.372C91.4251 137.615 93.2129 137.99 94.8729 137.998L96.0885 136.488C95.0891 136.418 94.0864 136.565 93.1487 136.918C92.2111 137.271 91.3606 137.821 90.6552 138.533C89.9498 139.244 89.4062 140.1 89.0614 141.04C88.7166 141.981 88.5787 142.985 88.6571 143.983L90.1669 142.766C90.2613 141.92 90.1634 141.064 89.8807 140.261C89.598 139.458 89.1377 138.73 88.5342 138.13C87.9306 137.53 87.1993 137.073 86.395 136.796C85.5906 136.518 84.7338 136.425 83.8885 136.524L82.673 138.034C83.6705 138.092 84.6689 137.937 85.6022 137.58C86.5355 137.223 87.3826 136.672 88.0873 135.964C88.7921 135.255 89.3387 134.406 89.691 133.471C90.0433 132.536 90.1932 131.536 90.131 130.539C90.1298 130.132 89.3845 130.621 89.2981 130.695C89.1171 130.814 88.9633 130.971 88.8467 131.154C88.73 131.337 88.6532 131.542 88.6212 131.757Z" fill="#092857"/>
<path d="M65.6831 105.064C67.71 105.129 69.7322 105.123 71.7497 105.046C71.964 105.015 72.1693 104.939 72.3526 104.824C72.5359 104.708 72.6932 104.556 72.8145 104.377C72.8809 104.296 73.3586 103.528 72.9653 103.543C70.9656 103.629 68.9189 103.641 66.8987 103.561C66.6845 103.589 66.4791 103.664 66.2964 103.78C66.1138 103.895 65.9583 104.049 65.8407 104.23C65.7609 104.331 65.2897 105.052 65.6831 105.064Z" fill="#092857"/>
<path d="M63.6721 103.563C61.4987 103.57 59.3321 103.576 57.1586 103.536C56.9442 103.567 56.7388 103.643 56.5554 103.758C56.3721 103.873 56.2149 104.026 56.0939 104.206C56.0209 104.306 55.5497 105.034 55.943 105.039C58.1165 105.073 60.2898 105.082 62.4631 105.067C62.6766 105.036 62.881 104.96 63.0633 104.844C63.2456 104.729 63.4016 104.577 63.5212 104.397C63.5942 104.304 64.0654 103.562 63.6721 103.563Z" fill="#092857"/>
<path d="M65.3227 102.352C65.4162 100.158 65.4365 97.9647 65.3567 95.7716C65.3555 95.3716 64.6236 95.847 64.5238 95.9273C64.3456 96.0486 64.1945 96.2057 64.0803 96.3885C63.966 96.5713 63.8911 96.7759 63.8603 96.9893C63.9331 99.0958 63.926 101.196 63.8321 103.303C63.8334 103.716 64.2263 103.575 64.4658 103.421C64.7054 103.267 65.3172 102.752 65.3294 102.352L65.3227 102.352Z" fill="#092857"/>
<path d="M64.0333 106.282C63.8029 108.446 63.8496 110.63 64.1724 112.782C64.2269 113.175 64.879 112.733 65.0053 112.626C65.2713 112.405 65.7367 111.957 65.6689 111.564C65.3541 109.503 65.3054 107.411 65.5239 105.338C65.5693 104.911 65.1165 105.079 64.8969 105.22C64.4783 105.445 64.1656 105.827 64.0267 106.282L64.0333 106.282Z" fill="#092857"/>
<path d="M300.55 144.802C300.55 146.726 300.137 148.876 298.624 150.281C297.11 151.687 294.875 152.049 292.85 152.061C292.718 152.078 292.591 152.122 292.478 152.189C292.365 152.256 292.268 152.345 292.194 152.45C292.145 152.505 291.852 152.937 292.095 152.937C294.331 152.937 296.673 153.408 298.323 154.931C299.972 156.453 300.525 158.747 300.537 160.908C300.537 161.142 300.991 160.861 301.053 160.815C301.164 160.745 301.259 160.654 301.33 160.547C301.401 160.441 301.447 160.321 301.465 160.196C301.465 158.299 301.824 156.134 303.288 154.717C304.752 153.299 307.123 152.949 309.152 152.937C309.284 152.92 309.411 152.876 309.524 152.809C309.637 152.742 309.734 152.653 309.808 152.548C309.853 152.493 310.15 152.061 309.903 152.061C307.618 152.061 305.21 151.59 303.556 149.989C301.902 148.389 301.494 146.204 301.465 144.094C301.465 143.856 301.007 144.14 300.95 144.183C300.838 144.252 300.743 144.343 300.672 144.45C300.6 144.557 300.555 144.677 300.537 144.802C300.537 146.952 301.044 149.23 302.686 150.815C304.327 152.4 306.81 152.933 309.156 152.941L309.907 152.061C307.362 152.061 304.793 152.637 302.95 154.397C301.106 156.157 300.545 158.529 300.537 160.912L301.469 160.199C301.469 158.007 300.917 155.69 299.201 154.105C297.485 152.52 295.122 152.069 292.85 152.061L292.095 152.941C294.619 152.941 297.118 152.318 298.954 150.604C300.789 148.891 301.457 146.488 301.469 144.094C301.469 143.856 301.011 144.14 300.954 144.183C300.844 144.254 300.752 144.346 300.682 144.452C300.613 144.559 300.568 144.678 300.55 144.802Z" fill="#092857"/>
<defs>
<filter id="filter0_f_1191_6205" x="19.3926" y="36.2845" width="321.148" height="258.2" filterUnits="userSpaceOnUse" color-interpolation-filters="sRGB">
<feFlood flood-opacity="0" result="BackgroundImageFix"/>
<feBlend mode="normal" in="SourceGraphic" in2="BackgroundImageFix" result="shape"/>
<feGaussianBlur stdDeviation="20" result="effect1_foregroundBlur_1191_6205"/>
</filter>
<radialGradient id="paint0_radial_1191_6205" cx="0" cy="0" r="1" gradientUnits="userSpaceOnUse" gradientTransform="translate(124.824 176.494) rotate(122.25) scale(125.449 129.845)">
<stop stop-color="#6E9CDE"/>
<stop offset="0.499916" stop-color="#6E9CDE" stop-opacity="0.3"/>
<stop offset="1" stop-color="#6E9CDE" stop-opacity="0"/>
</radialGradient>
<linearGradient id="paint1_linear_1191_6205" x1="138.324" y1="123.778" x2="237.653" y2="109.664" gradientUnits="userSpaceOnUse">
<stop offset="0.378683" stop-color="#FFD568"/>
<stop offset="0.930508" stop-color="#FB993F"/>
</linearGradient>
<linearGradient id="paint2_linear_1191_6205" x1="147.346" y1="92.3374" x2="247.499" y2="98.2293" gradientUnits="userSpaceOnUse">
<stop offset="0.378683" stop-color="#FFD568"/>
<stop offset="0.930508" stop-color="#FB993F"/>
</linearGradient>
<clipPath id="clip0_1191_6205">
<rect width="218" height="137.093" fill="white" transform="translate(59.3926 120.202) rotate(-11.6222)"/>
</clipPath>
</defs>
</svg>
