<svg width="118" height="51" viewBox="0 0 118 51" fill="none" xmlns="http://www.w3.org/2000/svg">
<path d="M21.8829 4.76L27.0349 1.176L30.2669 1.176L30.2669 23L26.2029 23L26.2029 5.88L21.8829 8.92V4.76ZM43.2299 8.568C46.2379 8.568 49.7259 10.84 49.7259 15.512C49.7259 21.016 45.7579 23.352 41.8219 23.352C37.1819 23.352 34.1099 20.888 33.6299 16.856H37.9179C38.2699 18.552 39.7099 19.8 41.7899 19.8C43.8699 19.8 45.6619 18.328 45.6619 15.832C45.6619 13.272 43.9339 11.96 42.0139 11.96C40.5419 11.96 39.4539 12.6 38.5579 13.656H34.1739L36.1899 1.176L48.4779 1.176V4.92L39.4219 4.92L38.6219 9.816H38.6859C39.2939 9.368 40.5419 8.568 43.2299 8.568ZM52.4531 20.7656C52.4531 20.276 52.5208 19.8646 52.6562 19.5313C52.8021 19.1875 53 18.9115 53.25 18.7031C53.5 18.4948 53.7917 18.3438 54.125 18.25C54.4583 18.1563 54.8177 18.1094 55.2031 18.1094C55.5677 18.1094 55.9115 18.1563 56.2344 18.25C56.5677 18.3438 56.8594 18.4948 57.1094 18.7031C57.3594 18.9115 57.5573 19.1875 57.7031 19.5313C57.849 19.8646 57.9219 20.276 57.9219 20.7656C57.9219 21.2344 57.849 21.6354 57.7031 21.9688C57.5573 22.3021 57.3594 22.5781 57.1094 22.7969C56.8594 23.0156 56.5677 23.1719 56.2344 23.2656C55.9115 23.3698 55.5677 23.4219 55.2031 23.4219C54.8177 23.4219 54.4583 23.3698 54.125 23.2656C53.7917 23.1719 53.5 23.0156 53.25 22.7969C53 22.5781 52.8021 22.3021 52.6562 21.9688C52.5208 21.6354 52.4531 21.2344 52.4531 20.7656ZM52.4531 7.85938C52.4531 7.36979 52.5208 6.95833 52.6562 6.625C52.8021 6.28125 53 6.00521 53.25 5.79688C53.5 5.58854 53.7917 5.4375 54.125 5.34375C54.4583 5.25 54.8177 5.20313 55.2031 5.20313C55.5677 5.20313 55.9115 5.25 56.2344 5.34375C56.5677 5.4375 56.8594 5.58854 57.1094 5.79688C57.3594 6.00521 57.5573 6.28125 57.7031 6.625C57.849 6.95833 57.9219 7.36979 57.9219 7.85938C57.9219 8.32813 57.849 8.73438 57.7031 9.07813C57.5573 9.41146 57.3594 9.6875 57.1094 9.90625C56.8594 10.1146 56.5677 10.2708 56.2344 10.375C55.9115 10.4688 55.5677 10.5156 55.2031 10.5156C54.8177 10.5156 54.4583 10.4688 54.125 10.375C53.7917 10.2708 53.5 10.1146 53.25 9.90625C53 9.6875 52.8021 9.41146 52.6562 9.07813C52.5208 8.73438 52.4531 8.32813 52.4531 7.85938ZM69.2866 23.352C64.0706 23.352 61.0946 18.744 61.0946 12.088C61.0946 5.432 64.0706 0.855999 69.2866 0.855999C74.4706 0.855999 77.4466 5.432 77.4466 12.088C77.4466 18.744 74.4706 23.352 69.2866 23.352ZM69.2866 19.544C72.1346 19.544 73.3826 16.472 73.3826 12.088C73.3826 7.704 72.1346 4.664 69.2866 4.664C66.4066 4.664 65.1586 7.704 65.1586 12.088C65.1586 16.472 66.4066 19.544 69.2866 19.544ZM87.6779 23.352C82.4619 23.352 79.4859 18.744 79.4859 12.088C79.4859 5.432 82.4619 0.855999 87.6779 0.855999C92.8619 0.855999 95.8379 5.432 95.8379 12.088C95.8379 18.744 92.8619 23.352 87.6779 23.352ZM87.6779 19.544C90.5259 19.544 91.7739 16.472 91.7739 12.088C91.7739 7.704 90.5259 4.664 87.6779 4.664C84.7979 4.664 83.5499 7.704 83.5499 12.088C83.5499 16.472 84.7979 19.544 87.6779 19.544Z" fill="#092857"/>
<path d="M6.26106 50.16C5.22639 50.16 4.28239 49.9147 3.42906 49.424C2.58639 48.9333 1.91973 48.2613 1.42906 47.408C0.938395 46.5547 0.693061 45.6053 0.693061 44.56C0.693061 43.5147 0.938395 42.5653 1.42906 41.712C1.91973 40.848 2.58639 40.1707 3.42906 39.68C4.28239 39.1893 5.22639 38.944 6.26106 38.944C7.29573 38.944 8.2344 39.1893 9.07706 39.68C9.91973 40.1707 10.5864 40.848 11.0771 41.712C11.5677 42.5653 11.8131 43.5147 11.8131 44.56C11.8131 45.6053 11.5677 46.5547 11.0771 47.408C10.5864 48.2613 9.91973 48.9333 9.07706 49.424C8.2344 49.9147 7.29573 50.16 6.26106 50.16ZM6.26106 48.544C6.96506 48.544 7.60506 48.368 8.18106 48.016C8.76773 47.664 9.2264 47.184 9.55706 46.576C9.89839 45.968 10.0691 45.296 10.0691 44.56C10.0691 43.8133 9.89839 43.136 9.55706 42.528C9.2264 41.92 8.76773 41.44 8.18106 41.088C7.60506 40.736 6.96506 40.56 6.26106 40.56C5.54639 40.56 4.89573 40.736 4.30906 41.088C3.73306 41.44 3.27439 41.92 2.93306 42.528C2.60239 43.136 2.43706 43.8133 2.43706 44.56C2.43706 45.296 2.60239 45.968 2.93306 46.576C3.27439 47.184 3.73306 47.664 4.30906 48.016C4.89573 48.368 5.54639 48.544 6.26106 48.544ZM17.7401 42.496V43.888L15.6281 43.888V50H13.9481V43.888H12.4921L12.4921 42.496H13.9481V41.776C13.9481 40.9013 14.1827 40.224 14.6521 39.744C15.1214 39.2533 15.7347 39.008 16.4921 39.008C16.8121 39.008 17.1267 39.0453 17.4361 39.12V40.496C17.2867 40.4747 17.1321 40.464 16.9721 40.464C16.0761 40.464 15.6281 40.896 15.6281 41.76V42.496L17.7401 42.496ZM29.1951 39.104V40.688H24.2191V43.84H28.8271V45.424H24.2191L24.2191 50H22.5071L22.5071 39.104H29.1951ZM30.1696 45.392C30.1696 44.464 30.4309 43.7227 30.9536 43.168C31.4869 42.6133 32.2016 42.336 33.0976 42.336C33.3642 42.336 33.6629 42.3733 33.9936 42.448V43.984C33.8976 43.9733 33.7056 43.968 33.4176 43.968C32.8949 43.968 32.5002 44.1013 32.2336 44.368C31.9776 44.6347 31.8496 45.072 31.8496 45.68L31.8496 50H30.1696L30.1696 45.392ZM42.2047 46.256C42.2047 46.5013 42.1994 46.704 42.1887 46.864H36.4287C36.5354 47.44 36.7807 47.888 37.1647 48.208C37.5487 48.528 38.0127 48.688 38.5567 48.688C39.442 48.688 40.0447 48.3733 40.3647 47.744L42.0127 47.744C41.7887 48.4907 41.362 49.0827 40.7327 49.52C40.1034 49.9467 39.3834 50.16 38.5727 50.16C37.8367 50.16 37.1754 49.9947 36.5887 49.664C36.0127 49.3333 35.5594 48.8747 35.2287 48.288C34.9087 47.6907 34.7487 47.0133 34.7487 46.256C34.7487 45.4987 34.9087 44.8267 35.2287 44.24C35.5594 43.6427 36.0127 43.1787 36.5887 42.848C37.1647 42.5067 37.8207 42.336 38.5567 42.336C39.2287 42.336 39.842 42.5067 40.3967 42.848C40.962 43.1893 41.4047 43.6587 41.7247 44.256C42.0447 44.8533 42.2047 45.52 42.2047 46.256ZM38.5567 43.808C38.0127 43.808 37.5487 43.968 37.1647 44.288C36.7914 44.608 36.546 45.04 36.4287 45.584H40.5407C40.4874 45.0933 40.274 44.6773 39.9007 44.336C39.5274 43.984 39.0794 43.808 38.5567 43.808ZM50.4353 46.256C50.4353 46.5013 50.43 46.704 50.4193 46.864H44.6593C44.766 47.44 45.0113 47.888 45.3953 48.208C45.7793 48.528 46.2433 48.688 46.7873 48.688C47.6726 48.688 48.2753 48.3733 48.5953 47.744H50.2433C50.0193 48.4907 49.5926 49.0827 48.9633 49.52C48.334 49.9467 47.614 50.16 46.8033 50.16C46.0673 50.16 45.406 49.9947 44.8193 49.664C44.2433 49.3333 43.79 48.8747 43.4593 48.288C43.1393 47.6907 42.9793 47.0133 42.9793 46.256C42.9793 45.4987 43.1393 44.8267 43.4593 44.24C43.79 43.6427 44.2433 43.1787 44.8193 42.848C45.3953 42.5067 46.0513 42.336 46.7873 42.336C47.4593 42.336 48.0726 42.5067 48.6273 42.848C49.1926 43.1893 49.6353 43.6587 49.9553 44.256C50.2753 44.8533 50.4353 45.52 50.4353 46.256ZM46.7873 43.808C46.2433 43.808 45.7793 43.968 45.3953 44.288C45.022 44.608 44.7766 45.04 44.6593 45.584H48.7713C48.718 45.0933 48.5046 44.6773 48.1313 44.336C47.758 43.984 47.31 43.808 46.7873 43.808ZM54.4186 39.104H62.8826V40.704H59.5066V50H57.7946V40.704H54.4186V39.104ZM64.6863 41.152C64.377 41.152 64.1156 41.0507 63.9023 40.848C63.6996 40.6453 63.5983 40.3947 63.5983 40.096C63.5983 39.7973 63.6996 39.5467 63.9023 39.344C64.1156 39.1307 64.377 39.024 64.6863 39.024C64.985 39.024 65.2356 39.1307 65.4383 39.344C65.6516 39.5467 65.7583 39.7973 65.7583 40.096C65.7583 40.3947 65.6516 40.6453 65.4383 40.848C65.2356 41.0507 64.985 41.152 64.6863 41.152ZM65.5183 50H63.8383V42.496H65.5183V50ZM67.2252 45.632C67.2252 44.64 67.5079 43.8453 68.0732 43.248C68.6385 42.64 69.4065 42.336 70.3772 42.336C70.8359 42.336 71.2359 42.416 71.5772 42.576C71.9292 42.736 72.2065 42.9227 72.4092 43.136C72.6225 43.3387 72.7665 43.5253 72.8412 43.696H72.8732C72.9372 43.536 73.0705 43.3493 73.2732 43.136C73.4865 42.9227 73.7639 42.736 74.1052 42.576C74.4572 42.416 74.8625 42.336 75.3212 42.336C76.3025 42.336 77.0705 42.64 77.6252 43.248C78.1905 43.8453 78.4732 44.64 78.4732 45.632V50H76.7932V45.76C76.7932 45.1627 76.6599 44.6987 76.3932 44.368C76.1372 44.0373 75.7532 43.872 75.2412 43.872C74.7292 43.872 74.3399 44.0373 74.0732 44.368C73.8172 44.6987 73.6892 45.168 73.6892 45.776V50.016H72.0092V45.776C72.0092 45.168 71.8759 44.6987 71.6092 44.368C71.3532 44.0373 70.9692 43.872 70.4572 43.872C69.9452 43.872 69.5559 44.0373 69.2892 44.368C69.0332 44.6987 68.9052 45.1627 68.9052 45.76V50H67.2252V45.632ZM87.1666 46.256C87.1666 46.5013 87.1612 46.704 87.1506 46.864H81.3906C81.4972 47.44 81.7426 47.888 82.1266 48.208C82.5106 48.528 82.9746 48.688 83.5186 48.688C84.4039 48.688 85.0066 48.3733 85.3266 47.744H86.9746C86.7506 48.4907 86.3239 49.0827 85.6946 49.52C85.0652 49.9467 84.3452 50.16 83.5346 50.16C82.7986 50.16 82.1372 49.9947 81.5506 49.664C80.9746 49.3333 80.5212 48.8747 80.1906 48.288C79.8706 47.6907 79.7106 47.0133 79.7106 46.256C79.7106 45.4987 79.8706 44.8267 80.1906 44.24C80.5212 43.6427 80.9746 43.1787 81.5506 42.848C82.1266 42.5067 82.7826 42.336 83.5186 42.336C84.1906 42.336 84.8039 42.5067 85.3586 42.848C85.9239 43.1893 86.3666 43.6587 86.6866 44.256C87.0066 44.8533 87.1666 45.52 87.1666 46.256ZM83.5186 43.808C82.9746 43.808 82.5106 43.968 82.1266 44.288C81.7532 44.608 81.5079 45.04 81.3906 45.584H85.5026C85.4492 45.0933 85.2359 44.6773 84.8626 44.336C84.4892 43.984 84.0412 43.808 83.5186 43.808ZM93.8378 39.104V48.4H98.8298V50H92.1258V39.104H93.8378ZM106.655 46.256C106.655 46.5013 106.65 46.704 106.639 46.864L100.879 46.864C100.986 47.44 101.231 47.888 101.615 48.208C101.999 48.528 102.463 48.688 103.007 48.688C103.893 48.688 104.495 48.3733 104.815 47.744H106.463C106.239 48.4907 105.813 49.0827 105.183 49.52C104.554 49.9467 103.834 50.16 103.023 50.16C102.287 50.16 101.626 49.9947 101.039 49.664C100.463 49.3333 100.01 48.8747 99.6793 48.288C99.3593 47.6907 99.1993 47.0133 99.1993 46.256C99.1993 45.4987 99.3593 44.8267 99.6793 44.24C100.01 43.6427 100.463 43.1787 101.039 42.848C101.615 42.5067 102.271 42.336 103.007 42.336C103.679 42.336 104.293 42.5067 104.847 42.848C105.413 43.1893 105.855 43.6587 106.175 44.256C106.495 44.8533 106.655 45.52 106.655 46.256ZM103.007 43.808C102.463 43.808 101.999 43.968 101.615 44.288C101.242 44.608 100.997 45.04 100.879 45.584L104.991 45.584C104.938 45.0933 104.725 44.6773 104.351 44.336C103.978 43.984 103.53 43.808 103.007 43.808ZM112.047 42.496V43.888H109.935V50H108.255V43.888H106.799V42.496H108.255V41.776C108.255 40.9013 108.49 40.224 108.959 39.744C109.428 39.2533 110.042 39.008 110.799 39.008C111.119 39.008 111.434 39.0453 111.743 39.12V40.496C111.594 40.4747 111.439 40.464 111.279 40.464C110.383 40.464 109.935 40.896 109.935 41.76V42.496H112.047ZM117.509 43.888H115.317V47.216C115.317 47.7173 115.429 48.0747 115.653 48.288C115.888 48.4907 116.261 48.592 116.773 48.592L117.365 48.576V49.968C117.003 50.064 116.651 50.112 116.309 50.112C115.52 50.112 114.875 49.8773 114.373 49.408C113.883 48.928 113.637 48.2667 113.637 47.424V43.888H112.277V42.496H113.621V39.984H115.317V42.496H117.509V43.888Z" fill="#9999AF"/>
</svg>
