<svg width="19" height="18" viewBox="0 0 19 18" fill="none" xmlns="http://www.w3.org/2000/svg">
<path d="M16.4324 8.33999C16.4324 12.0075 13.7699 15.4425 10.1324 16.4475C9.88489 16.515 9.61488 16.515 9.36738 16.4475C5.72988 15.4425 3.06738 12.0075 3.06738 8.33999V5.04748C3.06738 4.43248 3.53239 3.73498 4.10989 3.50248L8.28738 1.79251C9.22488 1.41001 10.2824 1.41001 11.2199 1.79251L15.3974 3.50248C15.9674 3.73498 16.4399 4.43248 16.4399 5.04748L16.4324 8.33999Z" stroke="#0C0C2C" stroke-width="1.125" stroke-linecap="round" stroke-linejoin="round"/>
<path d="M9.75 9.375C10.5784 9.375 11.25 8.70343 11.25 7.875C11.25 7.04657 10.5784 6.375 9.75 6.375C8.92157 6.375 8.25 7.04657 8.25 7.875C8.25 8.70343 8.92157 9.375 9.75 9.375Z" stroke="#092857" stroke-width="1.125" stroke-miterlimit="10" stroke-linecap="round" stroke-linejoin="round"/>
<path d="M9.75 9.375V11.625" stroke="#092857" stroke-width="1.125" stroke-miterlimit="10" stroke-linecap="round" stroke-linejoin="round"/>
</svg>
