<svg width="210" height="43" viewBox="0 0 210 43" fill="none" xmlns="http://www.w3.org/2000/svg">
<path d="M45.2614 27.385C49.7613 27.4196 52.8421 24.1658 52.8421 20.0119V10.7351H48.446V19.6658C48.446 22.0889 47.4767 23.5427 45.2614 23.5081C43.1845 23.4735 42.146 22.0196 42.146 19.6658V10.7351H37.7499V19.9773C37.7499 24.2696 40.4499 27.3503 45.2614 27.385Z" fill="white"/>
<path d="M60.2824 27.0042V17.9004C60.2824 15.6504 61.3209 14.5428 63.7439 14.5428C63.9516 14.5428 64.4016 14.5428 64.9209 14.5774V10.6313C64.1939 10.4582 63.5709 10.389 62.7401 10.389C58.1709 10.389 55.8863 13.5043 55.8863 17.4158V27.0042H60.2824Z" fill="white"/>
<path d="M71.3876 27.0042V17.9004C71.3876 15.6504 72.4261 14.5428 74.8492 14.5428C75.0568 14.5428 75.5068 14.5428 76.0261 14.5774V10.6313C75.2992 10.4582 74.6761 10.389 73.8453 10.389C69.2761 10.389 66.9915 13.5043 66.9915 17.4158V27.0042H71.3876Z" fill="white"/>
<path d="M93.6735 18.8696C93.6735 14.0235 90.2466 10.389 85.5044 10.389C80.6237 10.389 77.1621 13.9889 77.1621 18.8696C77.1621 23.785 80.5544 27.385 85.6082 27.385C88.8967 27.385 92.1851 25.6888 93.1889 22.0889H89.139C88.4813 23.2312 87.4082 23.7504 85.5044 23.7504C83.3929 23.7504 81.8352 22.5735 81.316 20.3581H93.6043C93.6735 19.735 93.6735 19.4927 93.6735 18.8696ZM85.5044 14.0235C87.6159 14.0235 89.2774 15.4081 89.5543 17.312H81.2813C81.766 15.3389 83.3236 14.0235 85.5044 14.0235Z" fill="white"/>
<path d="M100.19 27.0042V18.1081C100.19 15.7197 101.263 14.2312 103.409 14.2312C105.555 14.2312 106.628 15.7197 106.628 18.1081V27.0042H110.99V17.762C110.99 13.4697 108.255 10.389 103.409 10.389C98.5283 10.389 95.7937 13.4697 95.7937 17.762V27.0042H100.19Z" fill="white"/>
<path d="M122.305 23.4042C119.328 23.4042 118.497 22.3312 118.497 19.7004V14.3351H123.378V10.7351H118.497V5.50823H114.101V20.1504C114.101 24.9965 117.008 27.2811 121.024 27.2811C122.028 27.2811 122.685 27.1773 123.481 27.0042V23.3696C122.893 23.4042 122.72 23.4042 122.305 23.4042Z" fill="white"/>
<path d="M140.543 27.0042L131.543 3.46594H135.178L141.789 21.7427C141.974 22.2504 142.101 22.7004 142.17 23.0927H142.239C142.308 22.7004 142.435 22.2504 142.62 21.7427L149.231 3.46594H152.866L143.866 27.0042H140.543Z" fill="white"/>
<path d="M160.622 10.4582C162.122 10.4582 163.495 10.8274 164.742 11.5659C165.988 12.3043 166.968 13.3197 167.684 14.612C168.422 15.8812 168.791 17.312 168.791 18.9043C168.791 20.4966 168.457 21.9389 167.788 23.2312C167.118 24.5234 166.207 25.5388 165.053 26.2773C163.922 26.9927 162.676 27.3503 161.315 27.3503C160.322 27.3503 159.307 27.108 158.269 26.6234C157.23 26.1157 156.399 25.4234 155.776 24.5465V34.3426H152.592V18.9043C152.592 17.1735 152.961 15.6735 153.699 14.4043C154.438 13.112 155.419 12.1312 156.642 11.462C157.865 10.7928 159.192 10.4582 160.622 10.4582ZM160.761 24.4427C162.168 24.4427 163.322 23.935 164.222 22.9196C165.145 21.8812 165.607 20.5427 165.607 18.9043C165.607 17.8197 165.376 16.862 164.915 16.0312C164.476 15.1774 163.876 14.5197 163.115 14.0582C162.353 13.5966 161.522 13.3659 160.622 13.3659C159.768 13.3659 158.972 13.5851 158.234 14.0235C157.495 14.462 156.895 15.1081 156.434 15.962C155.995 16.7927 155.776 17.7735 155.776 18.9043C155.776 20.0119 156.007 20.9927 156.469 21.8465C156.93 22.6773 157.542 23.3235 158.303 23.785C159.065 24.2234 159.884 24.4427 160.761 24.4427Z" fill="white"/>
<path d="M171.201 17.4158C171.201 16.0774 171.49 14.8774 172.067 13.8158C172.644 12.7543 173.463 11.9351 174.524 11.3582C175.586 10.7582 176.82 10.4582 178.228 10.4582C179.636 10.4582 180.87 10.7582 181.932 11.3582C182.993 11.9351 183.813 12.7543 184.39 13.8158C184.967 14.8774 185.255 16.0774 185.255 17.4158V27.0042H182.07V17.6581C182.07 16.2966 181.747 15.2466 181.101 14.5082C180.455 13.7466 179.497 13.3659 178.228 13.3659C176.959 13.3659 176.001 13.7466 175.355 14.5082C174.709 15.2466 174.386 16.2966 174.386 17.6581V27.0042H171.201V17.4158Z" fill="white"/>
<path fill-rule="evenodd" clip-rule="evenodd" d="M12.8076 19.613C20.2407 18.1794 34.623 13.0292 34.623 13.0292C34.623 13.0292 34.6674 13.5823 34.6674 14C34.6674 14.0259 34.6673 14.0517 34.6671 14.0775C32.8399 14.7259 19.9648 19.2539 13.0695 20.5838L8.49236 21.4052L8.39652 21.4212L6.06192 24.0923C5.68777 24.1004 5.31404 24.1045 4.94081 24.1045C-2.57355 24.1044 0.706338 19.4704 6.86438 16.3538C6.73482 15.5885 6.66736 14.8021 6.66736 14C6.66736 6.268 12.9357 0 20.6674 0C23.3872 0 25.9264 0.77563 28.0748 2.11788L22.8607 4.59262C22.1561 4.42895 21.4215 4.34242 20.6674 4.34242C15.3339 4.34242 11.0098 8.66625 11.0098 14C11.0098 16.0933 11.6758 18.0311 12.8076 19.613ZM11.6047 24.6712C14.0469 26.7473 17.2109 28 20.6674 28C26.6806 28 31.8087 24.2086 33.7912 18.8858L28.6962 20.711C24.9781 21.9724 21.0746 23.0659 17.1079 23.8428L11.6047 24.6712ZM7.15678 17.6827C7.41851 18.6451 7.78034 19.5663 8.2304 20.4344L8.13456 20.4504C3.81292 21.1712 3.342 19.8396 7.1559 17.6831L7.15678 17.6827Z" fill="white"/>
<path d="M34.623 13.0292C34.623 13.0292 20.2407 18.1794 12.8076 19.613L8.2304 20.4345L8.13456 20.4505C3.81292 21.1712 3.342 19.8396 7.1559 17.6832L6.86438 16.3538C0.706338 19.4704 -2.57355 24.1045 4.94081 24.1045C6.84196 24.1045 8.75646 23.9981 10.6709 23.8015L16.846 22.872C20.8127 22.0951 24.7162 21.0016 28.4343 19.7402L34.1779 17.6827C34.497 16.5092 34.6674 15.2745 34.6674 14C34.6674 13.5823 34.623 13.0292 34.623 13.0292Z" fill="white"/>
<path d="M194.824 35L191.512 26.576H193.33L195.238 31.868C195.382 32.264 195.49 32.612 195.562 32.912H195.598C195.67 32.612 195.778 32.264 195.922 31.868L197.83 26.576H199.666L196.354 35H194.824ZM200.094 35V33.596L202.974 31.364C204.21 30.404 205.116 29.546 205.692 28.79C206.268 28.022 206.556 27.254 206.556 26.486C206.556 25.754 206.316 25.178 205.836 24.758C205.368 24.338 204.81 24.128 204.162 24.128C203.322 24.128 202.674 24.386 202.218 24.902C201.762 25.406 201.522 26.054 201.498 26.846H199.806C199.818 26.042 199.992 25.316 200.328 24.668C200.664 24.02 201.156 23.51 201.804 23.138C202.464 22.766 203.25 22.58 204.162 22.58C204.966 22.58 205.674 22.748 206.286 23.084C206.91 23.408 207.39 23.87 207.726 24.47C208.074 25.058 208.248 25.73 208.248 26.486C208.248 27.458 207.924 28.394 207.276 29.294C206.628 30.194 205.608 31.142 204.216 32.138L202.416 33.416V33.452H208.104V35H200.094Z" fill="#A1CDFF"/>
</svg>
