<svg width="21" height="21" viewBox="0 0 21 21" fill="none" xmlns="http://www.w3.org/2000/svg">
<path d="M17.5933 10.0391C17.5933 11.4252 14.2223 12.5489 10.064 12.5489C5.90566 12.5489 2.53467 11.4252 2.53467 10.0391" stroke="#0A7AF9" stroke-width="1.25489" stroke-linecap="round" stroke-linejoin="round"/>
<path d="M17.5933 4.18297C17.5933 5.56908 14.2223 6.69274 10.064 6.69274C5.90566 6.69274 2.53467 5.56908 2.53467 4.18296M17.5933 4.18297C17.5933 2.79686 14.2223 1.67319 10.064 1.67319C5.90566 1.67319 2.53467 2.79685 2.53467 4.18296M17.5933 4.18297L17.5933 15.8953C17.5933 17.2814 14.2223 18.405 10.064 18.405C5.90566 18.405 2.53467 17.2814 2.53467 15.8953L2.53467 4.18296" stroke="#092857" stroke-width="1.25489" stroke-linecap="round" stroke-linejoin="round"/>
</svg>
