<svg width="21" height="20" viewBox="0 0 21 20" fill="none" xmlns="http://www.w3.org/2000/svg">
<path fill-rule="evenodd" clip-rule="evenodd" d="M8.00033 1.04166C5.8142 1.04166 4.04199 2.81386 4.04199 4.99999C4.04199 7.18612 5.8142 8.95832 8.00033 8.95832C10.1865 8.95832 11.9587 7.18612 11.9587 4.99999C11.9587 2.81386 10.1865 1.04166 8.00033 1.04166ZM1.54199 15.7917C1.54199 13.1683 3.66864 11.0417 6.29199 11.0417H9.70865C12.332 11.0417 14.4587 13.1683 14.4587 15.7917C14.4587 17.5406 13.0409 18.9583 11.292 18.9583H4.70866C2.95976 18.9583 1.54199 17.5406 1.54199 15.7917ZM16.0307 5.30299C15.7378 5.0101 15.2629 5.0101 14.97 5.30299C14.6771 5.59589 14.6771 6.07076 14.97 6.36365L16.523 7.91666L14.97 9.46966C14.6771 9.76255 14.6771 10.2374 14.97 10.5303C15.2629 10.8232 15.7378 10.8232 16.0307 10.5303L17.5837 8.97732L19.1367 10.5303C19.4296 10.8232 19.9044 10.8232 20.1973 10.5303C20.4902 10.2374 20.4902 9.76255 20.1973 9.46966L18.6443 7.91666L20.1973 6.36365C20.4902 6.07076 20.4902 5.59589 20.1973 5.30299C19.9044 5.0101 19.4296 5.0101 19.1367 5.30299L17.5837 6.856L16.0307 5.30299Z" fill="white"/>
</svg>
