<svg width="13" height="13" viewBox="0 0 13 13" fill="none" xmlns="http://www.w3.org/2000/svg">
<path fill-rule="evenodd" clip-rule="evenodd" d="M6.82324 2.89257C6.81986 2.85122 6.76948 2.83239 6.74015 2.86173L1.94353 7.65829C1.70511 7.89671 1.5859 8.01592 1.49118 8.15174C1.4071 8.27229 1.33751 8.40233 1.28384 8.53916C1.22337 8.69331 1.19031 8.85863 1.12419 9.18925L0.672812 11.4461C0.628608 11.6671 0.606507 11.7776 0.639117 11.8565C0.667626 11.9254 0.72237 11.9801 0.791281 12.0086C0.870101 12.0412 0.980609 12.0191 1.20163 11.9749L3.4585 11.5236L3.45852 11.5236C3.78913 11.4574 3.95444 11.4244 4.10859 11.3639C4.24542 11.3102 4.37545 11.2407 4.496 11.1566C4.63182 11.0618 4.75103 10.9426 4.98945 10.7042L9.78621 5.90746C9.81536 5.87831 9.79665 5.82826 9.75556 5.8249C9.26548 5.78486 8.86729 5.70242 8.50913 5.51993C7.91456 5.21698 7.43116 4.73358 7.12821 4.13901C6.94572 3.78085 6.86328 3.38266 6.82324 2.89257ZM10.2192 5.14806C10.3318 5.15219 10.3881 5.15426 10.4449 5.14216C10.494 5.13169 10.5444 5.11191 10.5875 5.08613C10.6373 5.05636 10.6789 5.01474 10.7622 4.9315L11.5291 4.16459C11.8999 3.79382 12.0852 3.60844 12.1547 3.39466C12.2158 3.20662 12.2158 3.00407 12.1547 2.81603C12.0852 2.60225 11.8999 2.41687 11.5291 2.0461L11.5291 2.04609L10.6017 1.1187C10.231 0.747919 10.0456 0.562526 9.83181 0.493063C9.64377 0.431961 9.44121 0.431959 9.25317 0.493057C9.03939 0.562515 8.854 0.747904 8.48322 1.11868L7.71662 1.88527C7.63338 1.96851 7.59176 2.01012 7.562 2.05992C7.53621 2.10305 7.51643 2.15339 7.50596 2.20254C7.49386 2.25928 7.49593 2.3156 7.50005 2.42826C7.50542 2.57485 7.51284 2.70987 7.5231 2.83539C7.55959 3.28205 7.63022 3.57754 7.75387 3.82022C7.9895 4.28266 8.36548 4.65864 8.82792 4.89427C9.07059 5.01791 9.36609 5.08854 9.81274 5.12504C9.93806 5.13528 10.0728 5.14269 10.2192 5.14806Z" fill="#0A7AF9"/>
</svg>
