<svg width="88" height="89" viewBox="0 0 88 89" fill="none" xmlns="http://www.w3.org/2000/svg">
<g filter="url(#filter0_bii_561_2266)">
<rect x="21.5898" y="0.960693" width="69.6264" height="69.8557" rx="34.8132" transform="rotate(17.6906 21.5898 0.960693)" fill="url(#paint0_linear_561_2266)"/>
<path d="M41.1148 47.1128C42.4013 43.0444 47.5971 43.5573 48.5511 40.5406C49.0587 38.9354 48.1243 37.7506 46.3559 37.1816C44.6151 36.6216 43.0275 37.1171 41.9585 38.5722L39.7131 36.1422C41.6208 33.7678 44.6005 33.2018 47.419 34.1086C50.4862 35.0953 52.8928 37.882 51.7901 41.3692C50.4598 45.576 45.2377 45.1461 44.2925 48.1351L41.1148 47.1128ZM40.687 54.0493C39.5265 53.6759 38.9122 52.4416 39.271 51.3068C39.6386 50.1444 40.8392 49.5245 41.9998 49.8979C43.1327 50.2623 43.7834 51.4779 43.4158 52.6403C43.057 53.775 41.8199 54.4138 40.687 54.0493Z" fill="url(#paint1_linear_561_2266)"/>
</g>
<defs>
<filter id="filter0_bii_561_2266" x="-65.9883" y="-65.39" width="220.263" height="220.411" filterUnits="userSpaceOnUse" color-interpolation-filters="sRGB">
<feFlood flood-opacity="0" result="BackgroundImageFix"/>
<feGaussianBlur in="BackgroundImageFix" stdDeviation="33.1753"/>
<feComposite in2="SourceAlpha" operator="in" result="effect1_backgroundBlur_561_2266"/>
<feBlend mode="normal" in="SourceGraphic" in2="effect1_backgroundBlur_561_2266" result="shape"/>
<feColorMatrix in="SourceAlpha" type="matrix" values="0 0 0 0 0 0 0 0 0 0 0 0 0 0 0 0 0 0 127 0" result="hardAlpha"/>
<feOffset dx="4.73933" dy="4.73933"/>
<feGaussianBlur stdDeviation="7.89889"/>
<feComposite in2="hardAlpha" operator="arithmetic" k2="-1" k3="1"/>
<feColorMatrix type="matrix" values="0 0 0 0 1 0 0 0 0 1 0 0 0 0 1 0 0 0 0.32 0"/>
<feBlend mode="normal" in2="shape" result="effect2_innerShadow_561_2266"/>
<feColorMatrix in="SourceAlpha" type="matrix" values="0 0 0 0 0 0 0 0 0 0 0 0 0 0 0 0 0 0 127 0" result="hardAlpha"/>
<feOffset dx="-4.73933" dy="-4.73933"/>
<feGaussianBlur stdDeviation="7.89889"/>
<feComposite in2="hardAlpha" operator="arithmetic" k2="-1" k3="1"/>
<feColorMatrix type="matrix" values="0 0 0 0 0 0 0 0 0 0 0 0 0 0 0 0 0 0 0.1 0"/>
<feBlend mode="normal" in2="effect2_innerShadow_561_2266" result="effect3_innerShadow_561_2266"/>
</filter>
<linearGradient id="paint0_linear_561_2266" x1="56.403" y1="70.8164" x2="54.7917" y2="0.99788" gradientUnits="userSpaceOnUse">
<stop stop-color="#0066E7"/>
<stop offset="0.25" stop-color="#0071FF"/>
<stop offset="1" stop-color="#4ECAFF"/>
</linearGradient>
<linearGradient id="paint1_linear_561_2266" x1="49.4193" y1="28.1302" x2="70.3783" y2="100.462" gradientUnits="userSpaceOnUse">
<stop stop-color="white"/>
<stop offset="1" stop-color="white" stop-opacity="0"/>
</linearGradient>
</defs>
</svg>
